solid OpenSCAD_Model
  facet normal 0 0 -1
    outer loop
      vertex 0 80 0
      vertex 10 10 0
      vertex 0 0 0
    endloop
  endfacet
  facet normal 0 0 -1
    outer loop
      vertex 10 3 0
      vertex 35 3 0
      vertex 35 0 0
    endloop
  endfacet
  facet normal 0 0 -1
    outer loop
      vertex 0 80 0
      vertex 6 80 0
      vertex 10 10 0
    endloop
  endfacet
  facet normal 0 -0 -1
    outer loop
      vertex 10 3 0
      vertex 35 0 0
      vertex 0 0 0
    endloop
  endfacet
  facet normal 0 0 -1
    outer loop
      vertex 10 5.2 0
      vertex 35 8 0
      vertex 35 5.2 0
    endloop
  endfacet
  facet normal 0 0 -1
    outer loop
      vertex 10 5.2 0
      vertex 10 10 0
      vertex 35 8 0
    endloop
  endfacet
  facet normal 0 0 -1
    outer loop
      vertex 0 0 0
      vertex 10 10 0
      vertex 10 5.2 0
    endloop
  endfacet
  facet normal -0 0 -1
    outer loop
      vertex 10 3 0
      vertex 0 0 0
      vertex 10 5.2 0
    endloop
  endfacet
  facet normal 0 0 1
    outer loop
      vertex 0 0 3
      vertex 10 10 3
      vertex 0 80 3
    endloop
  endfacet
  facet normal 0 -0 1
    outer loop
      vertex 35 0 3
      vertex 35 3 3
      vertex 10 3 3
    endloop
  endfacet
  facet normal 0 0 1
    outer loop
      vertex 10 10 3
      vertex 6 80 3
      vertex 0 80 3
    endloop
  endfacet
  facet normal 0 0 1
    outer loop
      vertex 0 0 3
      vertex 35 0 3
      vertex 10 3 3
    endloop
  endfacet
  facet normal 0 -0 1
    outer loop
      vertex 35 5.2 3
      vertex 35 8 3
      vertex 10 5.2 3
    endloop
  endfacet
  facet normal 0 0 1
    outer loop
      vertex 35 8 3
      vertex 10 10 3
      vertex 10 5.2 3
    endloop
  endfacet
  facet normal 0 -0 1
    outer loop
      vertex 10 5.2 3
      vertex 10 10 3
      vertex 0 0 3
    endloop
  endfacet
  facet normal 0 0 1
    outer loop
      vertex 10 5.2 3
      vertex 0 0 3
      vertex 10 3 3
    endloop
  endfacet
  facet normal 0 1 0
    outer loop
      vertex 10 3 0
      vertex 35 3 3
      vertex 35 3 0
    endloop
  endfacet
  facet normal 0 1 0
    outer loop
      vertex 10 3 0
      vertex 10 3 3
      vertex 35 3 3
    endloop
  endfacet
  facet normal 1 0 0
    outer loop
      vertex 10 5.2 0
      vertex 10 3 3
      vertex 10 3 0
    endloop
  endfacet
  facet normal 1 0 -0
    outer loop
      vertex 10 5.2 0
      vertex 10 5.2 3
      vertex 10 3 3
    endloop
  endfacet
  facet normal 0 -1 0
    outer loop
      vertex 35 5.2 0
      vertex 10 5.2 3
      vertex 10 5.2 0
    endloop
  endfacet
  facet normal 0 -1 0
    outer loop
      vertex 35 5.2 0
      vertex 35 5.2 3
      vertex 10 5.2 3
    endloop
  endfacet
  facet normal 1 0 0
    outer loop
      vertex 35 8 0
      vertex 35 5.2 3
      vertex 35 5.2 0
    endloop
  endfacet
  facet normal 1 0 -0
    outer loop
      vertex 35 8 0
      vertex 35 8 3
      vertex 35 5.2 3
    endloop
  endfacet
  facet normal 0.0797452 0.996815 0
    outer loop
      vertex 10 10 0
      vertex 35 8 3
      vertex 35 8 0
    endloop
  endfacet
  facet normal 0.0797452 0.996815 -0
    outer loop
      vertex 10 10 0
      vertex 10 10 3
      vertex 35 8 3
    endloop
  endfacet
  facet normal 0.998371 0.0570498 0
    outer loop
      vertex 6 80 0
      vertex 10 10 3
      vertex 10 10 0
    endloop
  endfacet
  facet normal 0.998371 0.0570498 -0
    outer loop
      vertex 6 80 0
      vertex 6 80 3
      vertex 10 10 3
    endloop
  endfacet
  facet normal 0 1 0
    outer loop
      vertex 0 80 0
      vertex 6 80 3
      vertex 6 80 0
    endloop
  endfacet
  facet normal 0 1 0
    outer loop
      vertex 0 80 0
      vertex 0 80 3
      vertex 6 80 3
    endloop
  endfacet
  facet normal -1 0 0
    outer loop
      vertex 0 0 0
      vertex 0 80 3
      vertex 0 80 0
    endloop
  endfacet
  facet normal -1 0 0
    outer loop
      vertex 0 0 0
      vertex 0 0 3
      vertex 0 80 3
    endloop
  endfacet
  facet normal 0 -1 0
    outer loop
      vertex 35 0 0
      vertex 0 0 3
      vertex 0 0 0
    endloop
  endfacet
  facet normal 0 -1 0
    outer loop
      vertex 35 0 0
      vertex 35 0 3
      vertex 0 0 3
    endloop
  endfacet
  facet normal 1 0 0
    outer loop
      vertex 35 3 0
      vertex 35 0 3
      vertex 35 0 0
    endloop
  endfacet
  facet normal 1 0 -0
    outer loop
      vertex 35 3 0
      vertex 35 3 3
      vertex 35 0 3
    endloop
  endfacet
endsolid OpenSCAD_Model
