solid OpenSCAD_Model
  facet normal -1 0 0
    outer loop
      vertex 2 2 3.1
      vertex 2 6 40
      vertex 2 6 3.1
    endloop
  endfacet
  facet normal -1 -0 0
    outer loop
      vertex 2 6 40
      vertex 2 2 3.1
      vertex 2 2 40
    endloop
  endfacet
  facet normal -0 0 1
    outer loop
      vertex 2 6 40
      vertex 10.5 2 40
      vertex 10.5 6 40
    endloop
  endfacet
  facet normal 0 0 1
    outer loop
      vertex 10.5 2 40
      vertex 2 6 40
      vertex 2 2 40
    endloop
  endfacet
  facet normal -0 0 1
    outer loop
      vertex 16.5 6 40
      vertex 24.5 2 40
      vertex 24.5 6 40
    endloop
  endfacet
  facet normal 0 0 1
    outer loop
      vertex 24.5 2 40
      vertex 16.5 6 40
      vertex 16.5 2 40
    endloop
  endfacet
  facet normal 1 -0 0
    outer loop
      vertex 24.5 2 40
      vertex 24.5 6 3.1
      vertex 24.5 6 40
    endloop
  endfacet
  facet normal 1 0 0
    outer loop
      vertex 24.5 6 3.1
      vertex 24.5 2 40
      vertex 24.5 2 3.1
    endloop
  endfacet
  facet normal 0 -1 0
    outer loop
      vertex 2 2 40
      vertex 7 2 35
      vertex 10.5 2 40
    endloop
  endfacet
  facet normal 0 -1 0
    outer loop
      vertex 2 2 40
      vertex 7 2 13
      vertex 7 2 35
    endloop
  endfacet
  facet normal 0 -1 -0
    outer loop
      vertex 7 2 13
      vertex 2 2 3.1
      vertex 19.5 2 13
    endloop
  endfacet
  facet normal 0 -1 0
    outer loop
      vertex 2 2 3.1
      vertex 7 2 13
      vertex 2 2 40
    endloop
  endfacet
  facet normal 0 -1 -0
    outer loop
      vertex 10.5 2 40
      vertex 7 2 35
      vertex 10.5 2 35
    endloop
  endfacet
  facet normal 0 -1 0
    outer loop
      vertex 19.5 2 35
      vertex 16.5 2 40
      vertex 16.5 2 35
    endloop
  endfacet
  facet normal 0 -1 0
    outer loop
      vertex 16.5 2 40
      vertex 19.5 2 35
      vertex 24.5 2 40
    endloop
  endfacet
  facet normal 0 -1 0
    outer loop
      vertex 19.5 2 13
      vertex 24.5 2 40
      vertex 19.5 2 35
    endloop
  endfacet
  facet normal 0 -1 0
    outer loop
      vertex 19.5 2 13
      vertex 24.5 2 3.1
      vertex 24.5 2 40
    endloop
  endfacet
  facet normal 0 -1 0
    outer loop
      vertex 24.5 2 3.1
      vertex 19.5 2 13
      vertex 2 2 3.1
    endloop
  endfacet
  facet normal 0 1 0
    outer loop
      vertex 24.5 6 40
      vertex 19.5 6 35
      vertex 16.5 6 40
    endloop
  endfacet
  facet normal 0 1 0
    outer loop
      vertex 24.5 6 40
      vertex 19.5 6 13
      vertex 19.5 6 35
    endloop
  endfacet
  facet normal 0 1 0
    outer loop
      vertex 19.5 6 13
      vertex 24.5 6 3.1
      vertex 7 6 13
    endloop
  endfacet
  facet normal 0 1 -0
    outer loop
      vertex 24.5 6 3.1
      vertex 19.5 6 13
      vertex 24.5 6 40
    endloop
  endfacet
  facet normal 0 1 0
    outer loop
      vertex 16.5 6 40
      vertex 19.5 6 35
      vertex 16.5 6 35
    endloop
  endfacet
  facet normal 0 1 0
    outer loop
      vertex 7 6 35
      vertex 10.5 6 40
      vertex 10.5 6 35
    endloop
  endfacet
  facet normal 0 1 0
    outer loop
      vertex 10.5 6 40
      vertex 7 6 35
      vertex 2 6 40
    endloop
  endfacet
  facet normal 0 1 -0
    outer loop
      vertex 7 6 13
      vertex 2 6 40
      vertex 7 6 35
    endloop
  endfacet
  facet normal 0 1 0
    outer loop
      vertex 7 6 13
      vertex 2 6 3.1
      vertex 2 6 40
    endloop
  endfacet
  facet normal 0 1 0
    outer loop
      vertex 2 6 3.1
      vertex 7 6 13
      vertex 24.5 6 3.1
    endloop
  endfacet
  facet normal 1 -0 0
    outer loop
      vertex 7 2 35
      vertex 7 6 13
      vertex 7 6 35
    endloop
  endfacet
  facet normal 1 0 0
    outer loop
      vertex 7 6 13
      vertex 7 2 35
      vertex 7 2 13
    endloop
  endfacet
  facet normal 0 0 -1
    outer loop
      vertex 7 2 35
      vertex 10.5 6 35
      vertex 10.5 2 35
    endloop
  endfacet
  facet normal -0 0 -1
    outer loop
      vertex 10.5 6 35
      vertex 7 2 35
      vertex 7 6 35
    endloop
  endfacet
  facet normal 0 0 -1
    outer loop
      vertex 16.5 2 35
      vertex 19.5 6 35
      vertex 19.5 2 35
    endloop
  endfacet
  facet normal -0 0 -1
    outer loop
      vertex 19.5 6 35
      vertex 16.5 2 35
      vertex 16.5 6 35
    endloop
  endfacet
  facet normal -1 0 0
    outer loop
      vertex 19.5 2 13
      vertex 19.5 6 35
      vertex 19.5 6 13
    endloop
  endfacet
  facet normal -1 -0 0
    outer loop
      vertex 19.5 6 35
      vertex 19.5 2 13
      vertex 19.5 2 35
    endloop
  endfacet
  facet normal -0 0 1
    outer loop
      vertex 7 6 13
      vertex 19.5 2 13
      vertex 19.5 6 13
    endloop
  endfacet
  facet normal 0 0 1
    outer loop
      vertex 19.5 2 13
      vertex 7 6 13
      vertex 7 2 13
    endloop
  endfacet
  facet normal 1 -0 0
    outer loop
      vertex 10.5 2 40
      vertex 10.5 6 35
      vertex 10.5 6 40
    endloop
  endfacet
  facet normal 1 0 0
    outer loop
      vertex 10.5 6 35
      vertex 10.5 2 40
      vertex 10.5 2 35
    endloop
  endfacet
  facet normal -1 0 0
    outer loop
      vertex 16.5 2 35
      vertex 16.5 6 40
      vertex 16.5 6 35
    endloop
  endfacet
  facet normal -1 -0 0
    outer loop
      vertex 16.5 6 40
      vertex 16.5 2 35
      vertex 16.5 2 40
    endloop
  endfacet
  facet normal -1 0 0
    outer loop
      vertex 2 42 3.1
      vertex 2 46 40
      vertex 2 46 3.1
    endloop
  endfacet
  facet normal -1 -0 0
    outer loop
      vertex 2 46 40
      vertex 2 42 3.1
      vertex 2 42 40
    endloop
  endfacet
  facet normal -0 0 1
    outer loop
      vertex 2 46 40
      vertex 10.5 42 40
      vertex 10.5 46 40
    endloop
  endfacet
  facet normal 0 0 1
    outer loop
      vertex 10.5 42 40
      vertex 2 46 40
      vertex 2 42 40
    endloop
  endfacet
  facet normal -0 0 1
    outer loop
      vertex 16.5 46 40
      vertex 24.5 42 40
      vertex 24.5 46 40
    endloop
  endfacet
  facet normal 0 0 1
    outer loop
      vertex 24.5 42 40
      vertex 16.5 46 40
      vertex 16.5 42 40
    endloop
  endfacet
  facet normal 1 -0 0
    outer loop
      vertex 24.5 42 40
      vertex 24.5 46 3.1
      vertex 24.5 46 40
    endloop
  endfacet
  facet normal 1 0 0
    outer loop
      vertex 24.5 46 3.1
      vertex 24.5 42 40
      vertex 24.5 42 3.1
    endloop
  endfacet
  facet normal 0 -1 0
    outer loop
      vertex 2 42 40
      vertex 7 42 35
      vertex 10.5 42 40
    endloop
  endfacet
  facet normal 0 -1 0
    outer loop
      vertex 2 42 40
      vertex 7 42 13
      vertex 7 42 35
    endloop
  endfacet
  facet normal 0 -1 -0
    outer loop
      vertex 7 42 13
      vertex 2 42 3.1
      vertex 19.5 42 13
    endloop
  endfacet
  facet normal 0 -1 0
    outer loop
      vertex 2 42 3.1
      vertex 7 42 13
      vertex 2 42 40
    endloop
  endfacet
  facet normal 0 -1 -0
    outer loop
      vertex 10.5 42 40
      vertex 7 42 35
      vertex 10.5 42 35
    endloop
  endfacet
  facet normal 0 -1 0
    outer loop
      vertex 19.5 42 35
      vertex 16.5 42 40
      vertex 16.5 42 35
    endloop
  endfacet
  facet normal 0 -1 0
    outer loop
      vertex 16.5 42 40
      vertex 19.5 42 35
      vertex 24.5 42 40
    endloop
  endfacet
  facet normal 0 -1 0
    outer loop
      vertex 19.5 42 13
      vertex 24.5 42 40
      vertex 19.5 42 35
    endloop
  endfacet
  facet normal 0 -1 0
    outer loop
      vertex 19.5 42 13
      vertex 24.5 42 3.1
      vertex 24.5 42 40
    endloop
  endfacet
  facet normal 0 -1 0
    outer loop
      vertex 24.5 42 3.1
      vertex 19.5 42 13
      vertex 2 42 3.1
    endloop
  endfacet
  facet normal 0 1 0
    outer loop
      vertex 24.5 46 40
      vertex 19.5 46 35
      vertex 16.5 46 40
    endloop
  endfacet
  facet normal 0 1 0
    outer loop
      vertex 24.5 46 40
      vertex 19.5 46 13
      vertex 19.5 46 35
    endloop
  endfacet
  facet normal 0 1 0
    outer loop
      vertex 19.5 46 13
      vertex 24.5 46 3.1
      vertex 7 46 13
    endloop
  endfacet
  facet normal 0 1 -0
    outer loop
      vertex 24.5 46 3.1
      vertex 19.5 46 13
      vertex 24.5 46 40
    endloop
  endfacet
  facet normal 0 1 0
    outer loop
      vertex 16.5 46 40
      vertex 19.5 46 35
      vertex 16.5 46 35
    endloop
  endfacet
  facet normal 0 1 0
    outer loop
      vertex 7 46 35
      vertex 10.5 46 40
      vertex 10.5 46 35
    endloop
  endfacet
  facet normal 0 1 0
    outer loop
      vertex 10.5 46 40
      vertex 7 46 35
      vertex 2 46 40
    endloop
  endfacet
  facet normal 0 1 -0
    outer loop
      vertex 7 46 13
      vertex 2 46 40
      vertex 7 46 35
    endloop
  endfacet
  facet normal 0 1 0
    outer loop
      vertex 7 46 13
      vertex 2 46 3.1
      vertex 2 46 40
    endloop
  endfacet
  facet normal 0 1 0
    outer loop
      vertex 2 46 3.1
      vertex 7 46 13
      vertex 24.5 46 3.1
    endloop
  endfacet
  facet normal 1 -0 0
    outer loop
      vertex 7 42 35
      vertex 7 46 13
      vertex 7 46 35
    endloop
  endfacet
  facet normal 1 0 0
    outer loop
      vertex 7 46 13
      vertex 7 42 35
      vertex 7 42 13
    endloop
  endfacet
  facet normal 0 0 -1
    outer loop
      vertex 7 42 35
      vertex 10.5 46 35
      vertex 10.5 42 35
    endloop
  endfacet
  facet normal -0 0 -1
    outer loop
      vertex 10.5 46 35
      vertex 7 42 35
      vertex 7 46 35
    endloop
  endfacet
  facet normal 0 0 -1
    outer loop
      vertex 16.5 42 35
      vertex 19.5 46 35
      vertex 19.5 42 35
    endloop
  endfacet
  facet normal -0 0 -1
    outer loop
      vertex 19.5 46 35
      vertex 16.5 42 35
      vertex 16.5 46 35
    endloop
  endfacet
  facet normal -1 0 0
    outer loop
      vertex 19.5 42 13
      vertex 19.5 46 35
      vertex 19.5 46 13
    endloop
  endfacet
  facet normal -1 -0 0
    outer loop
      vertex 19.5 46 35
      vertex 19.5 42 13
      vertex 19.5 42 35
    endloop
  endfacet
  facet normal -0 0 1
    outer loop
      vertex 7 46 13
      vertex 19.5 42 13
      vertex 19.5 46 13
    endloop
  endfacet
  facet normal 0 0 1
    outer loop
      vertex 19.5 42 13
      vertex 7 46 13
      vertex 7 42 13
    endloop
  endfacet
  facet normal 1 -0 0
    outer loop
      vertex 10.5 42 40
      vertex 10.5 46 35
      vertex 10.5 46 40
    endloop
  endfacet
  facet normal 1 0 0
    outer loop
      vertex 10.5 46 35
      vertex 10.5 42 40
      vertex 10.5 42 35
    endloop
  endfacet
  facet normal -1 0 0
    outer loop
      vertex 16.5 42 35
      vertex 16.5 46 40
      vertex 16.5 46 35
    endloop
  endfacet
  facet normal -1 -0 0
    outer loop
      vertex 16.5 46 40
      vertex 16.5 42 35
      vertex 16.5 42 40
    endloop
  endfacet
  facet normal -1 0 0
    outer loop
      vertex 2 82 3.1
      vertex 2 86 40
      vertex 2 86 3.1
    endloop
  endfacet
  facet normal -1 -0 0
    outer loop
      vertex 2 86 40
      vertex 2 82 3.1
      vertex 2 82 40
    endloop
  endfacet
  facet normal -0 0 1
    outer loop
      vertex 2 86 40
      vertex 10.5 82 40
      vertex 10.5 86 40
    endloop
  endfacet
  facet normal 0 0 1
    outer loop
      vertex 10.5 82 40
      vertex 2 86 40
      vertex 2 82 40
    endloop
  endfacet
  facet normal -0 0 1
    outer loop
      vertex 16.5 86 40
      vertex 24.5 82 40
      vertex 24.5 86 40
    endloop
  endfacet
  facet normal 0 0 1
    outer loop
      vertex 24.5 82 40
      vertex 16.5 86 40
      vertex 16.5 82 40
    endloop
  endfacet
  facet normal 1 -0 0
    outer loop
      vertex 24.5 82 40
      vertex 24.5 86 3.1
      vertex 24.5 86 40
    endloop
  endfacet
  facet normal 1 0 0
    outer loop
      vertex 24.5 86 3.1
      vertex 24.5 82 40
      vertex 24.5 82 3.1
    endloop
  endfacet
  facet normal 0 -1 0
    outer loop
      vertex 2 82 40
      vertex 7 82 35
      vertex 10.5 82 40
    endloop
  endfacet
  facet normal 0 -1 0
    outer loop
      vertex 2 82 40
      vertex 7 82 13
      vertex 7 82 35
    endloop
  endfacet
  facet normal 0 -1 -0
    outer loop
      vertex 7 82 13
      vertex 2 82 3.1
      vertex 19.5 82 13
    endloop
  endfacet
  facet normal 0 -1 0
    outer loop
      vertex 2 82 3.1
      vertex 7 82 13
      vertex 2 82 40
    endloop
  endfacet
  facet normal 0 -1 -0
    outer loop
      vertex 10.5 82 40
      vertex 7 82 35
      vertex 10.5 82 35
    endloop
  endfacet
  facet normal 0 -1 0
    outer loop
      vertex 19.5 82 35
      vertex 16.5 82 40
      vertex 16.5 82 35
    endloop
  endfacet
  facet normal 0 -1 0
    outer loop
      vertex 16.5 82 40
      vertex 19.5 82 35
      vertex 24.5 82 40
    endloop
  endfacet
  facet normal 0 -1 0
    outer loop
      vertex 19.5 82 13
      vertex 24.5 82 40
      vertex 19.5 82 35
    endloop
  endfacet
  facet normal 0 -1 0
    outer loop
      vertex 19.5 82 13
      vertex 24.5 82 3.1
      vertex 24.5 82 40
    endloop
  endfacet
  facet normal 0 -1 0
    outer loop
      vertex 24.5 82 3.1
      vertex 19.5 82 13
      vertex 2 82 3.1
    endloop
  endfacet
  facet normal 0 1 0
    outer loop
      vertex 24.5 86 40
      vertex 19.5 86 35
      vertex 16.5 86 40
    endloop
  endfacet
  facet normal 0 1 0
    outer loop
      vertex 24.5 86 40
      vertex 19.5 86 13
      vertex 19.5 86 35
    endloop
  endfacet
  facet normal 0 1 0
    outer loop
      vertex 19.5 86 13
      vertex 24.5 86 3.1
      vertex 7 86 13
    endloop
  endfacet
  facet normal 0 1 -0
    outer loop
      vertex 24.5 86 3.1
      vertex 19.5 86 13
      vertex 24.5 86 40
    endloop
  endfacet
  facet normal 0 1 0
    outer loop
      vertex 16.5 86 40
      vertex 19.5 86 35
      vertex 16.5 86 35
    endloop
  endfacet
  facet normal 0 1 0
    outer loop
      vertex 7 86 35
      vertex 10.5 86 40
      vertex 10.5 86 35
    endloop
  endfacet
  facet normal 0 1 0
    outer loop
      vertex 10.5 86 40
      vertex 7 86 35
      vertex 2 86 40
    endloop
  endfacet
  facet normal 0 1 -0
    outer loop
      vertex 7 86 13
      vertex 2 86 40
      vertex 7 86 35
    endloop
  endfacet
  facet normal 0 1 0
    outer loop
      vertex 7 86 13
      vertex 2 86 3.1
      vertex 2 86 40
    endloop
  endfacet
  facet normal 0 1 0
    outer loop
      vertex 2 86 3.1
      vertex 7 86 13
      vertex 24.5 86 3.1
    endloop
  endfacet
  facet normal 1 -0 0
    outer loop
      vertex 7 82 35
      vertex 7 86 13
      vertex 7 86 35
    endloop
  endfacet
  facet normal 1 0 0
    outer loop
      vertex 7 86 13
      vertex 7 82 35
      vertex 7 82 13
    endloop
  endfacet
  facet normal 0 0 -1
    outer loop
      vertex 7 82 35
      vertex 10.5 86 35
      vertex 10.5 82 35
    endloop
  endfacet
  facet normal -0 0 -1
    outer loop
      vertex 10.5 86 35
      vertex 7 82 35
      vertex 7 86 35
    endloop
  endfacet
  facet normal 0 0 -1
    outer loop
      vertex 16.5 82 35
      vertex 19.5 86 35
      vertex 19.5 82 35
    endloop
  endfacet
  facet normal -0 0 -1
    outer loop
      vertex 19.5 86 35
      vertex 16.5 82 35
      vertex 16.5 86 35
    endloop
  endfacet
  facet normal -1 0 0
    outer loop
      vertex 19.5 82 13
      vertex 19.5 86 35
      vertex 19.5 86 13
    endloop
  endfacet
  facet normal -1 -0 0
    outer loop
      vertex 19.5 86 35
      vertex 19.5 82 13
      vertex 19.5 82 35
    endloop
  endfacet
  facet normal -0 0 1
    outer loop
      vertex 7 86 13
      vertex 19.5 82 13
      vertex 19.5 86 13
    endloop
  endfacet
  facet normal 0 0 1
    outer loop
      vertex 19.5 82 13
      vertex 7 86 13
      vertex 7 82 13
    endloop
  endfacet
  facet normal 1 -0 0
    outer loop
      vertex 10.5 82 40
      vertex 10.5 86 35
      vertex 10.5 86 40
    endloop
  endfacet
  facet normal 1 0 0
    outer loop
      vertex 10.5 86 35
      vertex 10.5 82 40
      vertex 10.5 82 35
    endloop
  endfacet
  facet normal -1 0 0
    outer loop
      vertex 16.5 82 35
      vertex 16.5 86 40
      vertex 16.5 86 35
    endloop
  endfacet
  facet normal -1 -0 0
    outer loop
      vertex 16.5 86 40
      vertex 16.5 82 35
      vertex 16.5 82 40
    endloop
  endfacet
  facet normal -1 0 0
    outer loop
      vertex 2 122 3.1
      vertex 2 126 40
      vertex 2 126 3.1
    endloop
  endfacet
  facet normal -1 -0 0
    outer loop
      vertex 2 126 40
      vertex 2 122 3.1
      vertex 2 122 40
    endloop
  endfacet
  facet normal -0 0 1
    outer loop
      vertex 2 126 40
      vertex 10.5 122 40
      vertex 10.5 126 40
    endloop
  endfacet
  facet normal 0 0 1
    outer loop
      vertex 10.5 122 40
      vertex 2 126 40
      vertex 2 122 40
    endloop
  endfacet
  facet normal -0 0 1
    outer loop
      vertex 16.5 126 40
      vertex 24.5 122 40
      vertex 24.5 126 40
    endloop
  endfacet
  facet normal 0 0 1
    outer loop
      vertex 24.5 122 40
      vertex 16.5 126 40
      vertex 16.5 122 40
    endloop
  endfacet
  facet normal 1 -0 0
    outer loop
      vertex 24.5 122 40
      vertex 24.5 126 3.1
      vertex 24.5 126 40
    endloop
  endfacet
  facet normal 1 0 0
    outer loop
      vertex 24.5 126 3.1
      vertex 24.5 122 40
      vertex 24.5 122 3.1
    endloop
  endfacet
  facet normal 0 -1 0
    outer loop
      vertex 2 122 40
      vertex 7 122 35
      vertex 10.5 122 40
    endloop
  endfacet
  facet normal 0 -1 0
    outer loop
      vertex 2 122 40
      vertex 7 122 13
      vertex 7 122 35
    endloop
  endfacet
  facet normal 0 -1 -0
    outer loop
      vertex 7 122 13
      vertex 2 122 3.1
      vertex 19.5 122 13
    endloop
  endfacet
  facet normal 0 -1 0
    outer loop
      vertex 2 122 3.1
      vertex 7 122 13
      vertex 2 122 40
    endloop
  endfacet
  facet normal 0 -1 -0
    outer loop
      vertex 10.5 122 40
      vertex 7 122 35
      vertex 10.5 122 35
    endloop
  endfacet
  facet normal 0 -1 0
    outer loop
      vertex 19.5 122 35
      vertex 16.5 122 40
      vertex 16.5 122 35
    endloop
  endfacet
  facet normal 0 -1 0
    outer loop
      vertex 16.5 122 40
      vertex 19.5 122 35
      vertex 24.5 122 40
    endloop
  endfacet
  facet normal 0 -1 0
    outer loop
      vertex 19.5 122 13
      vertex 24.5 122 40
      vertex 19.5 122 35
    endloop
  endfacet
  facet normal 0 -1 0
    outer loop
      vertex 19.5 122 13
      vertex 24.5 122 3.1
      vertex 24.5 122 40
    endloop
  endfacet
  facet normal 0 -1 0
    outer loop
      vertex 24.5 122 3.1
      vertex 19.5 122 13
      vertex 2 122 3.1
    endloop
  endfacet
  facet normal 0 1 0
    outer loop
      vertex 24.5 126 40
      vertex 19.5 126 35
      vertex 16.5 126 40
    endloop
  endfacet
  facet normal 0 1 0
    outer loop
      vertex 24.5 126 40
      vertex 19.5 126 13
      vertex 19.5 126 35
    endloop
  endfacet
  facet normal 0 1 0
    outer loop
      vertex 19.5 126 13
      vertex 24.5 126 3.1
      vertex 7 126 13
    endloop
  endfacet
  facet normal 0 1 -0
    outer loop
      vertex 24.5 126 3.1
      vertex 19.5 126 13
      vertex 24.5 126 40
    endloop
  endfacet
  facet normal 0 1 0
    outer loop
      vertex 16.5 126 40
      vertex 19.5 126 35
      vertex 16.5 126 35
    endloop
  endfacet
  facet normal 0 1 0
    outer loop
      vertex 7 126 35
      vertex 10.5 126 40
      vertex 10.5 126 35
    endloop
  endfacet
  facet normal 0 1 0
    outer loop
      vertex 10.5 126 40
      vertex 7 126 35
      vertex 2 126 40
    endloop
  endfacet
  facet normal 0 1 -0
    outer loop
      vertex 7 126 13
      vertex 2 126 40
      vertex 7 126 35
    endloop
  endfacet
  facet normal 0 1 0
    outer loop
      vertex 7 126 13
      vertex 2 126 3.1
      vertex 2 126 40
    endloop
  endfacet
  facet normal 0 1 0
    outer loop
      vertex 2 126 3.1
      vertex 7 126 13
      vertex 24.5 126 3.1
    endloop
  endfacet
  facet normal 1 -0 0
    outer loop
      vertex 7 122 35
      vertex 7 126 13
      vertex 7 126 35
    endloop
  endfacet
  facet normal 1 0 0
    outer loop
      vertex 7 126 13
      vertex 7 122 35
      vertex 7 122 13
    endloop
  endfacet
  facet normal 0 0 -1
    outer loop
      vertex 7 122 35
      vertex 10.5 126 35
      vertex 10.5 122 35
    endloop
  endfacet
  facet normal -0 0 -1
    outer loop
      vertex 10.5 126 35
      vertex 7 122 35
      vertex 7 126 35
    endloop
  endfacet
  facet normal 0 0 -1
    outer loop
      vertex 16.5 122 35
      vertex 19.5 126 35
      vertex 19.5 122 35
    endloop
  endfacet
  facet normal -0 0 -1
    outer loop
      vertex 19.5 126 35
      vertex 16.5 122 35
      vertex 16.5 126 35
    endloop
  endfacet
  facet normal -1 0 0
    outer loop
      vertex 19.5 122 13
      vertex 19.5 126 35
      vertex 19.5 126 13
    endloop
  endfacet
  facet normal -1 -0 0
    outer loop
      vertex 19.5 126 35
      vertex 19.5 122 13
      vertex 19.5 122 35
    endloop
  endfacet
  facet normal -0 0 1
    outer loop
      vertex 7 126 13
      vertex 19.5 122 13
      vertex 19.5 126 13
    endloop
  endfacet
  facet normal 0 0 1
    outer loop
      vertex 19.5 122 13
      vertex 7 126 13
      vertex 7 122 13
    endloop
  endfacet
  facet normal 1 -0 0
    outer loop
      vertex 10.5 122 40
      vertex 10.5 126 35
      vertex 10.5 126 40
    endloop
  endfacet
  facet normal 1 0 0
    outer loop
      vertex 10.5 126 35
      vertex 10.5 122 40
      vertex 10.5 122 35
    endloop
  endfacet
  facet normal -1 0 0
    outer loop
      vertex 16.5 122 35
      vertex 16.5 126 40
      vertex 16.5 126 35
    endloop
  endfacet
  facet normal -1 -0 0
    outer loop
      vertex 16.5 126 40
      vertex 16.5 122 35
      vertex 16.5 122 40
    endloop
  endfacet
  facet normal -1 0 0
    outer loop
      vertex 2 162 3.1
      vertex 2 166 40
      vertex 2 166 3.1
    endloop
  endfacet
  facet normal -1 -0 0
    outer loop
      vertex 2 166 40
      vertex 2 162 3.1
      vertex 2 162 40
    endloop
  endfacet
  facet normal -0 0 1
    outer loop
      vertex 2 166 40
      vertex 10.5 162 40
      vertex 10.5 166 40
    endloop
  endfacet
  facet normal 0 0 1
    outer loop
      vertex 10.5 162 40
      vertex 2 166 40
      vertex 2 162 40
    endloop
  endfacet
  facet normal -0 0 1
    outer loop
      vertex 16.5 166 40
      vertex 24.5 162 40
      vertex 24.5 166 40
    endloop
  endfacet
  facet normal 0 0 1
    outer loop
      vertex 24.5 162 40
      vertex 16.5 166 40
      vertex 16.5 162 40
    endloop
  endfacet
  facet normal 1 -0 0
    outer loop
      vertex 24.5 162 40
      vertex 24.5 166 3.1
      vertex 24.5 166 40
    endloop
  endfacet
  facet normal 1 0 0
    outer loop
      vertex 24.5 166 3.1
      vertex 24.5 162 40
      vertex 24.5 162 3.1
    endloop
  endfacet
  facet normal 0 -1 0
    outer loop
      vertex 2 162 40
      vertex 7 162 35
      vertex 10.5 162 40
    endloop
  endfacet
  facet normal 0 -1 0
    outer loop
      vertex 2 162 40
      vertex 7 162 13
      vertex 7 162 35
    endloop
  endfacet
  facet normal 0 -1 -0
    outer loop
      vertex 7 162 13
      vertex 2 162 3.1
      vertex 19.5 162 13
    endloop
  endfacet
  facet normal 0 -1 0
    outer loop
      vertex 2 162 3.1
      vertex 7 162 13
      vertex 2 162 40
    endloop
  endfacet
  facet normal 0 -1 -0
    outer loop
      vertex 10.5 162 40
      vertex 7 162 35
      vertex 10.5 162 35
    endloop
  endfacet
  facet normal 0 -1 0
    outer loop
      vertex 19.5 162 35
      vertex 16.5 162 40
      vertex 16.5 162 35
    endloop
  endfacet
  facet normal 0 -1 0
    outer loop
      vertex 16.5 162 40
      vertex 19.5 162 35
      vertex 24.5 162 40
    endloop
  endfacet
  facet normal 0 -1 0
    outer loop
      vertex 19.5 162 13
      vertex 24.5 162 40
      vertex 19.5 162 35
    endloop
  endfacet
  facet normal 0 -1 0
    outer loop
      vertex 19.5 162 13
      vertex 24.5 162 3.1
      vertex 24.5 162 40
    endloop
  endfacet
  facet normal 0 -1 0
    outer loop
      vertex 24.5 162 3.1
      vertex 19.5 162 13
      vertex 2 162 3.1
    endloop
  endfacet
  facet normal 0 1 0
    outer loop
      vertex 24.5 166 40
      vertex 19.5 166 35
      vertex 16.5 166 40
    endloop
  endfacet
  facet normal 0 1 0
    outer loop
      vertex 24.5 166 40
      vertex 19.5 166 13
      vertex 19.5 166 35
    endloop
  endfacet
  facet normal 0 1 0
    outer loop
      vertex 19.5 166 13
      vertex 24.5 166 3.1
      vertex 7 166 13
    endloop
  endfacet
  facet normal 0 1 -0
    outer loop
      vertex 24.5 166 3.1
      vertex 19.5 166 13
      vertex 24.5 166 40
    endloop
  endfacet
  facet normal 0 1 0
    outer loop
      vertex 16.5 166 40
      vertex 19.5 166 35
      vertex 16.5 166 35
    endloop
  endfacet
  facet normal 0 1 0
    outer loop
      vertex 7 166 35
      vertex 10.5 166 40
      vertex 10.5 166 35
    endloop
  endfacet
  facet normal 0 1 0
    outer loop
      vertex 10.5 166 40
      vertex 7 166 35
      vertex 2 166 40
    endloop
  endfacet
  facet normal 0 1 -0
    outer loop
      vertex 7 166 13
      vertex 2 166 40
      vertex 7 166 35
    endloop
  endfacet
  facet normal 0 1 0
    outer loop
      vertex 7 166 13
      vertex 2 166 3.1
      vertex 2 166 40
    endloop
  endfacet
  facet normal 0 1 0
    outer loop
      vertex 2 166 3.1
      vertex 7 166 13
      vertex 24.5 166 3.1
    endloop
  endfacet
  facet normal 1 -0 0
    outer loop
      vertex 7 162 35
      vertex 7 166 13
      vertex 7 166 35
    endloop
  endfacet
  facet normal 1 0 0
    outer loop
      vertex 7 166 13
      vertex 7 162 35
      vertex 7 162 13
    endloop
  endfacet
  facet normal 0 0 -1
    outer loop
      vertex 7 162 35
      vertex 10.5 166 35
      vertex 10.5 162 35
    endloop
  endfacet
  facet normal -0 0 -1
    outer loop
      vertex 10.5 166 35
      vertex 7 162 35
      vertex 7 166 35
    endloop
  endfacet
  facet normal 0 0 -1
    outer loop
      vertex 16.5 162 35
      vertex 19.5 166 35
      vertex 19.5 162 35
    endloop
  endfacet
  facet normal -0 0 -1
    outer loop
      vertex 19.5 166 35
      vertex 16.5 162 35
      vertex 16.5 166 35
    endloop
  endfacet
  facet normal -1 0 0
    outer loop
      vertex 19.5 162 13
      vertex 19.5 166 35
      vertex 19.5 166 13
    endloop
  endfacet
  facet normal -1 -0 0
    outer loop
      vertex 19.5 166 35
      vertex 19.5 162 13
      vertex 19.5 162 35
    endloop
  endfacet
  facet normal -0 0 1
    outer loop
      vertex 7 166 13
      vertex 19.5 162 13
      vertex 19.5 166 13
    endloop
  endfacet
  facet normal 0 0 1
    outer loop
      vertex 19.5 162 13
      vertex 7 166 13
      vertex 7 162 13
    endloop
  endfacet
  facet normal 1 -0 0
    outer loop
      vertex 10.5 162 40
      vertex 10.5 166 35
      vertex 10.5 166 40
    endloop
  endfacet
  facet normal 1 0 0
    outer loop
      vertex 10.5 166 35
      vertex 10.5 162 40
      vertex 10.5 162 35
    endloop
  endfacet
  facet normal -1 0 0
    outer loop
      vertex 16.5 162 35
      vertex 16.5 166 40
      vertex 16.5 166 35
    endloop
  endfacet
  facet normal -1 -0 0
    outer loop
      vertex 16.5 166 40
      vertex 16.5 162 35
      vertex 16.5 162 40
    endloop
  endfacet
  facet normal -1 0 0
    outer loop
      vertex 2 202 3.1
      vertex 2 206 40
      vertex 2 206 3.1
    endloop
  endfacet
  facet normal -1 -0 0
    outer loop
      vertex 2 206 40
      vertex 2 202 3.1
      vertex 2 202 40
    endloop
  endfacet
  facet normal -0 0 1
    outer loop
      vertex 2 206 40
      vertex 10.5 202 40
      vertex 10.5 206 40
    endloop
  endfacet
  facet normal 0 0 1
    outer loop
      vertex 10.5 202 40
      vertex 2 206 40
      vertex 2 202 40
    endloop
  endfacet
  facet normal -0 0 1
    outer loop
      vertex 16.5 206 40
      vertex 24.5 202 40
      vertex 24.5 206 40
    endloop
  endfacet
  facet normal 0 0 1
    outer loop
      vertex 24.5 202 40
      vertex 16.5 206 40
      vertex 16.5 202 40
    endloop
  endfacet
  facet normal 1 -0 0
    outer loop
      vertex 24.5 202 40
      vertex 24.5 206 3.1
      vertex 24.5 206 40
    endloop
  endfacet
  facet normal 1 0 0
    outer loop
      vertex 24.5 206 3.1
      vertex 24.5 202 40
      vertex 24.5 202 3.1
    endloop
  endfacet
  facet normal 0 -1 0
    outer loop
      vertex 2 202 40
      vertex 7 202 35
      vertex 10.5 202 40
    endloop
  endfacet
  facet normal 0 -1 0
    outer loop
      vertex 2 202 40
      vertex 7 202 13
      vertex 7 202 35
    endloop
  endfacet
  facet normal 0 -1 -0
    outer loop
      vertex 7 202 13
      vertex 2 202 3.1
      vertex 19.5 202 13
    endloop
  endfacet
  facet normal 0 -1 0
    outer loop
      vertex 2 202 3.1
      vertex 7 202 13
      vertex 2 202 40
    endloop
  endfacet
  facet normal 0 -1 -0
    outer loop
      vertex 10.5 202 40
      vertex 7 202 35
      vertex 10.5 202 35
    endloop
  endfacet
  facet normal 0 -1 0
    outer loop
      vertex 19.5 202 35
      vertex 16.5 202 40
      vertex 16.5 202 35
    endloop
  endfacet
  facet normal 0 -1 0
    outer loop
      vertex 16.5 202 40
      vertex 19.5 202 35
      vertex 24.5 202 40
    endloop
  endfacet
  facet normal 0 -1 0
    outer loop
      vertex 19.5 202 13
      vertex 24.5 202 40
      vertex 19.5 202 35
    endloop
  endfacet
  facet normal 0 -1 0
    outer loop
      vertex 19.5 202 13
      vertex 24.5 202 3.1
      vertex 24.5 202 40
    endloop
  endfacet
  facet normal 0 -1 0
    outer loop
      vertex 24.5 202 3.1
      vertex 19.5 202 13
      vertex 2 202 3.1
    endloop
  endfacet
  facet normal 0 1 0
    outer loop
      vertex 24.5 206 40
      vertex 19.5 206 35
      vertex 16.5 206 40
    endloop
  endfacet
  facet normal 0 1 0
    outer loop
      vertex 24.5 206 40
      vertex 19.5 206 13
      vertex 19.5 206 35
    endloop
  endfacet
  facet normal 0 1 0
    outer loop
      vertex 19.5 206 13
      vertex 24.5 206 3.1
      vertex 7 206 13
    endloop
  endfacet
  facet normal 0 1 -0
    outer loop
      vertex 24.5 206 3.1
      vertex 19.5 206 13
      vertex 24.5 206 40
    endloop
  endfacet
  facet normal 0 1 0
    outer loop
      vertex 16.5 206 40
      vertex 19.5 206 35
      vertex 16.5 206 35
    endloop
  endfacet
  facet normal 0 1 0
    outer loop
      vertex 7 206 35
      vertex 10.5 206 40
      vertex 10.5 206 35
    endloop
  endfacet
  facet normal 0 1 0
    outer loop
      vertex 10.5 206 40
      vertex 7 206 35
      vertex 2 206 40
    endloop
  endfacet
  facet normal 0 1 -0
    outer loop
      vertex 7 206 13
      vertex 2 206 40
      vertex 7 206 35
    endloop
  endfacet
  facet normal 0 1 0
    outer loop
      vertex 7 206 13
      vertex 2 206 3.1
      vertex 2 206 40
    endloop
  endfacet
  facet normal 0 1 0
    outer loop
      vertex 2 206 3.1
      vertex 7 206 13
      vertex 24.5 206 3.1
    endloop
  endfacet
  facet normal 1 -0 0
    outer loop
      vertex 7 202 35
      vertex 7 206 13
      vertex 7 206 35
    endloop
  endfacet
  facet normal 1 0 0
    outer loop
      vertex 7 206 13
      vertex 7 202 35
      vertex 7 202 13
    endloop
  endfacet
  facet normal 0 0 -1
    outer loop
      vertex 7 202 35
      vertex 10.5 206 35
      vertex 10.5 202 35
    endloop
  endfacet
  facet normal -0 0 -1
    outer loop
      vertex 10.5 206 35
      vertex 7 202 35
      vertex 7 206 35
    endloop
  endfacet
  facet normal 0 0 -1
    outer loop
      vertex 16.5 202 35
      vertex 19.5 206 35
      vertex 19.5 202 35
    endloop
  endfacet
  facet normal -0 0 -1
    outer loop
      vertex 19.5 206 35
      vertex 16.5 202 35
      vertex 16.5 206 35
    endloop
  endfacet
  facet normal -1 0 0
    outer loop
      vertex 19.5 202 13
      vertex 19.5 206 35
      vertex 19.5 206 13
    endloop
  endfacet
  facet normal -1 -0 0
    outer loop
      vertex 19.5 206 35
      vertex 19.5 202 13
      vertex 19.5 202 35
    endloop
  endfacet
  facet normal -0 0 1
    outer loop
      vertex 7 206 13
      vertex 19.5 202 13
      vertex 19.5 206 13
    endloop
  endfacet
  facet normal 0 0 1
    outer loop
      vertex 19.5 202 13
      vertex 7 206 13
      vertex 7 202 13
    endloop
  endfacet
  facet normal 1 -0 0
    outer loop
      vertex 10.5 202 40
      vertex 10.5 206 35
      vertex 10.5 206 40
    endloop
  endfacet
  facet normal 1 0 0
    outer loop
      vertex 10.5 206 35
      vertex 10.5 202 40
      vertex 10.5 202 35
    endloop
  endfacet
  facet normal -1 0 0
    outer loop
      vertex 16.5 202 35
      vertex 16.5 206 40
      vertex 16.5 206 35
    endloop
  endfacet
  facet normal -1 -0 0
    outer loop
      vertex 16.5 206 40
      vertex 16.5 202 35
      vertex 16.5 202 40
    endloop
  endfacet
  facet normal -1 0 0
    outer loop
      vertex 40 2 3.1
      vertex 40 6 40
      vertex 40 6 3.1
    endloop
  endfacet
  facet normal -1 -0 0
    outer loop
      vertex 40 6 40
      vertex 40 2 3.1
      vertex 40 2 40
    endloop
  endfacet
  facet normal -0 0 1
    outer loop
      vertex 40 6 40
      vertex 48.5 2 40
      vertex 48.5 6 40
    endloop
  endfacet
  facet normal 0 0 1
    outer loop
      vertex 48.5 2 40
      vertex 40 6 40
      vertex 40 2 40
    endloop
  endfacet
  facet normal -0 0 1
    outer loop
      vertex 54.5 6 40
      vertex 62.5 2 40
      vertex 62.5 6 40
    endloop
  endfacet
  facet normal 0 0 1
    outer loop
      vertex 62.5 2 40
      vertex 54.5 6 40
      vertex 54.5 2 40
    endloop
  endfacet
  facet normal 1 -0 0
    outer loop
      vertex 62.5 2 40
      vertex 62.5 6 3.1
      vertex 62.5 6 40
    endloop
  endfacet
  facet normal 1 0 0
    outer loop
      vertex 62.5 6 3.1
      vertex 62.5 2 40
      vertex 62.5 2 3.1
    endloop
  endfacet
  facet normal 0 -1 0
    outer loop
      vertex 40 2 40
      vertex 45 2 35
      vertex 48.5 2 40
    endloop
  endfacet
  facet normal 0 -1 0
    outer loop
      vertex 40 2 40
      vertex 45 2 13
      vertex 45 2 35
    endloop
  endfacet
  facet normal 0 -1 -0
    outer loop
      vertex 45 2 13
      vertex 40 2 3.1
      vertex 57.5 2 13
    endloop
  endfacet
  facet normal 0 -1 0
    outer loop
      vertex 40 2 3.1
      vertex 45 2 13
      vertex 40 2 40
    endloop
  endfacet
  facet normal 0 -1 -0
    outer loop
      vertex 48.5 2 40
      vertex 45 2 35
      vertex 48.5 2 35
    endloop
  endfacet
  facet normal 0 -1 0
    outer loop
      vertex 57.5 2 35
      vertex 54.5 2 40
      vertex 54.5 2 35
    endloop
  endfacet
  facet normal 0 -1 0
    outer loop
      vertex 54.5 2 40
      vertex 57.5 2 35
      vertex 62.5 2 40
    endloop
  endfacet
  facet normal 0 -1 0
    outer loop
      vertex 57.5 2 13
      vertex 62.5 2 40
      vertex 57.5 2 35
    endloop
  endfacet
  facet normal 0 -1 0
    outer loop
      vertex 57.5 2 13
      vertex 62.5 2 3.1
      vertex 62.5 2 40
    endloop
  endfacet
  facet normal 0 -1 0
    outer loop
      vertex 62.5 2 3.1
      vertex 57.5 2 13
      vertex 40 2 3.1
    endloop
  endfacet
  facet normal 0 1 0
    outer loop
      vertex 62.5 6 40
      vertex 57.5 6 35
      vertex 54.5 6 40
    endloop
  endfacet
  facet normal 0 1 0
    outer loop
      vertex 62.5 6 40
      vertex 57.5 6 13
      vertex 57.5 6 35
    endloop
  endfacet
  facet normal 0 1 0
    outer loop
      vertex 57.5 6 13
      vertex 62.5 6 3.1
      vertex 45 6 13
    endloop
  endfacet
  facet normal 0 1 -0
    outer loop
      vertex 62.5 6 3.1
      vertex 57.5 6 13
      vertex 62.5 6 40
    endloop
  endfacet
  facet normal 0 1 0
    outer loop
      vertex 54.5 6 40
      vertex 57.5 6 35
      vertex 54.5 6 35
    endloop
  endfacet
  facet normal 0 1 0
    outer loop
      vertex 45 6 35
      vertex 48.5 6 40
      vertex 48.5 6 35
    endloop
  endfacet
  facet normal 0 1 0
    outer loop
      vertex 48.5 6 40
      vertex 45 6 35
      vertex 40 6 40
    endloop
  endfacet
  facet normal 0 1 -0
    outer loop
      vertex 45 6 13
      vertex 40 6 40
      vertex 45 6 35
    endloop
  endfacet
  facet normal 0 1 0
    outer loop
      vertex 45 6 13
      vertex 40 6 3.1
      vertex 40 6 40
    endloop
  endfacet
  facet normal 0 1 0
    outer loop
      vertex 40 6 3.1
      vertex 45 6 13
      vertex 62.5 6 3.1
    endloop
  endfacet
  facet normal 1 -0 0
    outer loop
      vertex 45 2 35
      vertex 45 6 13
      vertex 45 6 35
    endloop
  endfacet
  facet normal 1 0 0
    outer loop
      vertex 45 6 13
      vertex 45 2 35
      vertex 45 2 13
    endloop
  endfacet
  facet normal 0 0 -1
    outer loop
      vertex 45 2 35
      vertex 48.5 6 35
      vertex 48.5 2 35
    endloop
  endfacet
  facet normal -0 0 -1
    outer loop
      vertex 48.5 6 35
      vertex 45 2 35
      vertex 45 6 35
    endloop
  endfacet
  facet normal 0 0 -1
    outer loop
      vertex 54.5 2 35
      vertex 57.5 6 35
      vertex 57.5 2 35
    endloop
  endfacet
  facet normal -0 0 -1
    outer loop
      vertex 57.5 6 35
      vertex 54.5 2 35
      vertex 54.5 6 35
    endloop
  endfacet
  facet normal -1 0 0
    outer loop
      vertex 57.5 2 13
      vertex 57.5 6 35
      vertex 57.5 6 13
    endloop
  endfacet
  facet normal -1 -0 0
    outer loop
      vertex 57.5 6 35
      vertex 57.5 2 13
      vertex 57.5 2 35
    endloop
  endfacet
  facet normal -0 0 1
    outer loop
      vertex 45 6 13
      vertex 57.5 2 13
      vertex 57.5 6 13
    endloop
  endfacet
  facet normal 0 0 1
    outer loop
      vertex 57.5 2 13
      vertex 45 6 13
      vertex 45 2 13
    endloop
  endfacet
  facet normal 1 -0 0
    outer loop
      vertex 48.5 2 40
      vertex 48.5 6 35
      vertex 48.5 6 40
    endloop
  endfacet
  facet normal 1 0 0
    outer loop
      vertex 48.5 6 35
      vertex 48.5 2 40
      vertex 48.5 2 35
    endloop
  endfacet
  facet normal -1 0 0
    outer loop
      vertex 54.5 2 35
      vertex 54.5 6 40
      vertex 54.5 6 35
    endloop
  endfacet
  facet normal -1 -0 0
    outer loop
      vertex 54.5 6 40
      vertex 54.5 2 35
      vertex 54.5 2 40
    endloop
  endfacet
  facet normal -1 0 0
    outer loop
      vertex 40 42 3.1
      vertex 40 46 40
      vertex 40 46 3.1
    endloop
  endfacet
  facet normal -1 -0 0
    outer loop
      vertex 40 46 40
      vertex 40 42 3.1
      vertex 40 42 40
    endloop
  endfacet
  facet normal -0 0 1
    outer loop
      vertex 40 46 40
      vertex 48.5 42 40
      vertex 48.5 46 40
    endloop
  endfacet
  facet normal 0 0 1
    outer loop
      vertex 48.5 42 40
      vertex 40 46 40
      vertex 40 42 40
    endloop
  endfacet
  facet normal -0 0 1
    outer loop
      vertex 54.5 46 40
      vertex 62.5 42 40
      vertex 62.5 46 40
    endloop
  endfacet
  facet normal 0 0 1
    outer loop
      vertex 62.5 42 40
      vertex 54.5 46 40
      vertex 54.5 42 40
    endloop
  endfacet
  facet normal 1 -0 0
    outer loop
      vertex 62.5 42 40
      vertex 62.5 46 3.1
      vertex 62.5 46 40
    endloop
  endfacet
  facet normal 1 0 0
    outer loop
      vertex 62.5 46 3.1
      vertex 62.5 42 40
      vertex 62.5 42 3.1
    endloop
  endfacet
  facet normal 0 -1 0
    outer loop
      vertex 40 42 40
      vertex 45 42 35
      vertex 48.5 42 40
    endloop
  endfacet
  facet normal 0 -1 0
    outer loop
      vertex 40 42 40
      vertex 45 42 13
      vertex 45 42 35
    endloop
  endfacet
  facet normal 0 -1 -0
    outer loop
      vertex 45 42 13
      vertex 40 42 3.1
      vertex 57.5 42 13
    endloop
  endfacet
  facet normal 0 -1 0
    outer loop
      vertex 40 42 3.1
      vertex 45 42 13
      vertex 40 42 40
    endloop
  endfacet
  facet normal 0 -1 -0
    outer loop
      vertex 48.5 42 40
      vertex 45 42 35
      vertex 48.5 42 35
    endloop
  endfacet
  facet normal 0 -1 0
    outer loop
      vertex 57.5 42 35
      vertex 54.5 42 40
      vertex 54.5 42 35
    endloop
  endfacet
  facet normal 0 -1 0
    outer loop
      vertex 54.5 42 40
      vertex 57.5 42 35
      vertex 62.5 42 40
    endloop
  endfacet
  facet normal 0 -1 0
    outer loop
      vertex 57.5 42 13
      vertex 62.5 42 40
      vertex 57.5 42 35
    endloop
  endfacet
  facet normal 0 -1 0
    outer loop
      vertex 57.5 42 13
      vertex 62.5 42 3.1
      vertex 62.5 42 40
    endloop
  endfacet
  facet normal 0 -1 0
    outer loop
      vertex 62.5 42 3.1
      vertex 57.5 42 13
      vertex 40 42 3.1
    endloop
  endfacet
  facet normal 0 1 0
    outer loop
      vertex 62.5 46 40
      vertex 57.5 46 35
      vertex 54.5 46 40
    endloop
  endfacet
  facet normal 0 1 0
    outer loop
      vertex 62.5 46 40
      vertex 57.5 46 13
      vertex 57.5 46 35
    endloop
  endfacet
  facet normal 0 1 0
    outer loop
      vertex 57.5 46 13
      vertex 62.5 46 3.1
      vertex 45 46 13
    endloop
  endfacet
  facet normal 0 1 -0
    outer loop
      vertex 62.5 46 3.1
      vertex 57.5 46 13
      vertex 62.5 46 40
    endloop
  endfacet
  facet normal 0 1 0
    outer loop
      vertex 54.5 46 40
      vertex 57.5 46 35
      vertex 54.5 46 35
    endloop
  endfacet
  facet normal 0 1 0
    outer loop
      vertex 45 46 35
      vertex 48.5 46 40
      vertex 48.5 46 35
    endloop
  endfacet
  facet normal 0 1 0
    outer loop
      vertex 48.5 46 40
      vertex 45 46 35
      vertex 40 46 40
    endloop
  endfacet
  facet normal 0 1 -0
    outer loop
      vertex 45 46 13
      vertex 40 46 40
      vertex 45 46 35
    endloop
  endfacet
  facet normal 0 1 0
    outer loop
      vertex 45 46 13
      vertex 40 46 3.1
      vertex 40 46 40
    endloop
  endfacet
  facet normal 0 1 0
    outer loop
      vertex 40 46 3.1
      vertex 45 46 13
      vertex 62.5 46 3.1
    endloop
  endfacet
  facet normal 1 -0 0
    outer loop
      vertex 45 42 35
      vertex 45 46 13
      vertex 45 46 35
    endloop
  endfacet
  facet normal 1 0 0
    outer loop
      vertex 45 46 13
      vertex 45 42 35
      vertex 45 42 13
    endloop
  endfacet
  facet normal 0 0 -1
    outer loop
      vertex 45 42 35
      vertex 48.5 46 35
      vertex 48.5 42 35
    endloop
  endfacet
  facet normal -0 0 -1
    outer loop
      vertex 48.5 46 35
      vertex 45 42 35
      vertex 45 46 35
    endloop
  endfacet
  facet normal 0 0 -1
    outer loop
      vertex 54.5 42 35
      vertex 57.5 46 35
      vertex 57.5 42 35
    endloop
  endfacet
  facet normal -0 0 -1
    outer loop
      vertex 57.5 46 35
      vertex 54.5 42 35
      vertex 54.5 46 35
    endloop
  endfacet
  facet normal -1 0 0
    outer loop
      vertex 57.5 42 13
      vertex 57.5 46 35
      vertex 57.5 46 13
    endloop
  endfacet
  facet normal -1 -0 0
    outer loop
      vertex 57.5 46 35
      vertex 57.5 42 13
      vertex 57.5 42 35
    endloop
  endfacet
  facet normal -0 0 1
    outer loop
      vertex 45 46 13
      vertex 57.5 42 13
      vertex 57.5 46 13
    endloop
  endfacet
  facet normal 0 0 1
    outer loop
      vertex 57.5 42 13
      vertex 45 46 13
      vertex 45 42 13
    endloop
  endfacet
  facet normal 1 -0 0
    outer loop
      vertex 48.5 42 40
      vertex 48.5 46 35
      vertex 48.5 46 40
    endloop
  endfacet
  facet normal 1 0 0
    outer loop
      vertex 48.5 46 35
      vertex 48.5 42 40
      vertex 48.5 42 35
    endloop
  endfacet
  facet normal -1 0 0
    outer loop
      vertex 54.5 42 35
      vertex 54.5 46 40
      vertex 54.5 46 35
    endloop
  endfacet
  facet normal -1 -0 0
    outer loop
      vertex 54.5 46 40
      vertex 54.5 42 35
      vertex 54.5 42 40
    endloop
  endfacet
  facet normal -1 0 0
    outer loop
      vertex 40 82 3.1
      vertex 40 86 40
      vertex 40 86 3.1
    endloop
  endfacet
  facet normal -1 -0 0
    outer loop
      vertex 40 86 40
      vertex 40 82 3.1
      vertex 40 82 40
    endloop
  endfacet
  facet normal -0 0 1
    outer loop
      vertex 40 86 40
      vertex 48.5 82 40
      vertex 48.5 86 40
    endloop
  endfacet
  facet normal 0 0 1
    outer loop
      vertex 48.5 82 40
      vertex 40 86 40
      vertex 40 82 40
    endloop
  endfacet
  facet normal -0 0 1
    outer loop
      vertex 54.5 86 40
      vertex 62.5 82 40
      vertex 62.5 86 40
    endloop
  endfacet
  facet normal 0 0 1
    outer loop
      vertex 62.5 82 40
      vertex 54.5 86 40
      vertex 54.5 82 40
    endloop
  endfacet
  facet normal 1 -0 0
    outer loop
      vertex 62.5 82 40
      vertex 62.5 86 3.1
      vertex 62.5 86 40
    endloop
  endfacet
  facet normal 1 0 0
    outer loop
      vertex 62.5 86 3.1
      vertex 62.5 82 40
      vertex 62.5 82 3.1
    endloop
  endfacet
  facet normal 0 -1 0
    outer loop
      vertex 40 82 40
      vertex 45 82 35
      vertex 48.5 82 40
    endloop
  endfacet
  facet normal 0 -1 0
    outer loop
      vertex 40 82 40
      vertex 45 82 13
      vertex 45 82 35
    endloop
  endfacet
  facet normal 0 -1 -0
    outer loop
      vertex 45 82 13
      vertex 40 82 3.1
      vertex 57.5 82 13
    endloop
  endfacet
  facet normal 0 -1 0
    outer loop
      vertex 40 82 3.1
      vertex 45 82 13
      vertex 40 82 40
    endloop
  endfacet
  facet normal 0 -1 -0
    outer loop
      vertex 48.5 82 40
      vertex 45 82 35
      vertex 48.5 82 35
    endloop
  endfacet
  facet normal 0 -1 0
    outer loop
      vertex 57.5 82 35
      vertex 54.5 82 40
      vertex 54.5 82 35
    endloop
  endfacet
  facet normal 0 -1 0
    outer loop
      vertex 54.5 82 40
      vertex 57.5 82 35
      vertex 62.5 82 40
    endloop
  endfacet
  facet normal 0 -1 0
    outer loop
      vertex 57.5 82 13
      vertex 62.5 82 40
      vertex 57.5 82 35
    endloop
  endfacet
  facet normal 0 -1 0
    outer loop
      vertex 57.5 82 13
      vertex 62.5 82 3.1
      vertex 62.5 82 40
    endloop
  endfacet
  facet normal 0 -1 0
    outer loop
      vertex 62.5 82 3.1
      vertex 57.5 82 13
      vertex 40 82 3.1
    endloop
  endfacet
  facet normal 0 1 0
    outer loop
      vertex 62.5 86 40
      vertex 57.5 86 35
      vertex 54.5 86 40
    endloop
  endfacet
  facet normal 0 1 0
    outer loop
      vertex 62.5 86 40
      vertex 57.5 86 13
      vertex 57.5 86 35
    endloop
  endfacet
  facet normal 0 1 0
    outer loop
      vertex 57.5 86 13
      vertex 62.5 86 3.1
      vertex 45 86 13
    endloop
  endfacet
  facet normal 0 1 -0
    outer loop
      vertex 62.5 86 3.1
      vertex 57.5 86 13
      vertex 62.5 86 40
    endloop
  endfacet
  facet normal 0 1 0
    outer loop
      vertex 54.5 86 40
      vertex 57.5 86 35
      vertex 54.5 86 35
    endloop
  endfacet
  facet normal 0 1 0
    outer loop
      vertex 45 86 35
      vertex 48.5 86 40
      vertex 48.5 86 35
    endloop
  endfacet
  facet normal 0 1 0
    outer loop
      vertex 48.5 86 40
      vertex 45 86 35
      vertex 40 86 40
    endloop
  endfacet
  facet normal 0 1 -0
    outer loop
      vertex 45 86 13
      vertex 40 86 40
      vertex 45 86 35
    endloop
  endfacet
  facet normal 0 1 0
    outer loop
      vertex 45 86 13
      vertex 40 86 3.1
      vertex 40 86 40
    endloop
  endfacet
  facet normal 0 1 0
    outer loop
      vertex 40 86 3.1
      vertex 45 86 13
      vertex 62.5 86 3.1
    endloop
  endfacet
  facet normal 1 -0 0
    outer loop
      vertex 45 82 35
      vertex 45 86 13
      vertex 45 86 35
    endloop
  endfacet
  facet normal 1 0 0
    outer loop
      vertex 45 86 13
      vertex 45 82 35
      vertex 45 82 13
    endloop
  endfacet
  facet normal 0 0 -1
    outer loop
      vertex 45 82 35
      vertex 48.5 86 35
      vertex 48.5 82 35
    endloop
  endfacet
  facet normal -0 0 -1
    outer loop
      vertex 48.5 86 35
      vertex 45 82 35
      vertex 45 86 35
    endloop
  endfacet
  facet normal 0 0 -1
    outer loop
      vertex 54.5 82 35
      vertex 57.5 86 35
      vertex 57.5 82 35
    endloop
  endfacet
  facet normal -0 0 -1
    outer loop
      vertex 57.5 86 35
      vertex 54.5 82 35
      vertex 54.5 86 35
    endloop
  endfacet
  facet normal -1 0 0
    outer loop
      vertex 57.5 82 13
      vertex 57.5 86 35
      vertex 57.5 86 13
    endloop
  endfacet
  facet normal -1 -0 0
    outer loop
      vertex 57.5 86 35
      vertex 57.5 82 13
      vertex 57.5 82 35
    endloop
  endfacet
  facet normal -0 0 1
    outer loop
      vertex 45 86 13
      vertex 57.5 82 13
      vertex 57.5 86 13
    endloop
  endfacet
  facet normal 0 0 1
    outer loop
      vertex 57.5 82 13
      vertex 45 86 13
      vertex 45 82 13
    endloop
  endfacet
  facet normal 1 -0 0
    outer loop
      vertex 48.5 82 40
      vertex 48.5 86 35
      vertex 48.5 86 40
    endloop
  endfacet
  facet normal 1 0 0
    outer loop
      vertex 48.5 86 35
      vertex 48.5 82 40
      vertex 48.5 82 35
    endloop
  endfacet
  facet normal -1 0 0
    outer loop
      vertex 54.5 82 35
      vertex 54.5 86 40
      vertex 54.5 86 35
    endloop
  endfacet
  facet normal -1 -0 0
    outer loop
      vertex 54.5 86 40
      vertex 54.5 82 35
      vertex 54.5 82 40
    endloop
  endfacet
  facet normal -1 0 0
    outer loop
      vertex 40 122 3.1
      vertex 40 126 40
      vertex 40 126 3.1
    endloop
  endfacet
  facet normal -1 -0 0
    outer loop
      vertex 40 126 40
      vertex 40 122 3.1
      vertex 40 122 40
    endloop
  endfacet
  facet normal -0 0 1
    outer loop
      vertex 40 126 40
      vertex 48.5 122 40
      vertex 48.5 126 40
    endloop
  endfacet
  facet normal 0 0 1
    outer loop
      vertex 48.5 122 40
      vertex 40 126 40
      vertex 40 122 40
    endloop
  endfacet
  facet normal -0 0 1
    outer loop
      vertex 54.5 126 40
      vertex 62.5 122 40
      vertex 62.5 126 40
    endloop
  endfacet
  facet normal 0 0 1
    outer loop
      vertex 62.5 122 40
      vertex 54.5 126 40
      vertex 54.5 122 40
    endloop
  endfacet
  facet normal 1 -0 0
    outer loop
      vertex 62.5 122 40
      vertex 62.5 126 3.1
      vertex 62.5 126 40
    endloop
  endfacet
  facet normal 1 0 0
    outer loop
      vertex 62.5 126 3.1
      vertex 62.5 122 40
      vertex 62.5 122 3.1
    endloop
  endfacet
  facet normal 0 -1 0
    outer loop
      vertex 40 122 40
      vertex 45 122 35
      vertex 48.5 122 40
    endloop
  endfacet
  facet normal 0 -1 0
    outer loop
      vertex 40 122 40
      vertex 45 122 13
      vertex 45 122 35
    endloop
  endfacet
  facet normal 0 -1 -0
    outer loop
      vertex 45 122 13
      vertex 40 122 3.1
      vertex 57.5 122 13
    endloop
  endfacet
  facet normal 0 -1 0
    outer loop
      vertex 40 122 3.1
      vertex 45 122 13
      vertex 40 122 40
    endloop
  endfacet
  facet normal 0 -1 -0
    outer loop
      vertex 48.5 122 40
      vertex 45 122 35
      vertex 48.5 122 35
    endloop
  endfacet
  facet normal 0 -1 0
    outer loop
      vertex 57.5 122 35
      vertex 54.5 122 40
      vertex 54.5 122 35
    endloop
  endfacet
  facet normal 0 -1 0
    outer loop
      vertex 54.5 122 40
      vertex 57.5 122 35
      vertex 62.5 122 40
    endloop
  endfacet
  facet normal 0 -1 0
    outer loop
      vertex 57.5 122 13
      vertex 62.5 122 40
      vertex 57.5 122 35
    endloop
  endfacet
  facet normal 0 -1 0
    outer loop
      vertex 57.5 122 13
      vertex 62.5 122 3.1
      vertex 62.5 122 40
    endloop
  endfacet
  facet normal 0 -1 0
    outer loop
      vertex 62.5 122 3.1
      vertex 57.5 122 13
      vertex 40 122 3.1
    endloop
  endfacet
  facet normal 0 1 0
    outer loop
      vertex 62.5 126 40
      vertex 57.5 126 35
      vertex 54.5 126 40
    endloop
  endfacet
  facet normal 0 1 0
    outer loop
      vertex 62.5 126 40
      vertex 57.5 126 13
      vertex 57.5 126 35
    endloop
  endfacet
  facet normal 0 1 0
    outer loop
      vertex 57.5 126 13
      vertex 62.5 126 3.1
      vertex 45 126 13
    endloop
  endfacet
  facet normal 0 1 -0
    outer loop
      vertex 62.5 126 3.1
      vertex 57.5 126 13
      vertex 62.5 126 40
    endloop
  endfacet
  facet normal 0 1 0
    outer loop
      vertex 54.5 126 40
      vertex 57.5 126 35
      vertex 54.5 126 35
    endloop
  endfacet
  facet normal 0 1 0
    outer loop
      vertex 45 126 35
      vertex 48.5 126 40
      vertex 48.5 126 35
    endloop
  endfacet
  facet normal 0 1 0
    outer loop
      vertex 48.5 126 40
      vertex 45 126 35
      vertex 40 126 40
    endloop
  endfacet
  facet normal 0 1 -0
    outer loop
      vertex 45 126 13
      vertex 40 126 40
      vertex 45 126 35
    endloop
  endfacet
  facet normal 0 1 0
    outer loop
      vertex 45 126 13
      vertex 40 126 3.1
      vertex 40 126 40
    endloop
  endfacet
  facet normal 0 1 0
    outer loop
      vertex 40 126 3.1
      vertex 45 126 13
      vertex 62.5 126 3.1
    endloop
  endfacet
  facet normal 1 -0 0
    outer loop
      vertex 45 122 35
      vertex 45 126 13
      vertex 45 126 35
    endloop
  endfacet
  facet normal 1 0 0
    outer loop
      vertex 45 126 13
      vertex 45 122 35
      vertex 45 122 13
    endloop
  endfacet
  facet normal 0 0 -1
    outer loop
      vertex 45 122 35
      vertex 48.5 126 35
      vertex 48.5 122 35
    endloop
  endfacet
  facet normal -0 0 -1
    outer loop
      vertex 48.5 126 35
      vertex 45 122 35
      vertex 45 126 35
    endloop
  endfacet
  facet normal 0 0 -1
    outer loop
      vertex 54.5 122 35
      vertex 57.5 126 35
      vertex 57.5 122 35
    endloop
  endfacet
  facet normal -0 0 -1
    outer loop
      vertex 57.5 126 35
      vertex 54.5 122 35
      vertex 54.5 126 35
    endloop
  endfacet
  facet normal -1 0 0
    outer loop
      vertex 57.5 122 13
      vertex 57.5 126 35
      vertex 57.5 126 13
    endloop
  endfacet
  facet normal -1 -0 0
    outer loop
      vertex 57.5 126 35
      vertex 57.5 122 13
      vertex 57.5 122 35
    endloop
  endfacet
  facet normal -0 0 1
    outer loop
      vertex 45 126 13
      vertex 57.5 122 13
      vertex 57.5 126 13
    endloop
  endfacet
  facet normal 0 0 1
    outer loop
      vertex 57.5 122 13
      vertex 45 126 13
      vertex 45 122 13
    endloop
  endfacet
  facet normal 1 -0 0
    outer loop
      vertex 48.5 122 40
      vertex 48.5 126 35
      vertex 48.5 126 40
    endloop
  endfacet
  facet normal 1 0 0
    outer loop
      vertex 48.5 126 35
      vertex 48.5 122 40
      vertex 48.5 122 35
    endloop
  endfacet
  facet normal -1 0 0
    outer loop
      vertex 54.5 122 35
      vertex 54.5 126 40
      vertex 54.5 126 35
    endloop
  endfacet
  facet normal -1 -0 0
    outer loop
      vertex 54.5 126 40
      vertex 54.5 122 35
      vertex 54.5 122 40
    endloop
  endfacet
  facet normal -1 0 0
    outer loop
      vertex 40 162 3.1
      vertex 40 166 40
      vertex 40 166 3.1
    endloop
  endfacet
  facet normal -1 -0 0
    outer loop
      vertex 40 166 40
      vertex 40 162 3.1
      vertex 40 162 40
    endloop
  endfacet
  facet normal -0 0 1
    outer loop
      vertex 40 166 40
      vertex 48.5 162 40
      vertex 48.5 166 40
    endloop
  endfacet
  facet normal 0 0 1
    outer loop
      vertex 48.5 162 40
      vertex 40 166 40
      vertex 40 162 40
    endloop
  endfacet
  facet normal -0 0 1
    outer loop
      vertex 54.5 166 40
      vertex 62.5 162 40
      vertex 62.5 166 40
    endloop
  endfacet
  facet normal 0 0 1
    outer loop
      vertex 62.5 162 40
      vertex 54.5 166 40
      vertex 54.5 162 40
    endloop
  endfacet
  facet normal 1 -0 0
    outer loop
      vertex 62.5 162 40
      vertex 62.5 166 3.1
      vertex 62.5 166 40
    endloop
  endfacet
  facet normal 1 0 0
    outer loop
      vertex 62.5 166 3.1
      vertex 62.5 162 40
      vertex 62.5 162 3.1
    endloop
  endfacet
  facet normal 0 -1 0
    outer loop
      vertex 40 162 40
      vertex 45 162 35
      vertex 48.5 162 40
    endloop
  endfacet
  facet normal 0 -1 0
    outer loop
      vertex 40 162 40
      vertex 45 162 13
      vertex 45 162 35
    endloop
  endfacet
  facet normal 0 -1 -0
    outer loop
      vertex 45 162 13
      vertex 40 162 3.1
      vertex 57.5 162 13
    endloop
  endfacet
  facet normal 0 -1 0
    outer loop
      vertex 40 162 3.1
      vertex 45 162 13
      vertex 40 162 40
    endloop
  endfacet
  facet normal 0 -1 -0
    outer loop
      vertex 48.5 162 40
      vertex 45 162 35
      vertex 48.5 162 35
    endloop
  endfacet
  facet normal 0 -1 0
    outer loop
      vertex 57.5 162 35
      vertex 54.5 162 40
      vertex 54.5 162 35
    endloop
  endfacet
  facet normal 0 -1 0
    outer loop
      vertex 54.5 162 40
      vertex 57.5 162 35
      vertex 62.5 162 40
    endloop
  endfacet
  facet normal 0 -1 0
    outer loop
      vertex 57.5 162 13
      vertex 62.5 162 40
      vertex 57.5 162 35
    endloop
  endfacet
  facet normal 0 -1 0
    outer loop
      vertex 57.5 162 13
      vertex 62.5 162 3.1
      vertex 62.5 162 40
    endloop
  endfacet
  facet normal 0 -1 0
    outer loop
      vertex 62.5 162 3.1
      vertex 57.5 162 13
      vertex 40 162 3.1
    endloop
  endfacet
  facet normal 0 1 0
    outer loop
      vertex 62.5 166 40
      vertex 57.5 166 35
      vertex 54.5 166 40
    endloop
  endfacet
  facet normal 0 1 0
    outer loop
      vertex 62.5 166 40
      vertex 57.5 166 13
      vertex 57.5 166 35
    endloop
  endfacet
  facet normal 0 1 0
    outer loop
      vertex 57.5 166 13
      vertex 62.5 166 3.1
      vertex 45 166 13
    endloop
  endfacet
  facet normal 0 1 -0
    outer loop
      vertex 62.5 166 3.1
      vertex 57.5 166 13
      vertex 62.5 166 40
    endloop
  endfacet
  facet normal 0 1 0
    outer loop
      vertex 54.5 166 40
      vertex 57.5 166 35
      vertex 54.5 166 35
    endloop
  endfacet
  facet normal 0 1 0
    outer loop
      vertex 45 166 35
      vertex 48.5 166 40
      vertex 48.5 166 35
    endloop
  endfacet
  facet normal 0 1 0
    outer loop
      vertex 48.5 166 40
      vertex 45 166 35
      vertex 40 166 40
    endloop
  endfacet
  facet normal 0 1 -0
    outer loop
      vertex 45 166 13
      vertex 40 166 40
      vertex 45 166 35
    endloop
  endfacet
  facet normal 0 1 0
    outer loop
      vertex 45 166 13
      vertex 40 166 3.1
      vertex 40 166 40
    endloop
  endfacet
  facet normal 0 1 0
    outer loop
      vertex 40 166 3.1
      vertex 45 166 13
      vertex 62.5 166 3.1
    endloop
  endfacet
  facet normal 1 -0 0
    outer loop
      vertex 45 162 35
      vertex 45 166 13
      vertex 45 166 35
    endloop
  endfacet
  facet normal 1 0 0
    outer loop
      vertex 45 166 13
      vertex 45 162 35
      vertex 45 162 13
    endloop
  endfacet
  facet normal 0 0 -1
    outer loop
      vertex 45 162 35
      vertex 48.5 166 35
      vertex 48.5 162 35
    endloop
  endfacet
  facet normal -0 0 -1
    outer loop
      vertex 48.5 166 35
      vertex 45 162 35
      vertex 45 166 35
    endloop
  endfacet
  facet normal 0 0 -1
    outer loop
      vertex 54.5 162 35
      vertex 57.5 166 35
      vertex 57.5 162 35
    endloop
  endfacet
  facet normal -0 0 -1
    outer loop
      vertex 57.5 166 35
      vertex 54.5 162 35
      vertex 54.5 166 35
    endloop
  endfacet
  facet normal -1 0 0
    outer loop
      vertex 57.5 162 13
      vertex 57.5 166 35
      vertex 57.5 166 13
    endloop
  endfacet
  facet normal -1 -0 0
    outer loop
      vertex 57.5 166 35
      vertex 57.5 162 13
      vertex 57.5 162 35
    endloop
  endfacet
  facet normal -0 0 1
    outer loop
      vertex 45 166 13
      vertex 57.5 162 13
      vertex 57.5 166 13
    endloop
  endfacet
  facet normal 0 0 1
    outer loop
      vertex 57.5 162 13
      vertex 45 166 13
      vertex 45 162 13
    endloop
  endfacet
  facet normal 1 -0 0
    outer loop
      vertex 48.5 162 40
      vertex 48.5 166 35
      vertex 48.5 166 40
    endloop
  endfacet
  facet normal 1 0 0
    outer loop
      vertex 48.5 166 35
      vertex 48.5 162 40
      vertex 48.5 162 35
    endloop
  endfacet
  facet normal -1 0 0
    outer loop
      vertex 54.5 162 35
      vertex 54.5 166 40
      vertex 54.5 166 35
    endloop
  endfacet
  facet normal -1 -0 0
    outer loop
      vertex 54.5 166 40
      vertex 54.5 162 35
      vertex 54.5 162 40
    endloop
  endfacet
  facet normal -1 0 0
    outer loop
      vertex 40 202 3.1
      vertex 40 206 40
      vertex 40 206 3.1
    endloop
  endfacet
  facet normal -1 -0 0
    outer loop
      vertex 40 206 40
      vertex 40 202 3.1
      vertex 40 202 40
    endloop
  endfacet
  facet normal -0 0 1
    outer loop
      vertex 40 206 40
      vertex 48.5 202 40
      vertex 48.5 206 40
    endloop
  endfacet
  facet normal 0 0 1
    outer loop
      vertex 48.5 202 40
      vertex 40 206 40
      vertex 40 202 40
    endloop
  endfacet
  facet normal -0 0 1
    outer loop
      vertex 54.5 206 40
      vertex 62.5 202 40
      vertex 62.5 206 40
    endloop
  endfacet
  facet normal 0 0 1
    outer loop
      vertex 62.5 202 40
      vertex 54.5 206 40
      vertex 54.5 202 40
    endloop
  endfacet
  facet normal 1 -0 0
    outer loop
      vertex 62.5 202 40
      vertex 62.5 206 3.1
      vertex 62.5 206 40
    endloop
  endfacet
  facet normal 1 0 0
    outer loop
      vertex 62.5 206 3.1
      vertex 62.5 202 40
      vertex 62.5 202 3.1
    endloop
  endfacet
  facet normal 0 -1 0
    outer loop
      vertex 40 202 40
      vertex 45 202 35
      vertex 48.5 202 40
    endloop
  endfacet
  facet normal 0 -1 0
    outer loop
      vertex 40 202 40
      vertex 45 202 13
      vertex 45 202 35
    endloop
  endfacet
  facet normal 0 -1 -0
    outer loop
      vertex 45 202 13
      vertex 40 202 3.1
      vertex 57.5 202 13
    endloop
  endfacet
  facet normal 0 -1 0
    outer loop
      vertex 40 202 3.1
      vertex 45 202 13
      vertex 40 202 40
    endloop
  endfacet
  facet normal 0 -1 -0
    outer loop
      vertex 48.5 202 40
      vertex 45 202 35
      vertex 48.5 202 35
    endloop
  endfacet
  facet normal 0 -1 0
    outer loop
      vertex 57.5 202 35
      vertex 54.5 202 40
      vertex 54.5 202 35
    endloop
  endfacet
  facet normal 0 -1 0
    outer loop
      vertex 54.5 202 40
      vertex 57.5 202 35
      vertex 62.5 202 40
    endloop
  endfacet
  facet normal 0 -1 0
    outer loop
      vertex 57.5 202 13
      vertex 62.5 202 40
      vertex 57.5 202 35
    endloop
  endfacet
  facet normal 0 -1 0
    outer loop
      vertex 57.5 202 13
      vertex 62.5 202 3.1
      vertex 62.5 202 40
    endloop
  endfacet
  facet normal 0 -1 0
    outer loop
      vertex 62.5 202 3.1
      vertex 57.5 202 13
      vertex 40 202 3.1
    endloop
  endfacet
  facet normal 0 1 0
    outer loop
      vertex 62.5 206 40
      vertex 57.5 206 35
      vertex 54.5 206 40
    endloop
  endfacet
  facet normal 0 1 0
    outer loop
      vertex 62.5 206 40
      vertex 57.5 206 13
      vertex 57.5 206 35
    endloop
  endfacet
  facet normal 0 1 0
    outer loop
      vertex 57.5 206 13
      vertex 62.5 206 3.1
      vertex 45 206 13
    endloop
  endfacet
  facet normal 0 1 -0
    outer loop
      vertex 62.5 206 3.1
      vertex 57.5 206 13
      vertex 62.5 206 40
    endloop
  endfacet
  facet normal 0 1 0
    outer loop
      vertex 54.5 206 40
      vertex 57.5 206 35
      vertex 54.5 206 35
    endloop
  endfacet
  facet normal 0 1 0
    outer loop
      vertex 45 206 35
      vertex 48.5 206 40
      vertex 48.5 206 35
    endloop
  endfacet
  facet normal 0 1 0
    outer loop
      vertex 48.5 206 40
      vertex 45 206 35
      vertex 40 206 40
    endloop
  endfacet
  facet normal 0 1 -0
    outer loop
      vertex 45 206 13
      vertex 40 206 40
      vertex 45 206 35
    endloop
  endfacet
  facet normal 0 1 0
    outer loop
      vertex 45 206 13
      vertex 40 206 3.1
      vertex 40 206 40
    endloop
  endfacet
  facet normal 0 1 0
    outer loop
      vertex 40 206 3.1
      vertex 45 206 13
      vertex 62.5 206 3.1
    endloop
  endfacet
  facet normal 1 -0 0
    outer loop
      vertex 45 202 35
      vertex 45 206 13
      vertex 45 206 35
    endloop
  endfacet
  facet normal 1 0 0
    outer loop
      vertex 45 206 13
      vertex 45 202 35
      vertex 45 202 13
    endloop
  endfacet
  facet normal 0 0 -1
    outer loop
      vertex 45 202 35
      vertex 48.5 206 35
      vertex 48.5 202 35
    endloop
  endfacet
  facet normal -0 0 -1
    outer loop
      vertex 48.5 206 35
      vertex 45 202 35
      vertex 45 206 35
    endloop
  endfacet
  facet normal 0 0 -1
    outer loop
      vertex 54.5 202 35
      vertex 57.5 206 35
      vertex 57.5 202 35
    endloop
  endfacet
  facet normal -0 0 -1
    outer loop
      vertex 57.5 206 35
      vertex 54.5 202 35
      vertex 54.5 206 35
    endloop
  endfacet
  facet normal -1 0 0
    outer loop
      vertex 57.5 202 13
      vertex 57.5 206 35
      vertex 57.5 206 13
    endloop
  endfacet
  facet normal -1 -0 0
    outer loop
      vertex 57.5 206 35
      vertex 57.5 202 13
      vertex 57.5 202 35
    endloop
  endfacet
  facet normal -0 0 1
    outer loop
      vertex 45 206 13
      vertex 57.5 202 13
      vertex 57.5 206 13
    endloop
  endfacet
  facet normal 0 0 1
    outer loop
      vertex 57.5 202 13
      vertex 45 206 13
      vertex 45 202 13
    endloop
  endfacet
  facet normal 1 -0 0
    outer loop
      vertex 48.5 202 40
      vertex 48.5 206 35
      vertex 48.5 206 40
    endloop
  endfacet
  facet normal 1 0 0
    outer loop
      vertex 48.5 206 35
      vertex 48.5 202 40
      vertex 48.5 202 35
    endloop
  endfacet
  facet normal -1 0 0
    outer loop
      vertex 54.5 202 35
      vertex 54.5 206 40
      vertex 54.5 206 35
    endloop
  endfacet
  facet normal -1 -0 0
    outer loop
      vertex 54.5 206 40
      vertex 54.5 202 35
      vertex 54.5 202 40
    endloop
  endfacet
  facet normal -1 0 0
    outer loop
      vertex 0 0 0
      vertex 0 240 3.1
      vertex 0 240 0
    endloop
  endfacet
  facet normal -1 -0 0
    outer loop
      vertex 0 240 3.1
      vertex 0 0 0
      vertex 0 0 3.1
    endloop
  endfacet
  facet normal -0 0 1
    outer loop
      vertex 2 42 3.1
      vertex 24.5 6 3.1
      vertex 24.5 42 3.1
    endloop
  endfacet
  facet normal 0 0 1
    outer loop
      vertex 24.5 6 3.1
      vertex 2 42 3.1
      vertex 2 6 3.1
    endloop
  endfacet
  facet normal -0 0 1
    outer loop
      vertex 2 82 3.1
      vertex 24.5 46 3.1
      vertex 24.5 82 3.1
    endloop
  endfacet
  facet normal 0 0 1
    outer loop
      vertex 24.5 46 3.1
      vertex 2 82 3.1
      vertex 2 46 3.1
    endloop
  endfacet
  facet normal -0 0 1
    outer loop
      vertex 2 122 3.1
      vertex 24.5 86 3.1
      vertex 24.5 122 3.1
    endloop
  endfacet
  facet normal 0 0 1
    outer loop
      vertex 24.5 86 3.1
      vertex 2 122 3.1
      vertex 2 86 3.1
    endloop
  endfacet
  facet normal -0 0 1
    outer loop
      vertex 2 162 3.1
      vertex 24.5 126 3.1
      vertex 24.5 162 3.1
    endloop
  endfacet
  facet normal 0 0 1
    outer loop
      vertex 24.5 126 3.1
      vertex 2 162 3.1
      vertex 2 126 3.1
    endloop
  endfacet
  facet normal -0 0 1
    outer loop
      vertex 2 202 3.1
      vertex 24.5 166 3.1
      vertex 24.5 202 3.1
    endloop
  endfacet
  facet normal 0 0 1
    outer loop
      vertex 24.5 166 3.1
      vertex 2 202 3.1
      vertex 2 166 3.1
    endloop
  endfacet
  facet normal -0 0 1
    outer loop
      vertex 40 42 3.1
      vertex 62.5 6 3.1
      vertex 62.5 42 3.1
    endloop
  endfacet
  facet normal 0 0 1
    outer loop
      vertex 62.5 6 3.1
      vertex 40 42 3.1
      vertex 40 6 3.1
    endloop
  endfacet
  facet normal -0 0 1
    outer loop
      vertex 40 82 3.1
      vertex 62.5 46 3.1
      vertex 62.5 82 3.1
    endloop
  endfacet
  facet normal 0 0 1
    outer loop
      vertex 62.5 46 3.1
      vertex 40 82 3.1
      vertex 40 46 3.1
    endloop
  endfacet
  facet normal -0 0 1
    outer loop
      vertex 40 122 3.1
      vertex 62.5 86 3.1
      vertex 62.5 122 3.1
    endloop
  endfacet
  facet normal 0 0 1
    outer loop
      vertex 62.5 86 3.1
      vertex 40 122 3.1
      vertex 40 86 3.1
    endloop
  endfacet
  facet normal -0 0 1
    outer loop
      vertex 40 162 3.1
      vertex 62.5 126 3.1
      vertex 62.5 162 3.1
    endloop
  endfacet
  facet normal 0 0 1
    outer loop
      vertex 62.5 126 3.1
      vertex 40 162 3.1
      vertex 40 126 3.1
    endloop
  endfacet
  facet normal -0 0 1
    outer loop
      vertex 40 202 3.1
      vertex 62.5 166 3.1
      vertex 62.5 202 3.1
    endloop
  endfacet
  facet normal 0 0 1
    outer loop
      vertex 62.5 166 3.1
      vertex 40 202 3.1
      vertex 40 166 3.1
    endloop
  endfacet
  facet normal 0 0 1
    outer loop
      vertex 62.5 202 3.1
      vertex 66 240 3.1
      vertex 62.5 206 3.1
    endloop
  endfacet
  facet normal 0 0 1
    outer loop
      vertex 66 240 3.1
      vertex 40 206 3.1
      vertex 62.5 206 3.1
    endloop
  endfacet
  facet normal 0 0 1
    outer loop
      vertex 24.5 202 3.1
      vertex 40 202 3.1
      vertex 40 206 3.1
    endloop
  endfacet
  facet normal 0 0 1
    outer loop
      vertex 40 202 3.1
      vertex 24.5 202 3.1
      vertex 40 166 3.1
    endloop
  endfacet
  facet normal 0 0 1
    outer loop
      vertex 40 166 3.1
      vertex 24.5 166 3.1
      vertex 40 162 3.1
    endloop
  endfacet
  facet normal 0 0 1
    outer loop
      vertex 24.5 162 3.1
      vertex 40 162 3.1
      vertex 24.5 166 3.1
    endloop
  endfacet
  facet normal 0 0 1
    outer loop
      vertex 24.5 126 3.1
      vertex 40 126 3.1
      vertex 24.5 162 3.1
    endloop
  endfacet
  facet normal 0 0 1
    outer loop
      vertex 40 126 3.1
      vertex 24.5 126 3.1
      vertex 40 122 3.1
    endloop
  endfacet
  facet normal 0 0 1
    outer loop
      vertex 40 122 3.1
      vertex 24.5 122 3.1
      vertex 40 86 3.1
    endloop
  endfacet
  facet normal 0 0 1
    outer loop
      vertex 40 86 3.1
      vertex 24.5 86 3.1
      vertex 40 82 3.1
    endloop
  endfacet
  facet normal 0 0 1
    outer loop
      vertex 24.5 82 3.1
      vertex 40 82 3.1
      vertex 24.5 86 3.1
    endloop
  endfacet
  facet normal 0 0 1
    outer loop
      vertex 40 82 3.1
      vertex 24.5 82 3.1
      vertex 40 46 3.1
    endloop
  endfacet
  facet normal 0 0 1
    outer loop
      vertex 24.5 202 3.1
      vertex 40 206 3.1
      vertex 24.5 206 3.1
    endloop
  endfacet
  facet normal -0 0 1
    outer loop
      vertex 0 240 3.1
      vertex 40 206 3.1
      vertex 66 240 3.1
    endloop
  endfacet
  facet normal 0 0 1
    outer loop
      vertex 40 206 3.1
      vertex 0 240 3.1
      vertex 24.5 206 3.1
    endloop
  endfacet
  facet normal 0 0 1
    outer loop
      vertex 0 240 3.1
      vertex 2 202 3.1
      vertex 2 206 3.1
    endloop
  endfacet
  facet normal 0 0 1
    outer loop
      vertex 2 202 3.1
      vertex 0 240 3.1
      vertex 2 166 3.1
    endloop
  endfacet
  facet normal 0 0 1
    outer loop
      vertex 2 166 3.1
      vertex 0 240 3.1
      vertex 2 162 3.1
    endloop
  endfacet
  facet normal 0 0 1
    outer loop
      vertex 2 162 3.1
      vertex 0 240 3.1
      vertex 2 126 3.1
    endloop
  endfacet
  facet normal 0 0 1
    outer loop
      vertex 2 126 3.1
      vertex 0 240 3.1
      vertex 2 122 3.1
    endloop
  endfacet
  facet normal 0 0 1
    outer loop
      vertex 2 122 3.1
      vertex 0 240 3.1
      vertex 2 86 3.1
    endloop
  endfacet
  facet normal 0 0 1
    outer loop
      vertex 0 0 3.1
      vertex 2 86 3.1
      vertex 0 240 3.1
    endloop
  endfacet
  facet normal 0 0 1
    outer loop
      vertex 2 86 3.1
      vertex 0 0 3.1
      vertex 2 82 3.1
    endloop
  endfacet
  facet normal 0 0 1
    outer loop
      vertex 2 82 3.1
      vertex 0 0 3.1
      vertex 2 46 3.1
    endloop
  endfacet
  facet normal 0 0 1
    outer loop
      vertex 2 42 3.1
      vertex 0 0 3.1
      vertex 2 6 3.1
    endloop
  endfacet
  facet normal 0 0 1
    outer loop
      vertex 2 46 3.1
      vertex 0 0 3.1
      vertex 2 42 3.1
    endloop
  endfacet
  facet normal 0 0 1
    outer loop
      vertex 24.5 206 3.1
      vertex 0 240 3.1
      vertex 2 206 3.1
    endloop
  endfacet
  facet normal 0 0 1
    outer loop
      vertex 62.5 166 3.1
      vertex 66 240 3.1
      vertex 62.5 202 3.1
    endloop
  endfacet
  facet normal 0 0 1
    outer loop
      vertex 62.5 162 3.1
      vertex 66 240 3.1
      vertex 62.5 166 3.1
    endloop
  endfacet
  facet normal 0 0 1
    outer loop
      vertex 62.5 126 3.1
      vertex 66 240 3.1
      vertex 62.5 162 3.1
    endloop
  endfacet
  facet normal 0 0 1
    outer loop
      vertex 66 240 3.1
      vertex 62.5 126 3.1
      vertex 66 0 3.1
    endloop
  endfacet
  facet normal -0 0 1
    outer loop
      vertex 62.5 122 3.1
      vertex 66 0 3.1
      vertex 62.5 126 3.1
    endloop
  endfacet
  facet normal -0 0 1
    outer loop
      vertex 62.5 86 3.1
      vertex 66 0 3.1
      vertex 62.5 122 3.1
    endloop
  endfacet
  facet normal -0 0 1
    outer loop
      vertex 62.5 82 3.1
      vertex 66 0 3.1
      vertex 62.5 86 3.1
    endloop
  endfacet
  facet normal -0 0 1
    outer loop
      vertex 62.5 46 3.1
      vertex 66 0 3.1
      vertex 62.5 82 3.1
    endloop
  endfacet
  facet normal -0 0 1
    outer loop
      vertex 62.5 42 3.1
      vertex 66 0 3.1
      vertex 62.5 46 3.1
    endloop
  endfacet
  facet normal -0 0 1
    outer loop
      vertex 62.5 6 3.1
      vertex 66 0 3.1
      vertex 62.5 42 3.1
    endloop
  endfacet
  facet normal -0 0 1
    outer loop
      vertex 62.5 2 3.1
      vertex 66 0 3.1
      vertex 62.5 6 3.1
    endloop
  endfacet
  facet normal -0 0 1
    outer loop
      vertex 40 2 3.1
      vertex 66 0 3.1
      vertex 62.5 2 3.1
    endloop
  endfacet
  facet normal 0 0 1
    outer loop
      vertex 40 166 3.1
      vertex 24.5 202 3.1
      vertex 24.5 166 3.1
    endloop
  endfacet
  facet normal 0 0 1
    outer loop
      vertex 40 162 3.1
      vertex 24.5 162 3.1
      vertex 40 126 3.1
    endloop
  endfacet
  facet normal 0 0 1
    outer loop
      vertex 24.5 122 3.1
      vertex 40 122 3.1
      vertex 24.5 126 3.1
    endloop
  endfacet
  facet normal 0 0 1
    outer loop
      vertex 24.5 86 3.1
      vertex 40 86 3.1
      vertex 24.5 122 3.1
    endloop
  endfacet
  facet normal 0 0 1
    outer loop
      vertex 24.5 46 3.1
      vertex 40 46 3.1
      vertex 24.5 82 3.1
    endloop
  endfacet
  facet normal 0 0 1
    outer loop
      vertex 40 46 3.1
      vertex 24.5 46 3.1
      vertex 40 42 3.1
    endloop
  endfacet
  facet normal 0 0 1
    outer loop
      vertex 24.5 42 3.1
      vertex 40 42 3.1
      vertex 24.5 46 3.1
    endloop
  endfacet
  facet normal 0 0 1
    outer loop
      vertex 40 42 3.1
      vertex 24.5 42 3.1
      vertex 40 6 3.1
    endloop
  endfacet
  facet normal 0 0 1
    outer loop
      vertex 24.5 6 3.1
      vertex 40 6 3.1
      vertex 24.5 42 3.1
    endloop
  endfacet
  facet normal 0 0 1
    outer loop
      vertex 40 6 3.1
      vertex 24.5 6 3.1
      vertex 40 2 3.1
    endloop
  endfacet
  facet normal 0 0 1
    outer loop
      vertex 24.5 2 3.1
      vertex 40 2 3.1
      vertex 24.5 6 3.1
    endloop
  endfacet
  facet normal -0 0 1
    outer loop
      vertex 24.5 2 3.1
      vertex 66 0 3.1
      vertex 40 2 3.1
    endloop
  endfacet
  facet normal 0 0 1
    outer loop
      vertex 0 0 3.1
      vertex 24.5 2 3.1
      vertex 2 2 3.1
    endloop
  endfacet
  facet normal 0 0 1
    outer loop
      vertex 24.5 2 3.1
      vertex 0 0 3.1
      vertex 66 0 3.1
    endloop
  endfacet
  facet normal 0 0 1
    outer loop
      vertex 2 6 3.1
      vertex 0 0 3.1
      vertex 2 2 3.1
    endloop
  endfacet
  facet normal 1 -0 0
    outer loop
      vertex 66 0 3.1
      vertex 66 240 0
      vertex 66 240 3.1
    endloop
  endfacet
  facet normal 1 0 0
    outer loop
      vertex 66 240 0
      vertex 66 0 3.1
      vertex 66 0 0
    endloop
  endfacet
  facet normal 0 1 -0
    outer loop
      vertex 66 240 0
      vertex 0 240 3.1
      vertex 66 240 3.1
    endloop
  endfacet
  facet normal 0 1 0
    outer loop
      vertex 0 240 3.1
      vertex 66 240 0
      vertex 0 240 0
    endloop
  endfacet
  facet normal 0 0 -1
    outer loop
      vertex 0 0 0
      vertex 66 240 0
      vertex 66 0 0
    endloop
  endfacet
  facet normal -0 0 -1
    outer loop
      vertex 66 240 0
      vertex 0 0 0
      vertex 0 240 0
    endloop
  endfacet
  facet normal 0 -1 0
    outer loop
      vertex 0 0 0
      vertex 66 0 3.1
      vertex 0 0 3.1
    endloop
  endfacet
  facet normal 0 -1 -0
    outer loop
      vertex 66 0 3.1
      vertex 0 0 0
      vertex 66 0 0
    endloop
  endfacet
endsolid OpenSCAD_Model
