solid OpenSCAD_Model
  facet normal -1 0 0
    outer loop
      vertex 2 2 3.1
      vertex 2 6 40
      vertex 2 6 3.1
    endloop
  endfacet
  facet normal -1 -0 0
    outer loop
      vertex 2 6 40
      vertex 2 2 3.1
      vertex 2 2 40
    endloop
  endfacet
  facet normal -0 0 1
    outer loop
      vertex 2 6 40
      vertex 10.5 2 40
      vertex 10.5 6 40
    endloop
  endfacet
  facet normal 0 0 1
    outer loop
      vertex 10.5 2 40
      vertex 2 6 40
      vertex 2 2 40
    endloop
  endfacet
  facet normal -0 0 1
    outer loop
      vertex 16.5 6 40
      vertex 24.5 2 40
      vertex 24.5 6 40
    endloop
  endfacet
  facet normal 0 0 1
    outer loop
      vertex 24.5 2 40
      vertex 16.5 6 40
      vertex 16.5 2 40
    endloop
  endfacet
  facet normal 1 -0 0
    outer loop
      vertex 24.5 2 40
      vertex 24.5 6 3.1
      vertex 24.5 6 40
    endloop
  endfacet
  facet normal 1 0 0
    outer loop
      vertex 24.5 6 3.1
      vertex 24.5 2 40
      vertex 24.5 2 3.1
    endloop
  endfacet
  facet normal 0 -1 0
    outer loop
      vertex 2 2 40
      vertex 7 2 37
      vertex 10.5 2 40
    endloop
  endfacet
  facet normal 0 -1 0
    outer loop
      vertex 2 2 40
      vertex 7 2 12
      vertex 7 2 37
    endloop
  endfacet
  facet normal 0 -1 0
    outer loop
      vertex 24.5 2 3.1
      vertex 7 2 12
      vertex 2 2 3.1
    endloop
  endfacet
  facet normal 0 -1 0
    outer loop
      vertex 2 2 3.1
      vertex 7 2 12
      vertex 2 2 40
    endloop
  endfacet
  facet normal 0 -1 -0
    outer loop
      vertex 10.5 2 40
      vertex 7 2 37
      vertex 10.5 2 37
    endloop
  endfacet
  facet normal 0 -1 0
    outer loop
      vertex 20.5 2 37
      vertex 16.5 2 40
      vertex 16.5 2 37
    endloop
  endfacet
  facet normal 0 -1 0
    outer loop
      vertex 16.5 2 40
      vertex 20.5 2 37
      vertex 24.5 2 40
    endloop
  endfacet
  facet normal 0 -1 0
    outer loop
      vertex 20.5 2 12
      vertex 24.5 2 40
      vertex 20.5 2 37
    endloop
  endfacet
  facet normal 0 -1 0
    outer loop
      vertex 20.5 2 12
      vertex 24.5 2 3.1
      vertex 24.5 2 40
    endloop
  endfacet
  facet normal 0 -1 0
    outer loop
      vertex 7 2 12
      vertex 24.5 2 3.1
      vertex 20.5 2 12
    endloop
  endfacet
  facet normal 0 1 0
    outer loop
      vertex 24.5 6 40
      vertex 20.5 6 37
      vertex 16.5 6 40
    endloop
  endfacet
  facet normal 0 1 0
    outer loop
      vertex 24.5 6 40
      vertex 20.5 6 12
      vertex 20.5 6 37
    endloop
  endfacet
  facet normal 0 1 0
    outer loop
      vertex 20.5 6 12
      vertex 24.5 6 3.1
      vertex 7 6 12
    endloop
  endfacet
  facet normal 0 1 -0
    outer loop
      vertex 24.5 6 3.1
      vertex 20.5 6 12
      vertex 24.5 6 40
    endloop
  endfacet
  facet normal 0 1 0
    outer loop
      vertex 16.5 6 40
      vertex 20.5 6 37
      vertex 16.5 6 37
    endloop
  endfacet
  facet normal 0 1 0
    outer loop
      vertex 7 6 37
      vertex 10.5 6 40
      vertex 10.5 6 37
    endloop
  endfacet
  facet normal 0 1 0
    outer loop
      vertex 10.5 6 40
      vertex 7 6 37
      vertex 2 6 40
    endloop
  endfacet
  facet normal 0 1 -0
    outer loop
      vertex 7 6 12
      vertex 2 6 40
      vertex 7 6 37
    endloop
  endfacet
  facet normal 0 1 0
    outer loop
      vertex 7 6 12
      vertex 2 6 3.1
      vertex 2 6 40
    endloop
  endfacet
  facet normal 0 1 0
    outer loop
      vertex 2 6 3.1
      vertex 7 6 12
      vertex 24.5 6 3.1
    endloop
  endfacet
  facet normal 1 -0 0
    outer loop
      vertex 7 2 37
      vertex 7 6 12
      vertex 7 6 37
    endloop
  endfacet
  facet normal 1 0 0
    outer loop
      vertex 7 6 12
      vertex 7 2 37
      vertex 7 2 12
    endloop
  endfacet
  facet normal 0 0 -1
    outer loop
      vertex 7 2 37
      vertex 10.5 6 37
      vertex 10.5 2 37
    endloop
  endfacet
  facet normal -0 0 -1
    outer loop
      vertex 10.5 6 37
      vertex 7 2 37
      vertex 7 6 37
    endloop
  endfacet
  facet normal 0 0 -1
    outer loop
      vertex 16.5 2 37
      vertex 20.5 6 37
      vertex 20.5 2 37
    endloop
  endfacet
  facet normal -0 0 -1
    outer loop
      vertex 20.5 6 37
      vertex 16.5 2 37
      vertex 16.5 6 37
    endloop
  endfacet
  facet normal -1 0 0
    outer loop
      vertex 20.5 2 12
      vertex 20.5 6 37
      vertex 20.5 6 12
    endloop
  endfacet
  facet normal -1 -0 0
    outer loop
      vertex 20.5 6 37
      vertex 20.5 2 12
      vertex 20.5 2 37
    endloop
  endfacet
  facet normal -0 0 1
    outer loop
      vertex 7 6 12
      vertex 20.5 2 12
      vertex 20.5 6 12
    endloop
  endfacet
  facet normal 0 0 1
    outer loop
      vertex 20.5 2 12
      vertex 7 6 12
      vertex 7 2 12
    endloop
  endfacet
  facet normal 1 -0 0
    outer loop
      vertex 10.5 2 40
      vertex 10.5 6 37
      vertex 10.5 6 40
    endloop
  endfacet
  facet normal 1 0 0
    outer loop
      vertex 10.5 6 37
      vertex 10.5 2 40
      vertex 10.5 2 37
    endloop
  endfacet
  facet normal -1 0 0
    outer loop
      vertex 16.5 2 37
      vertex 16.5 6 40
      vertex 16.5 6 37
    endloop
  endfacet
  facet normal -1 -0 0
    outer loop
      vertex 16.5 6 40
      vertex 16.5 2 37
      vertex 16.5 2 40
    endloop
  endfacet
  facet normal -1 0 0
    outer loop
      vertex 2 46 3.1
      vertex 2 50 40
      vertex 2 50 3.1
    endloop
  endfacet
  facet normal -1 -0 0
    outer loop
      vertex 2 50 40
      vertex 2 46 3.1
      vertex 2 46 40
    endloop
  endfacet
  facet normal -0 0 1
    outer loop
      vertex 2 50 40
      vertex 10.5 46 40
      vertex 10.5 50 40
    endloop
  endfacet
  facet normal 0 0 1
    outer loop
      vertex 10.5 46 40
      vertex 2 50 40
      vertex 2 46 40
    endloop
  endfacet
  facet normal -0 0 1
    outer loop
      vertex 16.5 50 40
      vertex 24.5 46 40
      vertex 24.5 50 40
    endloop
  endfacet
  facet normal 0 0 1
    outer loop
      vertex 24.5 46 40
      vertex 16.5 50 40
      vertex 16.5 46 40
    endloop
  endfacet
  facet normal 1 -0 0
    outer loop
      vertex 24.5 46 40
      vertex 24.5 50 3.1
      vertex 24.5 50 40
    endloop
  endfacet
  facet normal 1 0 0
    outer loop
      vertex 24.5 50 3.1
      vertex 24.5 46 40
      vertex 24.5 46 3.1
    endloop
  endfacet
  facet normal 0 -1 0
    outer loop
      vertex 2 46 40
      vertex 7 46 37
      vertex 10.5 46 40
    endloop
  endfacet
  facet normal 0 -1 0
    outer loop
      vertex 2 46 40
      vertex 7 46 12
      vertex 7 46 37
    endloop
  endfacet
  facet normal 0 -1 0
    outer loop
      vertex 24.5 46 3.1
      vertex 7 46 12
      vertex 2 46 3.1
    endloop
  endfacet
  facet normal 0 -1 0
    outer loop
      vertex 2 46 3.1
      vertex 7 46 12
      vertex 2 46 40
    endloop
  endfacet
  facet normal 0 -1 -0
    outer loop
      vertex 10.5 46 40
      vertex 7 46 37
      vertex 10.5 46 37
    endloop
  endfacet
  facet normal 0 -1 0
    outer loop
      vertex 20.5 46 37
      vertex 16.5 46 40
      vertex 16.5 46 37
    endloop
  endfacet
  facet normal 0 -1 0
    outer loop
      vertex 16.5 46 40
      vertex 20.5 46 37
      vertex 24.5 46 40
    endloop
  endfacet
  facet normal 0 -1 0
    outer loop
      vertex 20.5 46 12
      vertex 24.5 46 40
      vertex 20.5 46 37
    endloop
  endfacet
  facet normal 0 -1 0
    outer loop
      vertex 20.5 46 12
      vertex 24.5 46 3.1
      vertex 24.5 46 40
    endloop
  endfacet
  facet normal 0 -1 0
    outer loop
      vertex 7 46 12
      vertex 24.5 46 3.1
      vertex 20.5 46 12
    endloop
  endfacet
  facet normal 0 1 0
    outer loop
      vertex 24.5 50 40
      vertex 20.5 50 37
      vertex 16.5 50 40
    endloop
  endfacet
  facet normal 0 1 0
    outer loop
      vertex 24.5 50 40
      vertex 20.5 50 12
      vertex 20.5 50 37
    endloop
  endfacet
  facet normal 0 1 0
    outer loop
      vertex 20.5 50 12
      vertex 24.5 50 3.1
      vertex 7 50 12
    endloop
  endfacet
  facet normal 0 1 -0
    outer loop
      vertex 24.5 50 3.1
      vertex 20.5 50 12
      vertex 24.5 50 40
    endloop
  endfacet
  facet normal 0 1 0
    outer loop
      vertex 16.5 50 40
      vertex 20.5 50 37
      vertex 16.5 50 37
    endloop
  endfacet
  facet normal 0 1 0
    outer loop
      vertex 7 50 37
      vertex 10.5 50 40
      vertex 10.5 50 37
    endloop
  endfacet
  facet normal 0 1 0
    outer loop
      vertex 10.5 50 40
      vertex 7 50 37
      vertex 2 50 40
    endloop
  endfacet
  facet normal 0 1 -0
    outer loop
      vertex 7 50 12
      vertex 2 50 40
      vertex 7 50 37
    endloop
  endfacet
  facet normal 0 1 0
    outer loop
      vertex 7 50 12
      vertex 2 50 3.1
      vertex 2 50 40
    endloop
  endfacet
  facet normal 0 1 0
    outer loop
      vertex 2 50 3.1
      vertex 7 50 12
      vertex 24.5 50 3.1
    endloop
  endfacet
  facet normal 1 -0 0
    outer loop
      vertex 7 46 37
      vertex 7 50 12
      vertex 7 50 37
    endloop
  endfacet
  facet normal 1 0 0
    outer loop
      vertex 7 50 12
      vertex 7 46 37
      vertex 7 46 12
    endloop
  endfacet
  facet normal 0 0 -1
    outer loop
      vertex 7 46 37
      vertex 10.5 50 37
      vertex 10.5 46 37
    endloop
  endfacet
  facet normal -0 0 -1
    outer loop
      vertex 10.5 50 37
      vertex 7 46 37
      vertex 7 50 37
    endloop
  endfacet
  facet normal 0 0 -1
    outer loop
      vertex 16.5 46 37
      vertex 20.5 50 37
      vertex 20.5 46 37
    endloop
  endfacet
  facet normal -0 0 -1
    outer loop
      vertex 20.5 50 37
      vertex 16.5 46 37
      vertex 16.5 50 37
    endloop
  endfacet
  facet normal -1 0 0
    outer loop
      vertex 20.5 46 12
      vertex 20.5 50 37
      vertex 20.5 50 12
    endloop
  endfacet
  facet normal -1 -0 0
    outer loop
      vertex 20.5 50 37
      vertex 20.5 46 12
      vertex 20.5 46 37
    endloop
  endfacet
  facet normal -0 0 1
    outer loop
      vertex 7 50 12
      vertex 20.5 46 12
      vertex 20.5 50 12
    endloop
  endfacet
  facet normal 0 0 1
    outer loop
      vertex 20.5 46 12
      vertex 7 50 12
      vertex 7 46 12
    endloop
  endfacet
  facet normal 1 -0 0
    outer loop
      vertex 10.5 46 40
      vertex 10.5 50 37
      vertex 10.5 50 40
    endloop
  endfacet
  facet normal 1 0 0
    outer loop
      vertex 10.5 50 37
      vertex 10.5 46 40
      vertex 10.5 46 37
    endloop
  endfacet
  facet normal -1 0 0
    outer loop
      vertex 16.5 46 37
      vertex 16.5 50 40
      vertex 16.5 50 37
    endloop
  endfacet
  facet normal -1 -0 0
    outer loop
      vertex 16.5 50 40
      vertex 16.5 46 37
      vertex 16.5 46 40
    endloop
  endfacet
  facet normal -1 0 0
    outer loop
      vertex 2 90 3.1
      vertex 2 94 40
      vertex 2 94 3.1
    endloop
  endfacet
  facet normal -1 -0 0
    outer loop
      vertex 2 94 40
      vertex 2 90 3.1
      vertex 2 90 40
    endloop
  endfacet
  facet normal -0 0 1
    outer loop
      vertex 2 94 40
      vertex 10.5 90 40
      vertex 10.5 94 40
    endloop
  endfacet
  facet normal 0 0 1
    outer loop
      vertex 10.5 90 40
      vertex 2 94 40
      vertex 2 90 40
    endloop
  endfacet
  facet normal -0 0 1
    outer loop
      vertex 16.5 94 40
      vertex 24.5 90 40
      vertex 24.5 94 40
    endloop
  endfacet
  facet normal 0 0 1
    outer loop
      vertex 24.5 90 40
      vertex 16.5 94 40
      vertex 16.5 90 40
    endloop
  endfacet
  facet normal 1 -0 0
    outer loop
      vertex 24.5 90 40
      vertex 24.5 94 3.1
      vertex 24.5 94 40
    endloop
  endfacet
  facet normal 1 0 0
    outer loop
      vertex 24.5 94 3.1
      vertex 24.5 90 40
      vertex 24.5 90 3.1
    endloop
  endfacet
  facet normal 0 -1 0
    outer loop
      vertex 2 90 40
      vertex 7 90 37
      vertex 10.5 90 40
    endloop
  endfacet
  facet normal 0 -1 0
    outer loop
      vertex 2 90 40
      vertex 7 90 12
      vertex 7 90 37
    endloop
  endfacet
  facet normal 0 -1 0
    outer loop
      vertex 24.5 90 3.1
      vertex 7 90 12
      vertex 2 90 3.1
    endloop
  endfacet
  facet normal 0 -1 0
    outer loop
      vertex 2 90 3.1
      vertex 7 90 12
      vertex 2 90 40
    endloop
  endfacet
  facet normal 0 -1 -0
    outer loop
      vertex 10.5 90 40
      vertex 7 90 37
      vertex 10.5 90 37
    endloop
  endfacet
  facet normal 0 -1 0
    outer loop
      vertex 20.5 90 37
      vertex 16.5 90 40
      vertex 16.5 90 37
    endloop
  endfacet
  facet normal 0 -1 0
    outer loop
      vertex 16.5 90 40
      vertex 20.5 90 37
      vertex 24.5 90 40
    endloop
  endfacet
  facet normal 0 -1 0
    outer loop
      vertex 20.5 90 12
      vertex 24.5 90 40
      vertex 20.5 90 37
    endloop
  endfacet
  facet normal 0 -1 0
    outer loop
      vertex 20.5 90 12
      vertex 24.5 90 3.1
      vertex 24.5 90 40
    endloop
  endfacet
  facet normal 0 -1 0
    outer loop
      vertex 7 90 12
      vertex 24.5 90 3.1
      vertex 20.5 90 12
    endloop
  endfacet
  facet normal 0 1 0
    outer loop
      vertex 24.5 94 40
      vertex 20.5 94 37
      vertex 16.5 94 40
    endloop
  endfacet
  facet normal 0 1 0
    outer loop
      vertex 24.5 94 40
      vertex 20.5 94 12
      vertex 20.5 94 37
    endloop
  endfacet
  facet normal 0 1 0
    outer loop
      vertex 20.5 94 12
      vertex 24.5 94 3.1
      vertex 7 94 12
    endloop
  endfacet
  facet normal 0 1 -0
    outer loop
      vertex 24.5 94 3.1
      vertex 20.5 94 12
      vertex 24.5 94 40
    endloop
  endfacet
  facet normal 0 1 0
    outer loop
      vertex 16.5 94 40
      vertex 20.5 94 37
      vertex 16.5 94 37
    endloop
  endfacet
  facet normal 0 1 0
    outer loop
      vertex 7 94 37
      vertex 10.5 94 40
      vertex 10.5 94 37
    endloop
  endfacet
  facet normal 0 1 0
    outer loop
      vertex 10.5 94 40
      vertex 7 94 37
      vertex 2 94 40
    endloop
  endfacet
  facet normal 0 1 -0
    outer loop
      vertex 7 94 12
      vertex 2 94 40
      vertex 7 94 37
    endloop
  endfacet
  facet normal 0 1 0
    outer loop
      vertex 7 94 12
      vertex 2 94 3.1
      vertex 2 94 40
    endloop
  endfacet
  facet normal 0 1 0
    outer loop
      vertex 2 94 3.1
      vertex 7 94 12
      vertex 24.5 94 3.1
    endloop
  endfacet
  facet normal 1 -0 0
    outer loop
      vertex 7 90 37
      vertex 7 94 12
      vertex 7 94 37
    endloop
  endfacet
  facet normal 1 0 0
    outer loop
      vertex 7 94 12
      vertex 7 90 37
      vertex 7 90 12
    endloop
  endfacet
  facet normal 0 0 -1
    outer loop
      vertex 7 90 37
      vertex 10.5 94 37
      vertex 10.5 90 37
    endloop
  endfacet
  facet normal -0 0 -1
    outer loop
      vertex 10.5 94 37
      vertex 7 90 37
      vertex 7 94 37
    endloop
  endfacet
  facet normal 0 0 -1
    outer loop
      vertex 16.5 90 37
      vertex 20.5 94 37
      vertex 20.5 90 37
    endloop
  endfacet
  facet normal -0 0 -1
    outer loop
      vertex 20.5 94 37
      vertex 16.5 90 37
      vertex 16.5 94 37
    endloop
  endfacet
  facet normal -1 0 0
    outer loop
      vertex 20.5 90 12
      vertex 20.5 94 37
      vertex 20.5 94 12
    endloop
  endfacet
  facet normal -1 -0 0
    outer loop
      vertex 20.5 94 37
      vertex 20.5 90 12
      vertex 20.5 90 37
    endloop
  endfacet
  facet normal -0 0 1
    outer loop
      vertex 7 94 12
      vertex 20.5 90 12
      vertex 20.5 94 12
    endloop
  endfacet
  facet normal 0 0 1
    outer loop
      vertex 20.5 90 12
      vertex 7 94 12
      vertex 7 90 12
    endloop
  endfacet
  facet normal 1 -0 0
    outer loop
      vertex 10.5 90 40
      vertex 10.5 94 37
      vertex 10.5 94 40
    endloop
  endfacet
  facet normal 1 0 0
    outer loop
      vertex 10.5 94 37
      vertex 10.5 90 40
      vertex 10.5 90 37
    endloop
  endfacet
  facet normal -1 0 0
    outer loop
      vertex 16.5 90 37
      vertex 16.5 94 40
      vertex 16.5 94 37
    endloop
  endfacet
  facet normal -1 -0 0
    outer loop
      vertex 16.5 94 40
      vertex 16.5 90 37
      vertex 16.5 90 40
    endloop
  endfacet
  facet normal -1 0 0
    outer loop
      vertex 32 2 3.1
      vertex 32 6 40
      vertex 32 6 3.1
    endloop
  endfacet
  facet normal -1 -0 0
    outer loop
      vertex 32 6 40
      vertex 32 2 3.1
      vertex 32 2 40
    endloop
  endfacet
  facet normal -0 0 1
    outer loop
      vertex 32 6 40
      vertex 40.5 2 40
      vertex 40.5 6 40
    endloop
  endfacet
  facet normal 0 0 1
    outer loop
      vertex 40.5 2 40
      vertex 32 6 40
      vertex 32 2 40
    endloop
  endfacet
  facet normal -0 0 1
    outer loop
      vertex 46.5 6 40
      vertex 54.5 2 40
      vertex 54.5 6 40
    endloop
  endfacet
  facet normal 0 0 1
    outer loop
      vertex 54.5 2 40
      vertex 46.5 6 40
      vertex 46.5 2 40
    endloop
  endfacet
  facet normal 1 -0 0
    outer loop
      vertex 54.5 2 40
      vertex 54.5 6 3.1
      vertex 54.5 6 40
    endloop
  endfacet
  facet normal 1 0 0
    outer loop
      vertex 54.5 6 3.1
      vertex 54.5 2 40
      vertex 54.5 2 3.1
    endloop
  endfacet
  facet normal 0 -1 0
    outer loop
      vertex 32 2 40
      vertex 37 2 37
      vertex 40.5 2 40
    endloop
  endfacet
  facet normal 0 -1 0
    outer loop
      vertex 32 2 40
      vertex 37 2 12
      vertex 37 2 37
    endloop
  endfacet
  facet normal 0 -1 0
    outer loop
      vertex 54.5 2 3.1
      vertex 37 2 12
      vertex 32 2 3.1
    endloop
  endfacet
  facet normal 0 -1 0
    outer loop
      vertex 32 2 3.1
      vertex 37 2 12
      vertex 32 2 40
    endloop
  endfacet
  facet normal 0 -1 -0
    outer loop
      vertex 40.5 2 40
      vertex 37 2 37
      vertex 40.5 2 37
    endloop
  endfacet
  facet normal 0 -1 0
    outer loop
      vertex 50.5 2 37
      vertex 46.5 2 40
      vertex 46.5 2 37
    endloop
  endfacet
  facet normal 0 -1 0
    outer loop
      vertex 46.5 2 40
      vertex 50.5 2 37
      vertex 54.5 2 40
    endloop
  endfacet
  facet normal 0 -1 0
    outer loop
      vertex 50.5 2 12
      vertex 54.5 2 40
      vertex 50.5 2 37
    endloop
  endfacet
  facet normal 0 -1 0
    outer loop
      vertex 50.5 2 12
      vertex 54.5 2 3.1
      vertex 54.5 2 40
    endloop
  endfacet
  facet normal 0 -1 0
    outer loop
      vertex 37 2 12
      vertex 54.5 2 3.1
      vertex 50.5 2 12
    endloop
  endfacet
  facet normal 0 1 0
    outer loop
      vertex 54.5 6 40
      vertex 50.5 6 37
      vertex 46.5 6 40
    endloop
  endfacet
  facet normal 0 1 0
    outer loop
      vertex 54.5 6 40
      vertex 50.5 6 12
      vertex 50.5 6 37
    endloop
  endfacet
  facet normal 0 1 0
    outer loop
      vertex 50.5 6 12
      vertex 54.5 6 3.1
      vertex 37 6 12
    endloop
  endfacet
  facet normal 0 1 -0
    outer loop
      vertex 54.5 6 3.1
      vertex 50.5 6 12
      vertex 54.5 6 40
    endloop
  endfacet
  facet normal 0 1 0
    outer loop
      vertex 46.5 6 40
      vertex 50.5 6 37
      vertex 46.5 6 37
    endloop
  endfacet
  facet normal 0 1 0
    outer loop
      vertex 37 6 37
      vertex 40.5 6 40
      vertex 40.5 6 37
    endloop
  endfacet
  facet normal 0 1 0
    outer loop
      vertex 40.5 6 40
      vertex 37 6 37
      vertex 32 6 40
    endloop
  endfacet
  facet normal 0 1 -0
    outer loop
      vertex 37 6 12
      vertex 32 6 40
      vertex 37 6 37
    endloop
  endfacet
  facet normal 0 1 0
    outer loop
      vertex 37 6 12
      vertex 32 6 3.1
      vertex 32 6 40
    endloop
  endfacet
  facet normal 0 1 0
    outer loop
      vertex 32 6 3.1
      vertex 37 6 12
      vertex 54.5 6 3.1
    endloop
  endfacet
  facet normal 1 -0 0
    outer loop
      vertex 37 2 37
      vertex 37 6 12
      vertex 37 6 37
    endloop
  endfacet
  facet normal 1 0 0
    outer loop
      vertex 37 6 12
      vertex 37 2 37
      vertex 37 2 12
    endloop
  endfacet
  facet normal 0 0 -1
    outer loop
      vertex 37 2 37
      vertex 40.5 6 37
      vertex 40.5 2 37
    endloop
  endfacet
  facet normal -0 0 -1
    outer loop
      vertex 40.5 6 37
      vertex 37 2 37
      vertex 37 6 37
    endloop
  endfacet
  facet normal 0 0 -1
    outer loop
      vertex 46.5 2 37
      vertex 50.5 6 37
      vertex 50.5 2 37
    endloop
  endfacet
  facet normal -0 0 -1
    outer loop
      vertex 50.5 6 37
      vertex 46.5 2 37
      vertex 46.5 6 37
    endloop
  endfacet
  facet normal -1 0 0
    outer loop
      vertex 50.5 2 12
      vertex 50.5 6 37
      vertex 50.5 6 12
    endloop
  endfacet
  facet normal -1 -0 0
    outer loop
      vertex 50.5 6 37
      vertex 50.5 2 12
      vertex 50.5 2 37
    endloop
  endfacet
  facet normal -0 0 1
    outer loop
      vertex 37 6 12
      vertex 50.5 2 12
      vertex 50.5 6 12
    endloop
  endfacet
  facet normal 0 0 1
    outer loop
      vertex 50.5 2 12
      vertex 37 6 12
      vertex 37 2 12
    endloop
  endfacet
  facet normal 1 -0 0
    outer loop
      vertex 40.5 2 40
      vertex 40.5 6 37
      vertex 40.5 6 40
    endloop
  endfacet
  facet normal 1 0 0
    outer loop
      vertex 40.5 6 37
      vertex 40.5 2 40
      vertex 40.5 2 37
    endloop
  endfacet
  facet normal -1 0 0
    outer loop
      vertex 46.5 2 37
      vertex 46.5 6 40
      vertex 46.5 6 37
    endloop
  endfacet
  facet normal -1 -0 0
    outer loop
      vertex 46.5 6 40
      vertex 46.5 2 37
      vertex 46.5 2 40
    endloop
  endfacet
  facet normal -1 0 0
    outer loop
      vertex 32 46 3.1
      vertex 32 50 40
      vertex 32 50 3.1
    endloop
  endfacet
  facet normal -1 -0 0
    outer loop
      vertex 32 50 40
      vertex 32 46 3.1
      vertex 32 46 40
    endloop
  endfacet
  facet normal -0 0 1
    outer loop
      vertex 32 50 40
      vertex 40.5 46 40
      vertex 40.5 50 40
    endloop
  endfacet
  facet normal 0 0 1
    outer loop
      vertex 40.5 46 40
      vertex 32 50 40
      vertex 32 46 40
    endloop
  endfacet
  facet normal -0 0 1
    outer loop
      vertex 46.5 50 40
      vertex 54.5 46 40
      vertex 54.5 50 40
    endloop
  endfacet
  facet normal 0 0 1
    outer loop
      vertex 54.5 46 40
      vertex 46.5 50 40
      vertex 46.5 46 40
    endloop
  endfacet
  facet normal 1 -0 0
    outer loop
      vertex 54.5 46 40
      vertex 54.5 50 3.1
      vertex 54.5 50 40
    endloop
  endfacet
  facet normal 1 0 0
    outer loop
      vertex 54.5 50 3.1
      vertex 54.5 46 40
      vertex 54.5 46 3.1
    endloop
  endfacet
  facet normal 0 -1 0
    outer loop
      vertex 32 46 40
      vertex 37 46 37
      vertex 40.5 46 40
    endloop
  endfacet
  facet normal 0 -1 0
    outer loop
      vertex 32 46 40
      vertex 37 46 12
      vertex 37 46 37
    endloop
  endfacet
  facet normal 0 -1 0
    outer loop
      vertex 54.5 46 3.1
      vertex 37 46 12
      vertex 32 46 3.1
    endloop
  endfacet
  facet normal 0 -1 0
    outer loop
      vertex 32 46 3.1
      vertex 37 46 12
      vertex 32 46 40
    endloop
  endfacet
  facet normal 0 -1 -0
    outer loop
      vertex 40.5 46 40
      vertex 37 46 37
      vertex 40.5 46 37
    endloop
  endfacet
  facet normal 0 -1 0
    outer loop
      vertex 50.5 46 37
      vertex 46.5 46 40
      vertex 46.5 46 37
    endloop
  endfacet
  facet normal 0 -1 0
    outer loop
      vertex 46.5 46 40
      vertex 50.5 46 37
      vertex 54.5 46 40
    endloop
  endfacet
  facet normal 0 -1 0
    outer loop
      vertex 50.5 46 12
      vertex 54.5 46 40
      vertex 50.5 46 37
    endloop
  endfacet
  facet normal 0 -1 0
    outer loop
      vertex 50.5 46 12
      vertex 54.5 46 3.1
      vertex 54.5 46 40
    endloop
  endfacet
  facet normal 0 -1 0
    outer loop
      vertex 37 46 12
      vertex 54.5 46 3.1
      vertex 50.5 46 12
    endloop
  endfacet
  facet normal 0 1 0
    outer loop
      vertex 54.5 50 40
      vertex 50.5 50 37
      vertex 46.5 50 40
    endloop
  endfacet
  facet normal 0 1 0
    outer loop
      vertex 54.5 50 40
      vertex 50.5 50 12
      vertex 50.5 50 37
    endloop
  endfacet
  facet normal 0 1 0
    outer loop
      vertex 50.5 50 12
      vertex 54.5 50 3.1
      vertex 37 50 12
    endloop
  endfacet
  facet normal 0 1 -0
    outer loop
      vertex 54.5 50 3.1
      vertex 50.5 50 12
      vertex 54.5 50 40
    endloop
  endfacet
  facet normal 0 1 0
    outer loop
      vertex 46.5 50 40
      vertex 50.5 50 37
      vertex 46.5 50 37
    endloop
  endfacet
  facet normal 0 1 0
    outer loop
      vertex 37 50 37
      vertex 40.5 50 40
      vertex 40.5 50 37
    endloop
  endfacet
  facet normal 0 1 0
    outer loop
      vertex 40.5 50 40
      vertex 37 50 37
      vertex 32 50 40
    endloop
  endfacet
  facet normal 0 1 -0
    outer loop
      vertex 37 50 12
      vertex 32 50 40
      vertex 37 50 37
    endloop
  endfacet
  facet normal 0 1 0
    outer loop
      vertex 37 50 12
      vertex 32 50 3.1
      vertex 32 50 40
    endloop
  endfacet
  facet normal 0 1 0
    outer loop
      vertex 32 50 3.1
      vertex 37 50 12
      vertex 54.5 50 3.1
    endloop
  endfacet
  facet normal 1 -0 0
    outer loop
      vertex 37 46 37
      vertex 37 50 12
      vertex 37 50 37
    endloop
  endfacet
  facet normal 1 0 0
    outer loop
      vertex 37 50 12
      vertex 37 46 37
      vertex 37 46 12
    endloop
  endfacet
  facet normal 0 0 -1
    outer loop
      vertex 37 46 37
      vertex 40.5 50 37
      vertex 40.5 46 37
    endloop
  endfacet
  facet normal -0 0 -1
    outer loop
      vertex 40.5 50 37
      vertex 37 46 37
      vertex 37 50 37
    endloop
  endfacet
  facet normal 0 0 -1
    outer loop
      vertex 46.5 46 37
      vertex 50.5 50 37
      vertex 50.5 46 37
    endloop
  endfacet
  facet normal -0 0 -1
    outer loop
      vertex 50.5 50 37
      vertex 46.5 46 37
      vertex 46.5 50 37
    endloop
  endfacet
  facet normal -1 0 0
    outer loop
      vertex 50.5 46 12
      vertex 50.5 50 37
      vertex 50.5 50 12
    endloop
  endfacet
  facet normal -1 -0 0
    outer loop
      vertex 50.5 50 37
      vertex 50.5 46 12
      vertex 50.5 46 37
    endloop
  endfacet
  facet normal -0 0 1
    outer loop
      vertex 37 50 12
      vertex 50.5 46 12
      vertex 50.5 50 12
    endloop
  endfacet
  facet normal 0 0 1
    outer loop
      vertex 50.5 46 12
      vertex 37 50 12
      vertex 37 46 12
    endloop
  endfacet
  facet normal 1 -0 0
    outer loop
      vertex 40.5 46 40
      vertex 40.5 50 37
      vertex 40.5 50 40
    endloop
  endfacet
  facet normal 1 0 0
    outer loop
      vertex 40.5 50 37
      vertex 40.5 46 40
      vertex 40.5 46 37
    endloop
  endfacet
  facet normal -1 0 0
    outer loop
      vertex 46.5 46 37
      vertex 46.5 50 40
      vertex 46.5 50 37
    endloop
  endfacet
  facet normal -1 -0 0
    outer loop
      vertex 46.5 50 40
      vertex 46.5 46 37
      vertex 46.5 46 40
    endloop
  endfacet
  facet normal -1 0 0
    outer loop
      vertex 32 90 3.1
      vertex 32 94 40
      vertex 32 94 3.1
    endloop
  endfacet
  facet normal -1 -0 0
    outer loop
      vertex 32 94 40
      vertex 32 90 3.1
      vertex 32 90 40
    endloop
  endfacet
  facet normal -0 0 1
    outer loop
      vertex 32 94 40
      vertex 40.5 90 40
      vertex 40.5 94 40
    endloop
  endfacet
  facet normal 0 0 1
    outer loop
      vertex 40.5 90 40
      vertex 32 94 40
      vertex 32 90 40
    endloop
  endfacet
  facet normal -0 0 1
    outer loop
      vertex 46.5 94 40
      vertex 54.5 90 40
      vertex 54.5 94 40
    endloop
  endfacet
  facet normal 0 0 1
    outer loop
      vertex 54.5 90 40
      vertex 46.5 94 40
      vertex 46.5 90 40
    endloop
  endfacet
  facet normal 1 -0 0
    outer loop
      vertex 54.5 90 40
      vertex 54.5 94 3.1
      vertex 54.5 94 40
    endloop
  endfacet
  facet normal 1 0 0
    outer loop
      vertex 54.5 94 3.1
      vertex 54.5 90 40
      vertex 54.5 90 3.1
    endloop
  endfacet
  facet normal 0 -1 0
    outer loop
      vertex 32 90 40
      vertex 37 90 37
      vertex 40.5 90 40
    endloop
  endfacet
  facet normal 0 -1 0
    outer loop
      vertex 32 90 40
      vertex 37 90 12
      vertex 37 90 37
    endloop
  endfacet
  facet normal 0 -1 0
    outer loop
      vertex 54.5 90 3.1
      vertex 37 90 12
      vertex 32 90 3.1
    endloop
  endfacet
  facet normal 0 -1 0
    outer loop
      vertex 32 90 3.1
      vertex 37 90 12
      vertex 32 90 40
    endloop
  endfacet
  facet normal 0 -1 -0
    outer loop
      vertex 40.5 90 40
      vertex 37 90 37
      vertex 40.5 90 37
    endloop
  endfacet
  facet normal 0 -1 0
    outer loop
      vertex 50.5 90 37
      vertex 46.5 90 40
      vertex 46.5 90 37
    endloop
  endfacet
  facet normal 0 -1 0
    outer loop
      vertex 46.5 90 40
      vertex 50.5 90 37
      vertex 54.5 90 40
    endloop
  endfacet
  facet normal 0 -1 0
    outer loop
      vertex 50.5 90 12
      vertex 54.5 90 40
      vertex 50.5 90 37
    endloop
  endfacet
  facet normal 0 -1 0
    outer loop
      vertex 50.5 90 12
      vertex 54.5 90 3.1
      vertex 54.5 90 40
    endloop
  endfacet
  facet normal 0 -1 0
    outer loop
      vertex 37 90 12
      vertex 54.5 90 3.1
      vertex 50.5 90 12
    endloop
  endfacet
  facet normal 0 1 0
    outer loop
      vertex 54.5 94 40
      vertex 50.5 94 37
      vertex 46.5 94 40
    endloop
  endfacet
  facet normal 0 1 0
    outer loop
      vertex 54.5 94 40
      vertex 50.5 94 12
      vertex 50.5 94 37
    endloop
  endfacet
  facet normal 0 1 0
    outer loop
      vertex 50.5 94 12
      vertex 54.5 94 3.1
      vertex 37 94 12
    endloop
  endfacet
  facet normal 0 1 -0
    outer loop
      vertex 54.5 94 3.1
      vertex 50.5 94 12
      vertex 54.5 94 40
    endloop
  endfacet
  facet normal 0 1 0
    outer loop
      vertex 46.5 94 40
      vertex 50.5 94 37
      vertex 46.5 94 37
    endloop
  endfacet
  facet normal 0 1 0
    outer loop
      vertex 37 94 37
      vertex 40.5 94 40
      vertex 40.5 94 37
    endloop
  endfacet
  facet normal 0 1 0
    outer loop
      vertex 40.5 94 40
      vertex 37 94 37
      vertex 32 94 40
    endloop
  endfacet
  facet normal 0 1 -0
    outer loop
      vertex 37 94 12
      vertex 32 94 40
      vertex 37 94 37
    endloop
  endfacet
  facet normal 0 1 0
    outer loop
      vertex 37 94 12
      vertex 32 94 3.1
      vertex 32 94 40
    endloop
  endfacet
  facet normal 0 1 0
    outer loop
      vertex 32 94 3.1
      vertex 37 94 12
      vertex 54.5 94 3.1
    endloop
  endfacet
  facet normal 1 -0 0
    outer loop
      vertex 37 90 37
      vertex 37 94 12
      vertex 37 94 37
    endloop
  endfacet
  facet normal 1 0 0
    outer loop
      vertex 37 94 12
      vertex 37 90 37
      vertex 37 90 12
    endloop
  endfacet
  facet normal 0 0 -1
    outer loop
      vertex 37 90 37
      vertex 40.5 94 37
      vertex 40.5 90 37
    endloop
  endfacet
  facet normal -0 0 -1
    outer loop
      vertex 40.5 94 37
      vertex 37 90 37
      vertex 37 94 37
    endloop
  endfacet
  facet normal 0 0 -1
    outer loop
      vertex 46.5 90 37
      vertex 50.5 94 37
      vertex 50.5 90 37
    endloop
  endfacet
  facet normal -0 0 -1
    outer loop
      vertex 50.5 94 37
      vertex 46.5 90 37
      vertex 46.5 94 37
    endloop
  endfacet
  facet normal -1 0 0
    outer loop
      vertex 50.5 90 12
      vertex 50.5 94 37
      vertex 50.5 94 12
    endloop
  endfacet
  facet normal -1 -0 0
    outer loop
      vertex 50.5 94 37
      vertex 50.5 90 12
      vertex 50.5 90 37
    endloop
  endfacet
  facet normal -0 0 1
    outer loop
      vertex 37 94 12
      vertex 50.5 90 12
      vertex 50.5 94 12
    endloop
  endfacet
  facet normal 0 0 1
    outer loop
      vertex 50.5 90 12
      vertex 37 94 12
      vertex 37 90 12
    endloop
  endfacet
  facet normal 1 -0 0
    outer loop
      vertex 40.5 90 40
      vertex 40.5 94 37
      vertex 40.5 94 40
    endloop
  endfacet
  facet normal 1 0 0
    outer loop
      vertex 40.5 94 37
      vertex 40.5 90 40
      vertex 40.5 90 37
    endloop
  endfacet
  facet normal -1 0 0
    outer loop
      vertex 46.5 90 37
      vertex 46.5 94 40
      vertex 46.5 94 37
    endloop
  endfacet
  facet normal -1 -0 0
    outer loop
      vertex 46.5 94 40
      vertex 46.5 90 37
      vertex 46.5 90 40
    endloop
  endfacet
  facet normal -1 0 0
    outer loop
      vertex 62 2 3.1
      vertex 62 6 40
      vertex 62 6 3.1
    endloop
  endfacet
  facet normal -1 -0 0
    outer loop
      vertex 62 6 40
      vertex 62 2 3.1
      vertex 62 2 40
    endloop
  endfacet
  facet normal -0 0 1
    outer loop
      vertex 62 6 40
      vertex 70.5 2 40
      vertex 70.5 6 40
    endloop
  endfacet
  facet normal 0 0 1
    outer loop
      vertex 70.5 2 40
      vertex 62 6 40
      vertex 62 2 40
    endloop
  endfacet
  facet normal -0 0 1
    outer loop
      vertex 76.5 6 40
      vertex 84.5 2 40
      vertex 84.5 6 40
    endloop
  endfacet
  facet normal 0 0 1
    outer loop
      vertex 84.5 2 40
      vertex 76.5 6 40
      vertex 76.5 2 40
    endloop
  endfacet
  facet normal 1 -0 0
    outer loop
      vertex 84.5 2 40
      vertex 84.5 6 3.1
      vertex 84.5 6 40
    endloop
  endfacet
  facet normal 1 0 0
    outer loop
      vertex 84.5 6 3.1
      vertex 84.5 2 40
      vertex 84.5 2 3.1
    endloop
  endfacet
  facet normal 0 -1 0
    outer loop
      vertex 62 2 40
      vertex 67 2 37
      vertex 70.5 2 40
    endloop
  endfacet
  facet normal 0 -1 0
    outer loop
      vertex 62 2 40
      vertex 67 2 12
      vertex 67 2 37
    endloop
  endfacet
  facet normal 0 -1 0
    outer loop
      vertex 84.5 2 3.1
      vertex 67 2 12
      vertex 62 2 3.1
    endloop
  endfacet
  facet normal 0 -1 0
    outer loop
      vertex 62 2 3.1
      vertex 67 2 12
      vertex 62 2 40
    endloop
  endfacet
  facet normal 0 -1 -0
    outer loop
      vertex 70.5 2 40
      vertex 67 2 37
      vertex 70.5 2 37
    endloop
  endfacet
  facet normal 0 -1 0
    outer loop
      vertex 80.5 2 37
      vertex 76.5 2 40
      vertex 76.5 2 37
    endloop
  endfacet
  facet normal 0 -1 0
    outer loop
      vertex 76.5 2 40
      vertex 80.5 2 37
      vertex 84.5 2 40
    endloop
  endfacet
  facet normal 0 -1 0
    outer loop
      vertex 80.5 2 12
      vertex 84.5 2 40
      vertex 80.5 2 37
    endloop
  endfacet
  facet normal 0 -1 0
    outer loop
      vertex 80.5 2 12
      vertex 84.5 2 3.1
      vertex 84.5 2 40
    endloop
  endfacet
  facet normal 0 -1 0
    outer loop
      vertex 67 2 12
      vertex 84.5 2 3.1
      vertex 80.5 2 12
    endloop
  endfacet
  facet normal 0 1 0
    outer loop
      vertex 84.5 6 40
      vertex 80.5 6 37
      vertex 76.5 6 40
    endloop
  endfacet
  facet normal 0 1 0
    outer loop
      vertex 84.5 6 40
      vertex 80.5 6 12
      vertex 80.5 6 37
    endloop
  endfacet
  facet normal 0 1 0
    outer loop
      vertex 80.5 6 12
      vertex 84.5 6 3.1
      vertex 67 6 12
    endloop
  endfacet
  facet normal 0 1 -0
    outer loop
      vertex 84.5 6 3.1
      vertex 80.5 6 12
      vertex 84.5 6 40
    endloop
  endfacet
  facet normal 0 1 0
    outer loop
      vertex 76.5 6 40
      vertex 80.5 6 37
      vertex 76.5 6 37
    endloop
  endfacet
  facet normal 0 1 0
    outer loop
      vertex 67 6 37
      vertex 70.5 6 40
      vertex 70.5 6 37
    endloop
  endfacet
  facet normal 0 1 0
    outer loop
      vertex 70.5 6 40
      vertex 67 6 37
      vertex 62 6 40
    endloop
  endfacet
  facet normal 0 1 -0
    outer loop
      vertex 67 6 12
      vertex 62 6 40
      vertex 67 6 37
    endloop
  endfacet
  facet normal 0 1 0
    outer loop
      vertex 67 6 12
      vertex 62 6 3.1
      vertex 62 6 40
    endloop
  endfacet
  facet normal 0 1 0
    outer loop
      vertex 62 6 3.1
      vertex 67 6 12
      vertex 84.5 6 3.1
    endloop
  endfacet
  facet normal 1 -0 0
    outer loop
      vertex 67 2 37
      vertex 67 6 12
      vertex 67 6 37
    endloop
  endfacet
  facet normal 1 0 0
    outer loop
      vertex 67 6 12
      vertex 67 2 37
      vertex 67 2 12
    endloop
  endfacet
  facet normal 0 0 -1
    outer loop
      vertex 67 2 37
      vertex 70.5 6 37
      vertex 70.5 2 37
    endloop
  endfacet
  facet normal -0 0 -1
    outer loop
      vertex 70.5 6 37
      vertex 67 2 37
      vertex 67 6 37
    endloop
  endfacet
  facet normal 0 0 -1
    outer loop
      vertex 76.5 2 37
      vertex 80.5 6 37
      vertex 80.5 2 37
    endloop
  endfacet
  facet normal -0 0 -1
    outer loop
      vertex 80.5 6 37
      vertex 76.5 2 37
      vertex 76.5 6 37
    endloop
  endfacet
  facet normal -1 0 0
    outer loop
      vertex 80.5 2 12
      vertex 80.5 6 37
      vertex 80.5 6 12
    endloop
  endfacet
  facet normal -1 -0 0
    outer loop
      vertex 80.5 6 37
      vertex 80.5 2 12
      vertex 80.5 2 37
    endloop
  endfacet
  facet normal -0 0 1
    outer loop
      vertex 67 6 12
      vertex 80.5 2 12
      vertex 80.5 6 12
    endloop
  endfacet
  facet normal 0 0 1
    outer loop
      vertex 80.5 2 12
      vertex 67 6 12
      vertex 67 2 12
    endloop
  endfacet
  facet normal 1 -0 0
    outer loop
      vertex 70.5 2 40
      vertex 70.5 6 37
      vertex 70.5 6 40
    endloop
  endfacet
  facet normal 1 0 0
    outer loop
      vertex 70.5 6 37
      vertex 70.5 2 40
      vertex 70.5 2 37
    endloop
  endfacet
  facet normal -1 0 0
    outer loop
      vertex 76.5 2 37
      vertex 76.5 6 40
      vertex 76.5 6 37
    endloop
  endfacet
  facet normal -1 -0 0
    outer loop
      vertex 76.5 6 40
      vertex 76.5 2 37
      vertex 76.5 2 40
    endloop
  endfacet
  facet normal -1 0 0
    outer loop
      vertex 62 46 3.1
      vertex 62 50 40
      vertex 62 50 3.1
    endloop
  endfacet
  facet normal -1 -0 0
    outer loop
      vertex 62 50 40
      vertex 62 46 3.1
      vertex 62 46 40
    endloop
  endfacet
  facet normal -0 0 1
    outer loop
      vertex 62 50 40
      vertex 70.5 46 40
      vertex 70.5 50 40
    endloop
  endfacet
  facet normal 0 0 1
    outer loop
      vertex 70.5 46 40
      vertex 62 50 40
      vertex 62 46 40
    endloop
  endfacet
  facet normal -0 0 1
    outer loop
      vertex 76.5 50 40
      vertex 84.5 46 40
      vertex 84.5 50 40
    endloop
  endfacet
  facet normal 0 0 1
    outer loop
      vertex 84.5 46 40
      vertex 76.5 50 40
      vertex 76.5 46 40
    endloop
  endfacet
  facet normal 1 -0 0
    outer loop
      vertex 84.5 46 40
      vertex 84.5 50 3.1
      vertex 84.5 50 40
    endloop
  endfacet
  facet normal 1 0 0
    outer loop
      vertex 84.5 50 3.1
      vertex 84.5 46 40
      vertex 84.5 46 3.1
    endloop
  endfacet
  facet normal 0 -1 0
    outer loop
      vertex 62 46 40
      vertex 67 46 37
      vertex 70.5 46 40
    endloop
  endfacet
  facet normal 0 -1 0
    outer loop
      vertex 62 46 40
      vertex 67 46 12
      vertex 67 46 37
    endloop
  endfacet
  facet normal 0 -1 0
    outer loop
      vertex 84.5 46 3.1
      vertex 67 46 12
      vertex 62 46 3.1
    endloop
  endfacet
  facet normal 0 -1 0
    outer loop
      vertex 62 46 3.1
      vertex 67 46 12
      vertex 62 46 40
    endloop
  endfacet
  facet normal 0 -1 -0
    outer loop
      vertex 70.5 46 40
      vertex 67 46 37
      vertex 70.5 46 37
    endloop
  endfacet
  facet normal 0 -1 0
    outer loop
      vertex 80.5 46 37
      vertex 76.5 46 40
      vertex 76.5 46 37
    endloop
  endfacet
  facet normal 0 -1 0
    outer loop
      vertex 76.5 46 40
      vertex 80.5 46 37
      vertex 84.5 46 40
    endloop
  endfacet
  facet normal 0 -1 0
    outer loop
      vertex 80.5 46 12
      vertex 84.5 46 40
      vertex 80.5 46 37
    endloop
  endfacet
  facet normal 0 -1 0
    outer loop
      vertex 80.5 46 12
      vertex 84.5 46 3.1
      vertex 84.5 46 40
    endloop
  endfacet
  facet normal 0 -1 0
    outer loop
      vertex 67 46 12
      vertex 84.5 46 3.1
      vertex 80.5 46 12
    endloop
  endfacet
  facet normal 0 1 0
    outer loop
      vertex 84.5 50 40
      vertex 80.5 50 37
      vertex 76.5 50 40
    endloop
  endfacet
  facet normal 0 1 0
    outer loop
      vertex 84.5 50 40
      vertex 80.5 50 12
      vertex 80.5 50 37
    endloop
  endfacet
  facet normal 0 1 0
    outer loop
      vertex 80.5 50 12
      vertex 84.5 50 3.1
      vertex 67 50 12
    endloop
  endfacet
  facet normal 0 1 -0
    outer loop
      vertex 84.5 50 3.1
      vertex 80.5 50 12
      vertex 84.5 50 40
    endloop
  endfacet
  facet normal 0 1 0
    outer loop
      vertex 76.5 50 40
      vertex 80.5 50 37
      vertex 76.5 50 37
    endloop
  endfacet
  facet normal 0 1 0
    outer loop
      vertex 67 50 37
      vertex 70.5 50 40
      vertex 70.5 50 37
    endloop
  endfacet
  facet normal 0 1 0
    outer loop
      vertex 70.5 50 40
      vertex 67 50 37
      vertex 62 50 40
    endloop
  endfacet
  facet normal 0 1 -0
    outer loop
      vertex 67 50 12
      vertex 62 50 40
      vertex 67 50 37
    endloop
  endfacet
  facet normal 0 1 0
    outer loop
      vertex 67 50 12
      vertex 62 50 3.1
      vertex 62 50 40
    endloop
  endfacet
  facet normal 0 1 0
    outer loop
      vertex 62 50 3.1
      vertex 67 50 12
      vertex 84.5 50 3.1
    endloop
  endfacet
  facet normal 1 -0 0
    outer loop
      vertex 67 46 37
      vertex 67 50 12
      vertex 67 50 37
    endloop
  endfacet
  facet normal 1 0 0
    outer loop
      vertex 67 50 12
      vertex 67 46 37
      vertex 67 46 12
    endloop
  endfacet
  facet normal 0 0 -1
    outer loop
      vertex 67 46 37
      vertex 70.5 50 37
      vertex 70.5 46 37
    endloop
  endfacet
  facet normal -0 0 -1
    outer loop
      vertex 70.5 50 37
      vertex 67 46 37
      vertex 67 50 37
    endloop
  endfacet
  facet normal 0 0 -1
    outer loop
      vertex 76.5 46 37
      vertex 80.5 50 37
      vertex 80.5 46 37
    endloop
  endfacet
  facet normal -0 0 -1
    outer loop
      vertex 80.5 50 37
      vertex 76.5 46 37
      vertex 76.5 50 37
    endloop
  endfacet
  facet normal -1 0 0
    outer loop
      vertex 80.5 46 12
      vertex 80.5 50 37
      vertex 80.5 50 12
    endloop
  endfacet
  facet normal -1 -0 0
    outer loop
      vertex 80.5 50 37
      vertex 80.5 46 12
      vertex 80.5 46 37
    endloop
  endfacet
  facet normal -0 0 1
    outer loop
      vertex 67 50 12
      vertex 80.5 46 12
      vertex 80.5 50 12
    endloop
  endfacet
  facet normal 0 0 1
    outer loop
      vertex 80.5 46 12
      vertex 67 50 12
      vertex 67 46 12
    endloop
  endfacet
  facet normal 1 -0 0
    outer loop
      vertex 70.5 46 40
      vertex 70.5 50 37
      vertex 70.5 50 40
    endloop
  endfacet
  facet normal 1 0 0
    outer loop
      vertex 70.5 50 37
      vertex 70.5 46 40
      vertex 70.5 46 37
    endloop
  endfacet
  facet normal -1 0 0
    outer loop
      vertex 76.5 46 37
      vertex 76.5 50 40
      vertex 76.5 50 37
    endloop
  endfacet
  facet normal -1 -0 0
    outer loop
      vertex 76.5 50 40
      vertex 76.5 46 37
      vertex 76.5 46 40
    endloop
  endfacet
  facet normal -1 0 0
    outer loop
      vertex 62 90 3.1
      vertex 62 94 40
      vertex 62 94 3.1
    endloop
  endfacet
  facet normal -1 -0 0
    outer loop
      vertex 62 94 40
      vertex 62 90 3.1
      vertex 62 90 40
    endloop
  endfacet
  facet normal -0 0 1
    outer loop
      vertex 62 94 40
      vertex 70.5 90 40
      vertex 70.5 94 40
    endloop
  endfacet
  facet normal 0 0 1
    outer loop
      vertex 70.5 90 40
      vertex 62 94 40
      vertex 62 90 40
    endloop
  endfacet
  facet normal -0 0 1
    outer loop
      vertex 76.5 94 40
      vertex 84.5 90 40
      vertex 84.5 94 40
    endloop
  endfacet
  facet normal 0 0 1
    outer loop
      vertex 84.5 90 40
      vertex 76.5 94 40
      vertex 76.5 90 40
    endloop
  endfacet
  facet normal 1 -0 0
    outer loop
      vertex 84.5 90 40
      vertex 84.5 94 3.1
      vertex 84.5 94 40
    endloop
  endfacet
  facet normal 1 0 0
    outer loop
      vertex 84.5 94 3.1
      vertex 84.5 90 40
      vertex 84.5 90 3.1
    endloop
  endfacet
  facet normal 0 -1 0
    outer loop
      vertex 62 90 40
      vertex 67 90 37
      vertex 70.5 90 40
    endloop
  endfacet
  facet normal 0 -1 0
    outer loop
      vertex 62 90 40
      vertex 67 90 12
      vertex 67 90 37
    endloop
  endfacet
  facet normal 0 -1 0
    outer loop
      vertex 84.5 90 3.1
      vertex 67 90 12
      vertex 62 90 3.1
    endloop
  endfacet
  facet normal 0 -1 0
    outer loop
      vertex 62 90 3.1
      vertex 67 90 12
      vertex 62 90 40
    endloop
  endfacet
  facet normal 0 -1 -0
    outer loop
      vertex 70.5 90 40
      vertex 67 90 37
      vertex 70.5 90 37
    endloop
  endfacet
  facet normal 0 -1 0
    outer loop
      vertex 80.5 90 37
      vertex 76.5 90 40
      vertex 76.5 90 37
    endloop
  endfacet
  facet normal 0 -1 0
    outer loop
      vertex 76.5 90 40
      vertex 80.5 90 37
      vertex 84.5 90 40
    endloop
  endfacet
  facet normal 0 -1 0
    outer loop
      vertex 80.5 90 12
      vertex 84.5 90 40
      vertex 80.5 90 37
    endloop
  endfacet
  facet normal 0 -1 0
    outer loop
      vertex 80.5 90 12
      vertex 84.5 90 3.1
      vertex 84.5 90 40
    endloop
  endfacet
  facet normal 0 -1 0
    outer loop
      vertex 67 90 12
      vertex 84.5 90 3.1
      vertex 80.5 90 12
    endloop
  endfacet
  facet normal 0 1 0
    outer loop
      vertex 84.5 94 40
      vertex 80.5 94 37
      vertex 76.5 94 40
    endloop
  endfacet
  facet normal 0 1 0
    outer loop
      vertex 84.5 94 40
      vertex 80.5 94 12
      vertex 80.5 94 37
    endloop
  endfacet
  facet normal 0 1 0
    outer loop
      vertex 80.5 94 12
      vertex 84.5 94 3.1
      vertex 67 94 12
    endloop
  endfacet
  facet normal 0 1 -0
    outer loop
      vertex 84.5 94 3.1
      vertex 80.5 94 12
      vertex 84.5 94 40
    endloop
  endfacet
  facet normal 0 1 0
    outer loop
      vertex 76.5 94 40
      vertex 80.5 94 37
      vertex 76.5 94 37
    endloop
  endfacet
  facet normal 0 1 0
    outer loop
      vertex 67 94 37
      vertex 70.5 94 40
      vertex 70.5 94 37
    endloop
  endfacet
  facet normal 0 1 0
    outer loop
      vertex 70.5 94 40
      vertex 67 94 37
      vertex 62 94 40
    endloop
  endfacet
  facet normal 0 1 -0
    outer loop
      vertex 67 94 12
      vertex 62 94 40
      vertex 67 94 37
    endloop
  endfacet
  facet normal 0 1 0
    outer loop
      vertex 67 94 12
      vertex 62 94 3.1
      vertex 62 94 40
    endloop
  endfacet
  facet normal 0 1 0
    outer loop
      vertex 62 94 3.1
      vertex 67 94 12
      vertex 84.5 94 3.1
    endloop
  endfacet
  facet normal 1 -0 0
    outer loop
      vertex 67 90 37
      vertex 67 94 12
      vertex 67 94 37
    endloop
  endfacet
  facet normal 1 0 0
    outer loop
      vertex 67 94 12
      vertex 67 90 37
      vertex 67 90 12
    endloop
  endfacet
  facet normal 0 0 -1
    outer loop
      vertex 67 90 37
      vertex 70.5 94 37
      vertex 70.5 90 37
    endloop
  endfacet
  facet normal -0 0 -1
    outer loop
      vertex 70.5 94 37
      vertex 67 90 37
      vertex 67 94 37
    endloop
  endfacet
  facet normal 0 0 -1
    outer loop
      vertex 76.5 90 37
      vertex 80.5 94 37
      vertex 80.5 90 37
    endloop
  endfacet
  facet normal -0 0 -1
    outer loop
      vertex 80.5 94 37
      vertex 76.5 90 37
      vertex 76.5 94 37
    endloop
  endfacet
  facet normal -1 0 0
    outer loop
      vertex 80.5 90 12
      vertex 80.5 94 37
      vertex 80.5 94 12
    endloop
  endfacet
  facet normal -1 -0 0
    outer loop
      vertex 80.5 94 37
      vertex 80.5 90 12
      vertex 80.5 90 37
    endloop
  endfacet
  facet normal -0 0 1
    outer loop
      vertex 67 94 12
      vertex 80.5 90 12
      vertex 80.5 94 12
    endloop
  endfacet
  facet normal 0 0 1
    outer loop
      vertex 80.5 90 12
      vertex 67 94 12
      vertex 67 90 12
    endloop
  endfacet
  facet normal 1 -0 0
    outer loop
      vertex 70.5 90 40
      vertex 70.5 94 37
      vertex 70.5 94 40
    endloop
  endfacet
  facet normal 1 0 0
    outer loop
      vertex 70.5 94 37
      vertex 70.5 90 40
      vertex 70.5 90 37
    endloop
  endfacet
  facet normal -1 0 0
    outer loop
      vertex 76.5 90 37
      vertex 76.5 94 40
      vertex 76.5 94 37
    endloop
  endfacet
  facet normal -1 -0 0
    outer loop
      vertex 76.5 94 40
      vertex 76.5 90 37
      vertex 76.5 90 40
    endloop
  endfacet
  facet normal -1 0 0
    outer loop
      vertex 0 0 0
      vertex 0 100 3.1
      vertex 0 100 0
    endloop
  endfacet
  facet normal -1 -0 0
    outer loop
      vertex 0 100 3.1
      vertex 0 0 0
      vertex 0 0 3.1
    endloop
  endfacet
  facet normal -0 0 1
    outer loop
      vertex 2 46 3.1
      vertex 24.5 6 3.1
      vertex 24.5 46 3.1
    endloop
  endfacet
  facet normal 0 0 1
    outer loop
      vertex 24.5 6 3.1
      vertex 2 46 3.1
      vertex 2 6 3.1
    endloop
  endfacet
  facet normal -0 0 1
    outer loop
      vertex 2 90 3.1
      vertex 24.5 50 3.1
      vertex 24.5 90 3.1
    endloop
  endfacet
  facet normal 0 0 1
    outer loop
      vertex 24.5 50 3.1
      vertex 2 90 3.1
      vertex 2 50 3.1
    endloop
  endfacet
  facet normal -0 0 1
    outer loop
      vertex 32 46 3.1
      vertex 54.5 6 3.1
      vertex 54.5 46 3.1
    endloop
  endfacet
  facet normal 0 0 1
    outer loop
      vertex 54.5 6 3.1
      vertex 32 46 3.1
      vertex 32 6 3.1
    endloop
  endfacet
  facet normal -0 0 1
    outer loop
      vertex 32 90 3.1
      vertex 54.5 50 3.1
      vertex 54.5 90 3.1
    endloop
  endfacet
  facet normal 0 0 1
    outer loop
      vertex 54.5 50 3.1
      vertex 32 90 3.1
      vertex 32 50 3.1
    endloop
  endfacet
  facet normal -0 0 1
    outer loop
      vertex 62 46 3.1
      vertex 84.5 6 3.1
      vertex 84.5 46 3.1
    endloop
  endfacet
  facet normal 0 0 1
    outer loop
      vertex 84.5 6 3.1
      vertex 62 46 3.1
      vertex 62 6 3.1
    endloop
  endfacet
  facet normal -0 0 1
    outer loop
      vertex 62 90 3.1
      vertex 84.5 50 3.1
      vertex 84.5 90 3.1
    endloop
  endfacet
  facet normal 0 0 1
    outer loop
      vertex 84.5 50 3.1
      vertex 62 90 3.1
      vertex 62 50 3.1
    endloop
  endfacet
  facet normal 0 0 1
    outer loop
      vertex 84.5 90 3.1
      vertex 87.5 100 3.1
      vertex 84.5 94 3.1
    endloop
  endfacet
  facet normal 0 0 1
    outer loop
      vertex 87.5 100 3.1
      vertex 62 94 3.1
      vertex 84.5 94 3.1
    endloop
  endfacet
  facet normal 0 0 1
    outer loop
      vertex 54.5 90 3.1
      vertex 62 90 3.1
      vertex 62 94 3.1
    endloop
  endfacet
  facet normal 0 0 1
    outer loop
      vertex 62 90 3.1
      vertex 54.5 90 3.1
      vertex 62 50 3.1
    endloop
  endfacet
  facet normal 0 0 1
    outer loop
      vertex 62 50 3.1
      vertex 54.5 50 3.1
      vertex 62 46 3.1
    endloop
  endfacet
  facet normal 0 0 1
    outer loop
      vertex 54.5 46 3.1
      vertex 62 46 3.1
      vertex 54.5 50 3.1
    endloop
  endfacet
  facet normal 0 0 1
    outer loop
      vertex 54.5 90 3.1
      vertex 62 94 3.1
      vertex 54.5 94 3.1
    endloop
  endfacet
  facet normal 0 0 1
    outer loop
      vertex 87.5 100 3.1
      vertex 54.5 94 3.1
      vertex 62 94 3.1
    endloop
  endfacet
  facet normal 0 0 1
    outer loop
      vertex 87.5 100 3.1
      vertex 32 94 3.1
      vertex 54.5 94 3.1
    endloop
  endfacet
  facet normal 0 0 1
    outer loop
      vertex 24.5 90 3.1
      vertex 32 90 3.1
      vertex 32 94 3.1
    endloop
  endfacet
  facet normal 0 0 1
    outer loop
      vertex 32 90 3.1
      vertex 24.5 90 3.1
      vertex 32 50 3.1
    endloop
  endfacet
  facet normal 0 0 1
    outer loop
      vertex 32 50 3.1
      vertex 24.5 50 3.1
      vertex 32 46 3.1
    endloop
  endfacet
  facet normal 0 0 1
    outer loop
      vertex 24.5 46 3.1
      vertex 32 46 3.1
      vertex 24.5 50 3.1
    endloop
  endfacet
  facet normal 0 0 1
    outer loop
      vertex 24.5 90 3.1
      vertex 32 94 3.1
      vertex 24.5 94 3.1
    endloop
  endfacet
  facet normal -0 0 1
    outer loop
      vertex 0 100 3.1
      vertex 32 94 3.1
      vertex 87.5 100 3.1
    endloop
  endfacet
  facet normal 0 0 1
    outer loop
      vertex 32 94 3.1
      vertex 0 100 3.1
      vertex 24.5 94 3.1
    endloop
  endfacet
  facet normal 0 0 1
    outer loop
      vertex 0 100 3.1
      vertex 2 90 3.1
      vertex 2 94 3.1
    endloop
  endfacet
  facet normal 0 0 1
    outer loop
      vertex 2 90 3.1
      vertex 0 100 3.1
      vertex 2 50 3.1
    endloop
  endfacet
  facet normal 0 0 1
    outer loop
      vertex 2 50 3.1
      vertex 0 100 3.1
      vertex 2 46 3.1
    endloop
  endfacet
  facet normal 0 0 1
    outer loop
      vertex 2 46 3.1
      vertex 0 0 3.1
      vertex 2 6 3.1
    endloop
  endfacet
  facet normal 0 0 1
    outer loop
      vertex 2 46 3.1
      vertex 0 100 3.1
      vertex 0 0 3.1
    endloop
  endfacet
  facet normal 0 0 1
    outer loop
      vertex 24.5 94 3.1
      vertex 0 100 3.1
      vertex 2 94 3.1
    endloop
  endfacet
  facet normal 0 0 1
    outer loop
      vertex 84.5 50 3.1
      vertex 87.5 100 3.1
      vertex 84.5 90 3.1
    endloop
  endfacet
  facet normal 0 0 1
    outer loop
      vertex 87.5 100 3.1
      vertex 84.5 50 3.1
      vertex 87.5 0 3.1
    endloop
  endfacet
  facet normal -0 0 1
    outer loop
      vertex 84.5 46 3.1
      vertex 87.5 0 3.1
      vertex 84.5 50 3.1
    endloop
  endfacet
  facet normal -0 0 1
    outer loop
      vertex 84.5 6 3.1
      vertex 87.5 0 3.1
      vertex 84.5 46 3.1
    endloop
  endfacet
  facet normal -0 0 1
    outer loop
      vertex 84.5 2 3.1
      vertex 87.5 0 3.1
      vertex 84.5 6 3.1
    endloop
  endfacet
  facet normal -0 0 1
    outer loop
      vertex 62 2 3.1
      vertex 87.5 0 3.1
      vertex 84.5 2 3.1
    endloop
  endfacet
  facet normal 0 0 1
    outer loop
      vertex 62 50 3.1
      vertex 54.5 90 3.1
      vertex 54.5 50 3.1
    endloop
  endfacet
  facet normal 0 0 1
    outer loop
      vertex 62 46 3.1
      vertex 54.5 46 3.1
      vertex 62 6 3.1
    endloop
  endfacet
  facet normal 0 0 1
    outer loop
      vertex 54.5 6 3.1
      vertex 62 6 3.1
      vertex 54.5 46 3.1
    endloop
  endfacet
  facet normal 0 0 1
    outer loop
      vertex 62 6 3.1
      vertex 54.5 6 3.1
      vertex 62 2 3.1
    endloop
  endfacet
  facet normal 0 0 1
    outer loop
      vertex 54.5 2 3.1
      vertex 62 2 3.1
      vertex 54.5 6 3.1
    endloop
  endfacet
  facet normal -0 0 1
    outer loop
      vertex 54.5 2 3.1
      vertex 87.5 0 3.1
      vertex 62 2 3.1
    endloop
  endfacet
  facet normal -0 0 1
    outer loop
      vertex 32 2 3.1
      vertex 87.5 0 3.1
      vertex 54.5 2 3.1
    endloop
  endfacet
  facet normal 0 0 1
    outer loop
      vertex 32 50 3.1
      vertex 24.5 90 3.1
      vertex 24.5 50 3.1
    endloop
  endfacet
  facet normal 0 0 1
    outer loop
      vertex 32 46 3.1
      vertex 24.5 46 3.1
      vertex 32 6 3.1
    endloop
  endfacet
  facet normal 0 0 1
    outer loop
      vertex 24.5 6 3.1
      vertex 32 6 3.1
      vertex 24.5 46 3.1
    endloop
  endfacet
  facet normal 0 0 1
    outer loop
      vertex 32 6 3.1
      vertex 24.5 6 3.1
      vertex 32 2 3.1
    endloop
  endfacet
  facet normal 0 0 1
    outer loop
      vertex 24.5 2 3.1
      vertex 32 2 3.1
      vertex 24.5 6 3.1
    endloop
  endfacet
  facet normal 0 0 1
    outer loop
      vertex 0 0 3.1
      vertex 32 2 3.1
      vertex 24.5 2 3.1
    endloop
  endfacet
  facet normal 0 0 1
    outer loop
      vertex 0 0 3.1
      vertex 24.5 2 3.1
      vertex 2 2 3.1
    endloop
  endfacet
  facet normal 0 0 1
    outer loop
      vertex 32 2 3.1
      vertex 0 0 3.1
      vertex 87.5 0 3.1
    endloop
  endfacet
  facet normal 0 0 1
    outer loop
      vertex 2 6 3.1
      vertex 0 0 3.1
      vertex 2 2 3.1
    endloop
  endfacet
  facet normal 1 -0 0
    outer loop
      vertex 87.5 0 3.1
      vertex 87.5 100 0
      vertex 87.5 100 3.1
    endloop
  endfacet
  facet normal 1 0 0
    outer loop
      vertex 87.5 100 0
      vertex 87.5 0 3.1
      vertex 87.5 0 0
    endloop
  endfacet
  facet normal 0 1 -0
    outer loop
      vertex 87.5 100 0
      vertex 0 100 3.1
      vertex 87.5 100 3.1
    endloop
  endfacet
  facet normal 0 1 0
    outer loop
      vertex 0 100 3.1
      vertex 87.5 100 0
      vertex 0 100 0
    endloop
  endfacet
  facet normal 0 0 -1
    outer loop
      vertex 0 0 0
      vertex 87.5 100 0
      vertex 87.5 0 0
    endloop
  endfacet
  facet normal -0 0 -1
    outer loop
      vertex 87.5 100 0
      vertex 0 0 0
      vertex 0 100 0
    endloop
  endfacet
  facet normal 0 -1 0
    outer loop
      vertex 0 0 0
      vertex 87.5 0 3.1
      vertex 0 0 3.1
    endloop
  endfacet
  facet normal 0 -1 -0
    outer loop
      vertex 87.5 0 3.1
      vertex 0 0 0
      vertex 87.5 0 0
    endloop
  endfacet
endsolid OpenSCAD_Model
