solid OpenSCAD_Model
  facet normal -1 0 0
    outer loop
      vertex 2 58 3
      vertex 2 86.8 18.5
      vertex 2 86.8 3
    endloop
  endfacet
  facet normal -1 -0 0
    outer loop
      vertex 2 86.8 18.5
      vertex 2 58 3
      vertex 2 58 18.5
    endloop
  endfacet
  facet normal 0 0 1
    outer loop
      vertex 20.5 86.8 18.5
      vertex 18.2 84.25 18.5
      vertex 20.5 58 18.5
    endloop
  endfacet
  facet normal -0 0 1
    outer loop
      vertex 2 86.8 18.5
      vertex 18.2 84.25 18.5
      vertex 20.5 86.8 18.5
    endloop
  endfacet
  facet normal 0 0 1
    outer loop
      vertex 2 58 18.5
      vertex 4.2 84.25 18.5
      vertex 2 86.8 18.5
    endloop
  endfacet
  facet normal 0 0 1
    outer loop
      vertex 18.2 84.25 18.5
      vertex 2 86.8 18.5
      vertex 4.2 84.25 18.5
    endloop
  endfacet
  facet normal -0 0 1
    outer loop
      vertex 18.2 60 18.5
      vertex 20.5 58 18.5
      vertex 18.2 84.25 18.5
    endloop
  endfacet
  facet normal 0 0 1
    outer loop
      vertex 13.25 58 18.5
      vertex 18.2 60 18.5
      vertex 13.25 60 18.5
    endloop
  endfacet
  facet normal 0 0 1
    outer loop
      vertex 18.2 60 18.5
      vertex 13.25 58 18.5
      vertex 20.5 58 18.5
    endloop
  endfacet
  facet normal -0 0 1
    outer loop
      vertex 4.2 60 18.5
      vertex 9.25 58 18.5
      vertex 9.25 60 18.5
    endloop
  endfacet
  facet normal 0 0 1
    outer loop
      vertex 4.2 60 18.5
      vertex 2 58 18.5
      vertex 9.25 58 18.5
    endloop
  endfacet
  facet normal 0 0 1
    outer loop
      vertex 4.2 84.25 18.5
      vertex 2 58 18.5
      vertex 4.2 60 18.5
    endloop
  endfacet
  facet normal 1 -0 0
    outer loop
      vertex 20.5 58 18.5
      vertex 20.5 86.8 3
      vertex 20.5 86.8 18.5
    endloop
  endfacet
  facet normal 1 0 0
    outer loop
      vertex 20.5 86.8 3
      vertex 20.5 58 18.5
      vertex 20.5 58 3
    endloop
  endfacet
  facet normal 0 1 -0
    outer loop
      vertex 20.5 86.8 3
      vertex 2 86.8 18.5
      vertex 20.5 86.8 18.5
    endloop
  endfacet
  facet normal 0 1 0
    outer loop
      vertex 2 86.8 18.5
      vertex 20.5 86.8 3
      vertex 2 86.8 3
    endloop
  endfacet
  facet normal -0 0 1
    outer loop
      vertex 184.3 30 3
      vertex 198.3 5.75 3
      vertex 198.3 30 3
    endloop
  endfacet
  facet normal 0 0 1
    outer loop
      vertex 198.3 5.75 3
      vertex 184.3 30 3
      vertex 184.3 5.75 3
    endloop
  endfacet
  facet normal -0 0 1
    outer loop
      vertex 139.3 30 3
      vertex 153.3 5.75 3
      vertex 153.3 30 3
    endloop
  endfacet
  facet normal 0 0 1
    outer loop
      vertex 153.3 5.75 3
      vertex 139.3 30 3
      vertex 139.3 5.75 3
    endloop
  endfacet
  facet normal -0 0 1
    outer loop
      vertex 94.3 30 3
      vertex 108.3 5.75 3
      vertex 108.3 30 3
    endloop
  endfacet
  facet normal 0 0 1
    outer loop
      vertex 108.3 5.75 3
      vertex 94.3 30 3
      vertex 94.3 5.75 3
    endloop
  endfacet
  facet normal -0 0 1
    outer loop
      vertex 49.3 30 3
      vertex 63.3 5.75 3
      vertex 63.3 30 3
    endloop
  endfacet
  facet normal 0 0 1
    outer loop
      vertex 63.3 5.75 3
      vertex 49.3 30 3
      vertex 49.3 5.75 3
    endloop
  endfacet
  facet normal -0 0 1
    outer loop
      vertex 4.3 30 3
      vertex 18.3 5.75 3
      vertex 18.3 30 3
    endloop
  endfacet
  facet normal 0 0 1
    outer loop
      vertex 18.3 5.75 3
      vertex 4.3 30 3
      vertex 4.3 5.75 3
    endloop
  endfacet
  facet normal -0 0 1
    outer loop
      vertex 184.2 84.25 3
      vertex 198.2 60 3
      vertex 198.2 84.25 3
    endloop
  endfacet
  facet normal 0 0 1
    outer loop
      vertex 198.2 60 3
      vertex 184.2 84.25 3
      vertex 184.2 60 3
    endloop
  endfacet
  facet normal -0 0 1
    outer loop
      vertex 139.2 84.25 3
      vertex 153.2 60 3
      vertex 153.2 84.25 3
    endloop
  endfacet
  facet normal 0 0 1
    outer loop
      vertex 153.2 60 3
      vertex 139.2 84.25 3
      vertex 139.2 60 3
    endloop
  endfacet
  facet normal -0 0 1
    outer loop
      vertex 94.2 84.25 3
      vertex 108.2 60 3
      vertex 108.2 84.25 3
    endloop
  endfacet
  facet normal 0 0 1
    outer loop
      vertex 108.2 60 3
      vertex 94.2 84.25 3
      vertex 94.2 60 3
    endloop
  endfacet
  facet normal -0 0 1
    outer loop
      vertex 49.2 84.25 3
      vertex 63.2 60 3
      vertex 63.2 84.25 3
    endloop
  endfacet
  facet normal 0 0 1
    outer loop
      vertex 63.2 60 3
      vertex 49.2 84.25 3
      vertex 49.2 60 3
    endloop
  endfacet
  facet normal -0 0 1
    outer loop
      vertex 4.2 84.25 3
      vertex 18.2 60 3
      vertex 18.2 84.25 3
    endloop
  endfacet
  facet normal 0 0 1
    outer loop
      vertex 18.2 60 3
      vertex 4.2 84.25 3
      vertex 4.2 60 3
    endloop
  endfacet
  facet normal -0 0 1
    outer loop
      vertex 2 58 3
      vertex 20.5 32 3
      vertex 20.5 58 3
    endloop
  endfacet
  facet normal 0 0 1
    outer loop
      vertex 20.5 32 3
      vertex 2 58 3
      vertex 2 32 3
    endloop
  endfacet
  facet normal -0 0 1
    outer loop
      vertex 47 58 3
      vertex 65.5 32 3
      vertex 65.5 58 3
    endloop
  endfacet
  facet normal 0 0 1
    outer loop
      vertex 65.5 32 3
      vertex 47 58 3
      vertex 47 32 3
    endloop
  endfacet
  facet normal -0 0 1
    outer loop
      vertex 92 58 3
      vertex 110.5 32 3
      vertex 110.5 58 3
    endloop
  endfacet
  facet normal 0 0 1
    outer loop
      vertex 110.5 32 3
      vertex 92 58 3
      vertex 92 32 3
    endloop
  endfacet
  facet normal -0 0 1
    outer loop
      vertex 137 58 3
      vertex 155.5 32 3
      vertex 155.5 58 3
    endloop
  endfacet
  facet normal 0 0 1
    outer loop
      vertex 155.5 32 3
      vertex 137 58 3
      vertex 137 32 3
    endloop
  endfacet
  facet normal -0 0 1
    outer loop
      vertex 182 58 3
      vertex 200.5 32 3
      vertex 200.5 58 3
    endloop
  endfacet
  facet normal 0 0 1
    outer loop
      vertex 200.5 32 3
      vertex 182 58 3
      vertex 182 32 3
    endloop
  endfacet
  facet normal 0 0 1
    outer loop
      vertex 200.5 58 3
      vertex 203 90 3
      vertex 200.5 86.8 3
    endloop
  endfacet
  facet normal 0 0 1
    outer loop
      vertex 203 90 3
      vertex 182 86.8 3
      vertex 200.5 86.8 3
    endloop
  endfacet
  facet normal 0 0 1
    outer loop
      vertex 155.5 58 3
      vertex 182 58 3
      vertex 182 86.8 3
    endloop
  endfacet
  facet normal 0 0 1
    outer loop
      vertex 182 58 3
      vertex 155.5 58 3
      vertex 182 32 3
    endloop
  endfacet
  facet normal 0 0 1
    outer loop
      vertex 155.5 58 3
      vertex 182 86.8 3
      vertex 155.5 86.8 3
    endloop
  endfacet
  facet normal 0 0 1
    outer loop
      vertex 203 90 3
      vertex 155.5 86.8 3
      vertex 182 86.8 3
    endloop
  endfacet
  facet normal 0 0 1
    outer loop
      vertex 203 90 3
      vertex 137 86.8 3
      vertex 155.5 86.8 3
    endloop
  endfacet
  facet normal 0 0 1
    outer loop
      vertex 110.5 58 3
      vertex 137 58 3
      vertex 137 86.8 3
    endloop
  endfacet
  facet normal 0 0 1
    outer loop
      vertex 137 58 3
      vertex 110.5 58 3
      vertex 137 32 3
    endloop
  endfacet
  facet normal 0 0 1
    outer loop
      vertex 110.5 58 3
      vertex 137 86.8 3
      vertex 110.5 86.8 3
    endloop
  endfacet
  facet normal 0 0 1
    outer loop
      vertex 203 90 3
      vertex 110.5 86.8 3
      vertex 137 86.8 3
    endloop
  endfacet
  facet normal 0 0 1
    outer loop
      vertex 203 90 3
      vertex 92 86.8 3
      vertex 110.5 86.8 3
    endloop
  endfacet
  facet normal 0 0 1
    outer loop
      vertex 65.5 58 3
      vertex 92 58 3
      vertex 92 86.8 3
    endloop
  endfacet
  facet normal 0 0 1
    outer loop
      vertex 92 58 3
      vertex 65.5 58 3
      vertex 92 32 3
    endloop
  endfacet
  facet normal 0 0 1
    outer loop
      vertex 65.5 58 3
      vertex 92 86.8 3
      vertex 65.5 86.8 3
    endloop
  endfacet
  facet normal -0 0 1
    outer loop
      vertex 0 90 3
      vertex 92 86.8 3
      vertex 203 90 3
    endloop
  endfacet
  facet normal 0 0 1
    outer loop
      vertex 92 86.8 3
      vertex 0 90 3
      vertex 65.5 86.8 3
    endloop
  endfacet
  facet normal 0 0 1
    outer loop
      vertex 20.5 58 3
      vertex 47 58 3
      vertex 47 86.8 3
    endloop
  endfacet
  facet normal 0 0 1
    outer loop
      vertex 47 58 3
      vertex 20.5 58 3
      vertex 47 32 3
    endloop
  endfacet
  facet normal 0 0 1
    outer loop
      vertex 20.5 58 3
      vertex 47 86.8 3
      vertex 20.5 86.8 3
    endloop
  endfacet
  facet normal 0 0 1
    outer loop
      vertex 65.5 86.8 3
      vertex 0 90 3
      vertex 47 86.8 3
    endloop
  endfacet
  facet normal 0 0 1
    outer loop
      vertex 47 86.8 3
      vertex 0 90 3
      vertex 20.5 86.8 3
    endloop
  endfacet
  facet normal 0 0 1
    outer loop
      vertex 0 90 3
      vertex 2 58 3
      vertex 2 86.8 3
    endloop
  endfacet
  facet normal 0 0 1
    outer loop
      vertex 2 58 3
      vertex 0 90 3
      vertex 2 32 3
    endloop
  endfacet
  facet normal 0 0 1
    outer loop
      vertex 0 0 3
      vertex 2 32 3
      vertex 0 90 3
    endloop
  endfacet
  facet normal 0 0 1
    outer loop
      vertex 20.5 86.8 3
      vertex 0 90 3
      vertex 2 86.8 3
    endloop
  endfacet
  facet normal 0 0 1
    outer loop
      vertex 203 90 3
      vertex 200.5 58 3
      vertex 203 0 3
    endloop
  endfacet
  facet normal -0 0 1
    outer loop
      vertex 200.5 32 3
      vertex 203 0 3
      vertex 200.5 58 3
    endloop
  endfacet
  facet normal -0 0 1
    outer loop
      vertex 200.5 3.2 3
      vertex 203 0 3
      vertex 200.5 32 3
    endloop
  endfacet
  facet normal -0 0 1
    outer loop
      vertex 182 3.2 3
      vertex 203 0 3
      vertex 200.5 3.2 3
    endloop
  endfacet
  facet normal 0 0 1
    outer loop
      vertex 155.5 32 3
      vertex 182 32 3
      vertex 155.5 58 3
    endloop
  endfacet
  facet normal 0 0 1
    outer loop
      vertex 182 32 3
      vertex 155.5 32 3
      vertex 182 3.2 3
    endloop
  endfacet
  facet normal 0 0 1
    outer loop
      vertex 155.5 3.2 3
      vertex 182 3.2 3
      vertex 155.5 32 3
    endloop
  endfacet
  facet normal -0 0 1
    outer loop
      vertex 155.5 3.2 3
      vertex 203 0 3
      vertex 182 3.2 3
    endloop
  endfacet
  facet normal -0 0 1
    outer loop
      vertex 137 3.2 3
      vertex 203 0 3
      vertex 155.5 3.2 3
    endloop
  endfacet
  facet normal 0 0 1
    outer loop
      vertex 110.5 32 3
      vertex 137 32 3
      vertex 110.5 58 3
    endloop
  endfacet
  facet normal 0 0 1
    outer loop
      vertex 137 32 3
      vertex 110.5 32 3
      vertex 137 3.2 3
    endloop
  endfacet
  facet normal 0 0 1
    outer loop
      vertex 110.5 3.2 3
      vertex 137 3.2 3
      vertex 110.5 32 3
    endloop
  endfacet
  facet normal -0 0 1
    outer loop
      vertex 110.5 3.2 3
      vertex 203 0 3
      vertex 137 3.2 3
    endloop
  endfacet
  facet normal -0 0 1
    outer loop
      vertex 92 3.2 3
      vertex 203 0 3
      vertex 110.5 3.2 3
    endloop
  endfacet
  facet normal 0 0 1
    outer loop
      vertex 65.5 32 3
      vertex 92 32 3
      vertex 65.5 58 3
    endloop
  endfacet
  facet normal 0 0 1
    outer loop
      vertex 92 32 3
      vertex 65.5 32 3
      vertex 92 3.2 3
    endloop
  endfacet
  facet normal 0 0 1
    outer loop
      vertex 65.5 3.2 3
      vertex 92 3.2 3
      vertex 65.5 32 3
    endloop
  endfacet
  facet normal 0 0 1
    outer loop
      vertex 0 0 3
      vertex 92 3.2 3
      vertex 65.5 3.2 3
    endloop
  endfacet
  facet normal 0 0 1
    outer loop
      vertex 0 0 3
      vertex 65.5 3.2 3
      vertex 47 3.2 3
    endloop
  endfacet
  facet normal 0 0 1
    outer loop
      vertex 20.5 32 3
      vertex 47 32 3
      vertex 20.5 58 3
    endloop
  endfacet
  facet normal 0 0 1
    outer loop
      vertex 47 32 3
      vertex 20.5 32 3
      vertex 47 3.2 3
    endloop
  endfacet
  facet normal 0 0 1
    outer loop
      vertex 20.5 3.2 3
      vertex 47 3.2 3
      vertex 20.5 32 3
    endloop
  endfacet
  facet normal 0 0 1
    outer loop
      vertex 0 0 3
      vertex 47 3.2 3
      vertex 20.5 3.2 3
    endloop
  endfacet
  facet normal 0 0 1
    outer loop
      vertex 0 0 3
      vertex 20.5 3.2 3
      vertex 2 3.2 3
    endloop
  endfacet
  facet normal 0 0 1
    outer loop
      vertex 92 3.2 3
      vertex 0 0 3
      vertex 203 0 3
    endloop
  endfacet
  facet normal 0 0 1
    outer loop
      vertex 2 32 3
      vertex 0 0 3
      vertex 2 3.2 3
    endloop
  endfacet
  facet normal 0 -1 0
    outer loop
      vertex 2 58 18.5
      vertex 9.25 58 6.5
      vertex 9.25 58 18.5
    endloop
  endfacet
  facet normal 0 -1 -0
    outer loop
      vertex 9.25 58 6.5
      vertex 2 58 3
      vertex 13.25 58 6.5
    endloop
  endfacet
  facet normal 0 -1 0
    outer loop
      vertex 2 58 3
      vertex 9.25 58 6.5
      vertex 2 58 18.5
    endloop
  endfacet
  facet normal 0 -1 0
    outer loop
      vertex 13.25 58 6.5
      vertex 20.5 58 18.5
      vertex 13.25 58 18.5
    endloop
  endfacet
  facet normal 0 -1 0
    outer loop
      vertex 13.25 58 6.5
      vertex 20.5 58 3
      vertex 20.5 58 18.5
    endloop
  endfacet
  facet normal 0 -1 0
    outer loop
      vertex 20.5 58 3
      vertex 13.25 58 6.5
      vertex 2 58 3
    endloop
  endfacet
  facet normal 1 -0 0
    outer loop
      vertex 4.2 60 18.5
      vertex 4.2 84.25 3
      vertex 4.2 84.25 18.5
    endloop
  endfacet
  facet normal 1 0 0
    outer loop
      vertex 4.2 84.25 3
      vertex 4.2 60 18.5
      vertex 4.2 60 3
    endloop
  endfacet
  facet normal -1 0 0
    outer loop
      vertex 18.2 60 3
      vertex 18.2 84.25 18.5
      vertex 18.2 84.25 3
    endloop
  endfacet
  facet normal -1 -0 0
    outer loop
      vertex 18.2 84.25 18.5
      vertex 18.2 60 3
      vertex 18.2 60 18.5
    endloop
  endfacet
  facet normal 0 1 0
    outer loop
      vertex 18.2 60 18.5
      vertex 13.25 60 6.5
      vertex 13.25 60 18.5
    endloop
  endfacet
  facet normal 0 1 0
    outer loop
      vertex 13.25 60 6.5
      vertex 18.2 60 3
      vertex 9.25 60 6.5
    endloop
  endfacet
  facet normal 0 1 -0
    outer loop
      vertex 18.2 60 3
      vertex 13.25 60 6.5
      vertex 18.2 60 18.5
    endloop
  endfacet
  facet normal 0 1 -0
    outer loop
      vertex 9.25 60 6.5
      vertex 4.2 60 18.5
      vertex 9.25 60 18.5
    endloop
  endfacet
  facet normal 0 1 0
    outer loop
      vertex 9.25 60 6.5
      vertex 4.2 60 3
      vertex 4.2 60 18.5
    endloop
  endfacet
  facet normal 0 1 0
    outer loop
      vertex 4.2 60 3
      vertex 9.25 60 6.5
      vertex 18.2 60 3
    endloop
  endfacet
  facet normal 0 -1 0
    outer loop
      vertex 4.2 84.25 3
      vertex 18.2 84.25 18.5
      vertex 4.2 84.25 18.5
    endloop
  endfacet
  facet normal 0 -1 -0
    outer loop
      vertex 18.2 84.25 18.5
      vertex 4.2 84.25 3
      vertex 18.2 84.25 3
    endloop
  endfacet
  facet normal 1 -0 0
    outer loop
      vertex 9.25 58 18.5
      vertex 9.25 60 6.5
      vertex 9.25 60 18.5
    endloop
  endfacet
  facet normal 1 0 0
    outer loop
      vertex 9.25 60 6.5
      vertex 9.25 58 18.5
      vertex 9.25 58 6.5
    endloop
  endfacet
  facet normal -1 0 0
    outer loop
      vertex 13.25 58 6.5
      vertex 13.25 60 18.5
      vertex 13.25 60 6.5
    endloop
  endfacet
  facet normal -1 -0 0
    outer loop
      vertex 13.25 60 18.5
      vertex 13.25 58 6.5
      vertex 13.25 58 18.5
    endloop
  endfacet
  facet normal -0 0 1
    outer loop
      vertex 9.25 60 6.5
      vertex 13.25 58 6.5
      vertex 13.25 60 6.5
    endloop
  endfacet
  facet normal 0 0 1
    outer loop
      vertex 13.25 58 6.5
      vertex 9.25 60 6.5
      vertex 9.25 58 6.5
    endloop
  endfacet
  facet normal -1 0 0
    outer loop
      vertex 47 58 3
      vertex 47 86.8 18.5
      vertex 47 86.8 3
    endloop
  endfacet
  facet normal -1 -0 0
    outer loop
      vertex 47 86.8 18.5
      vertex 47 58 3
      vertex 47 58 18.5
    endloop
  endfacet
  facet normal 0 0 1
    outer loop
      vertex 65.5 86.8 18.5
      vertex 63.2 84.25 18.5
      vertex 65.5 58 18.5
    endloop
  endfacet
  facet normal -0 0 1
    outer loop
      vertex 47 86.8 18.5
      vertex 63.2 84.25 18.5
      vertex 65.5 86.8 18.5
    endloop
  endfacet
  facet normal 0 0 1
    outer loop
      vertex 47 58 18.5
      vertex 49.2 84.25 18.5
      vertex 47 86.8 18.5
    endloop
  endfacet
  facet normal 0 0 1
    outer loop
      vertex 63.2 84.25 18.5
      vertex 47 86.8 18.5
      vertex 49.2 84.25 18.5
    endloop
  endfacet
  facet normal -0 0 1
    outer loop
      vertex 63.2 60 18.5
      vertex 65.5 58 18.5
      vertex 63.2 84.25 18.5
    endloop
  endfacet
  facet normal 0 0 1
    outer loop
      vertex 58.25 58 18.5
      vertex 63.2 60 18.5
      vertex 58.25 60 18.5
    endloop
  endfacet
  facet normal 0 0 1
    outer loop
      vertex 63.2 60 18.5
      vertex 58.25 58 18.5
      vertex 65.5 58 18.5
    endloop
  endfacet
  facet normal -0 0 1
    outer loop
      vertex 49.2 60 18.5
      vertex 54.25 58 18.5
      vertex 54.25 60 18.5
    endloop
  endfacet
  facet normal 0 0 1
    outer loop
      vertex 49.2 60 18.5
      vertex 47 58 18.5
      vertex 54.25 58 18.5
    endloop
  endfacet
  facet normal 0 0 1
    outer loop
      vertex 49.2 84.25 18.5
      vertex 47 58 18.5
      vertex 49.2 60 18.5
    endloop
  endfacet
  facet normal 1 -0 0
    outer loop
      vertex 65.5 58 18.5
      vertex 65.5 86.8 3
      vertex 65.5 86.8 18.5
    endloop
  endfacet
  facet normal 1 0 0
    outer loop
      vertex 65.5 86.8 3
      vertex 65.5 58 18.5
      vertex 65.5 58 3
    endloop
  endfacet
  facet normal 0 1 -0
    outer loop
      vertex 65.5 86.8 3
      vertex 47 86.8 18.5
      vertex 65.5 86.8 18.5
    endloop
  endfacet
  facet normal 0 1 0
    outer loop
      vertex 47 86.8 18.5
      vertex 65.5 86.8 3
      vertex 47 86.8 3
    endloop
  endfacet
  facet normal 0 -1 0
    outer loop
      vertex 47 58 18.5
      vertex 54.25 58 6.5
      vertex 54.25 58 18.5
    endloop
  endfacet
  facet normal 0 -1 -0
    outer loop
      vertex 54.25 58 6.5
      vertex 47 58 3
      vertex 58.25 58 6.5
    endloop
  endfacet
  facet normal 0 -1 0
    outer loop
      vertex 47 58 3
      vertex 54.25 58 6.5
      vertex 47 58 18.5
    endloop
  endfacet
  facet normal 0 -1 0
    outer loop
      vertex 58.25 58 6.5
      vertex 65.5 58 18.5
      vertex 58.25 58 18.5
    endloop
  endfacet
  facet normal 0 -1 0
    outer loop
      vertex 58.25 58 6.5
      vertex 65.5 58 3
      vertex 65.5 58 18.5
    endloop
  endfacet
  facet normal 0 -1 0
    outer loop
      vertex 65.5 58 3
      vertex 58.25 58 6.5
      vertex 47 58 3
    endloop
  endfacet
  facet normal 1 -0 0
    outer loop
      vertex 49.2 60 18.5
      vertex 49.2 84.25 3
      vertex 49.2 84.25 18.5
    endloop
  endfacet
  facet normal 1 0 0
    outer loop
      vertex 49.2 84.25 3
      vertex 49.2 60 18.5
      vertex 49.2 60 3
    endloop
  endfacet
  facet normal -1 0 0
    outer loop
      vertex 63.2 60 3
      vertex 63.2 84.25 18.5
      vertex 63.2 84.25 3
    endloop
  endfacet
  facet normal -1 -0 0
    outer loop
      vertex 63.2 84.25 18.5
      vertex 63.2 60 3
      vertex 63.2 60 18.5
    endloop
  endfacet
  facet normal 0 1 0
    outer loop
      vertex 63.2 60 18.5
      vertex 58.25 60 6.5
      vertex 58.25 60 18.5
    endloop
  endfacet
  facet normal 0 1 0
    outer loop
      vertex 58.25 60 6.5
      vertex 63.2 60 3
      vertex 54.25 60 6.5
    endloop
  endfacet
  facet normal 0 1 -0
    outer loop
      vertex 63.2 60 3
      vertex 58.25 60 6.5
      vertex 63.2 60 18.5
    endloop
  endfacet
  facet normal 0 1 -0
    outer loop
      vertex 54.25 60 6.5
      vertex 49.2 60 18.5
      vertex 54.25 60 18.5
    endloop
  endfacet
  facet normal 0 1 0
    outer loop
      vertex 54.25 60 6.5
      vertex 49.2 60 3
      vertex 49.2 60 18.5
    endloop
  endfacet
  facet normal 0 1 0
    outer loop
      vertex 49.2 60 3
      vertex 54.25 60 6.5
      vertex 63.2 60 3
    endloop
  endfacet
  facet normal 0 -1 0
    outer loop
      vertex 49.2 84.25 3
      vertex 63.2 84.25 18.5
      vertex 49.2 84.25 18.5
    endloop
  endfacet
  facet normal 0 -1 -0
    outer loop
      vertex 63.2 84.25 18.5
      vertex 49.2 84.25 3
      vertex 63.2 84.25 3
    endloop
  endfacet
  facet normal 1 -0 0
    outer loop
      vertex 54.25 58 18.5
      vertex 54.25 60 6.5
      vertex 54.25 60 18.5
    endloop
  endfacet
  facet normal 1 0 0
    outer loop
      vertex 54.25 60 6.5
      vertex 54.25 58 18.5
      vertex 54.25 58 6.5
    endloop
  endfacet
  facet normal -1 0 0
    outer loop
      vertex 58.25 58 6.5
      vertex 58.25 60 18.5
      vertex 58.25 60 6.5
    endloop
  endfacet
  facet normal -1 -0 0
    outer loop
      vertex 58.25 60 18.5
      vertex 58.25 58 6.5
      vertex 58.25 58 18.5
    endloop
  endfacet
  facet normal -0 0 1
    outer loop
      vertex 54.25 60 6.5
      vertex 58.25 58 6.5
      vertex 58.25 60 6.5
    endloop
  endfacet
  facet normal 0 0 1
    outer loop
      vertex 58.25 58 6.5
      vertex 54.25 60 6.5
      vertex 54.25 58 6.5
    endloop
  endfacet
  facet normal -1 0 0
    outer loop
      vertex 92 58 3
      vertex 92 86.8 18.5
      vertex 92 86.8 3
    endloop
  endfacet
  facet normal -1 -0 0
    outer loop
      vertex 92 86.8 18.5
      vertex 92 58 3
      vertex 92 58 18.5
    endloop
  endfacet
  facet normal 0 0 1
    outer loop
      vertex 110.5 86.8 18.5
      vertex 108.2 84.25 18.5
      vertex 110.5 58 18.5
    endloop
  endfacet
  facet normal -0 0 1
    outer loop
      vertex 92 86.8 18.5
      vertex 108.2 84.25 18.5
      vertex 110.5 86.8 18.5
    endloop
  endfacet
  facet normal 0 0 1
    outer loop
      vertex 92 58 18.5
      vertex 94.2 84.25 18.5
      vertex 92 86.8 18.5
    endloop
  endfacet
  facet normal 0 0 1
    outer loop
      vertex 108.2 84.25 18.5
      vertex 92 86.8 18.5
      vertex 94.2 84.25 18.5
    endloop
  endfacet
  facet normal -0 0 1
    outer loop
      vertex 108.2 60 18.5
      vertex 110.5 58 18.5
      vertex 108.2 84.25 18.5
    endloop
  endfacet
  facet normal 0 0 1
    outer loop
      vertex 103.25 58 18.5
      vertex 108.2 60 18.5
      vertex 103.25 60 18.5
    endloop
  endfacet
  facet normal 0 0 1
    outer loop
      vertex 108.2 60 18.5
      vertex 103.25 58 18.5
      vertex 110.5 58 18.5
    endloop
  endfacet
  facet normal -0 0 1
    outer loop
      vertex 94.2 60 18.5
      vertex 99.25 58 18.5
      vertex 99.25 60 18.5
    endloop
  endfacet
  facet normal 0 0 1
    outer loop
      vertex 94.2 60 18.5
      vertex 92 58 18.5
      vertex 99.25 58 18.5
    endloop
  endfacet
  facet normal 0 0 1
    outer loop
      vertex 94.2 84.25 18.5
      vertex 92 58 18.5
      vertex 94.2 60 18.5
    endloop
  endfacet
  facet normal 1 -0 0
    outer loop
      vertex 110.5 58 18.5
      vertex 110.5 86.8 3
      vertex 110.5 86.8 18.5
    endloop
  endfacet
  facet normal 1 0 0
    outer loop
      vertex 110.5 86.8 3
      vertex 110.5 58 18.5
      vertex 110.5 58 3
    endloop
  endfacet
  facet normal 0 1 -0
    outer loop
      vertex 110.5 86.8 3
      vertex 92 86.8 18.5
      vertex 110.5 86.8 18.5
    endloop
  endfacet
  facet normal 0 1 0
    outer loop
      vertex 92 86.8 18.5
      vertex 110.5 86.8 3
      vertex 92 86.8 3
    endloop
  endfacet
  facet normal 0 -1 0
    outer loop
      vertex 92 58 18.5
      vertex 99.25 58 6.5
      vertex 99.25 58 18.5
    endloop
  endfacet
  facet normal 0 -1 -0
    outer loop
      vertex 99.25 58 6.5
      vertex 92 58 3
      vertex 103.25 58 6.5
    endloop
  endfacet
  facet normal 0 -1 0
    outer loop
      vertex 92 58 3
      vertex 99.25 58 6.5
      vertex 92 58 18.5
    endloop
  endfacet
  facet normal 0 -1 0
    outer loop
      vertex 103.25 58 6.5
      vertex 110.5 58 18.5
      vertex 103.25 58 18.5
    endloop
  endfacet
  facet normal 0 -1 0
    outer loop
      vertex 103.25 58 6.5
      vertex 110.5 58 3
      vertex 110.5 58 18.5
    endloop
  endfacet
  facet normal 0 -1 0
    outer loop
      vertex 110.5 58 3
      vertex 103.25 58 6.5
      vertex 92 58 3
    endloop
  endfacet
  facet normal 1 -0 0
    outer loop
      vertex 94.2 60 18.5
      vertex 94.2 84.25 3
      vertex 94.2 84.25 18.5
    endloop
  endfacet
  facet normal 1 0 0
    outer loop
      vertex 94.2 84.25 3
      vertex 94.2 60 18.5
      vertex 94.2 60 3
    endloop
  endfacet
  facet normal -1 0 0
    outer loop
      vertex 108.2 60 3
      vertex 108.2 84.25 18.5
      vertex 108.2 84.25 3
    endloop
  endfacet
  facet normal -1 -0 0
    outer loop
      vertex 108.2 84.25 18.5
      vertex 108.2 60 3
      vertex 108.2 60 18.5
    endloop
  endfacet
  facet normal 0 1 0
    outer loop
      vertex 108.2 60 18.5
      vertex 103.25 60 6.5
      vertex 103.25 60 18.5
    endloop
  endfacet
  facet normal 0 1 0
    outer loop
      vertex 103.25 60 6.5
      vertex 108.2 60 3
      vertex 99.25 60 6.5
    endloop
  endfacet
  facet normal 0 1 -0
    outer loop
      vertex 108.2 60 3
      vertex 103.25 60 6.5
      vertex 108.2 60 18.5
    endloop
  endfacet
  facet normal 0 1 -0
    outer loop
      vertex 99.25 60 6.5
      vertex 94.2 60 18.5
      vertex 99.25 60 18.5
    endloop
  endfacet
  facet normal 0 1 0
    outer loop
      vertex 99.25 60 6.5
      vertex 94.2 60 3
      vertex 94.2 60 18.5
    endloop
  endfacet
  facet normal 0 1 0
    outer loop
      vertex 94.2 60 3
      vertex 99.25 60 6.5
      vertex 108.2 60 3
    endloop
  endfacet
  facet normal 0 -1 0
    outer loop
      vertex 94.2 84.25 3
      vertex 108.2 84.25 18.5
      vertex 94.2 84.25 18.5
    endloop
  endfacet
  facet normal 0 -1 -0
    outer loop
      vertex 108.2 84.25 18.5
      vertex 94.2 84.25 3
      vertex 108.2 84.25 3
    endloop
  endfacet
  facet normal 1 -0 0
    outer loop
      vertex 99.25 58 18.5
      vertex 99.25 60 6.5
      vertex 99.25 60 18.5
    endloop
  endfacet
  facet normal 1 0 0
    outer loop
      vertex 99.25 60 6.5
      vertex 99.25 58 18.5
      vertex 99.25 58 6.5
    endloop
  endfacet
  facet normal -1 0 0
    outer loop
      vertex 103.25 58 6.5
      vertex 103.25 60 18.5
      vertex 103.25 60 6.5
    endloop
  endfacet
  facet normal -1 -0 0
    outer loop
      vertex 103.25 60 18.5
      vertex 103.25 58 6.5
      vertex 103.25 58 18.5
    endloop
  endfacet
  facet normal -0 0 1
    outer loop
      vertex 99.25 60 6.5
      vertex 103.25 58 6.5
      vertex 103.25 60 6.5
    endloop
  endfacet
  facet normal 0 0 1
    outer loop
      vertex 103.25 58 6.5
      vertex 99.25 60 6.5
      vertex 99.25 58 6.5
    endloop
  endfacet
  facet normal -1 0 0
    outer loop
      vertex 137 58 3
      vertex 137 86.8 18.5
      vertex 137 86.8 3
    endloop
  endfacet
  facet normal -1 -0 0
    outer loop
      vertex 137 86.8 18.5
      vertex 137 58 3
      vertex 137 58 18.5
    endloop
  endfacet
  facet normal 0 0 1
    outer loop
      vertex 155.5 86.8 18.5
      vertex 153.2 84.25 18.5
      vertex 155.5 58 18.5
    endloop
  endfacet
  facet normal -0 0 1
    outer loop
      vertex 137 86.8 18.5
      vertex 153.2 84.25 18.5
      vertex 155.5 86.8 18.5
    endloop
  endfacet
  facet normal 0 0 1
    outer loop
      vertex 137 58 18.5
      vertex 139.2 84.25 18.5
      vertex 137 86.8 18.5
    endloop
  endfacet
  facet normal 0 0 1
    outer loop
      vertex 153.2 84.25 18.5
      vertex 137 86.8 18.5
      vertex 139.2 84.25 18.5
    endloop
  endfacet
  facet normal -0 0 1
    outer loop
      vertex 153.2 60 18.5
      vertex 155.5 58 18.5
      vertex 153.2 84.25 18.5
    endloop
  endfacet
  facet normal 0 0 1
    outer loop
      vertex 148.25 58 18.5
      vertex 153.2 60 18.5
      vertex 148.25 60 18.5
    endloop
  endfacet
  facet normal 0 0 1
    outer loop
      vertex 153.2 60 18.5
      vertex 148.25 58 18.5
      vertex 155.5 58 18.5
    endloop
  endfacet
  facet normal -0 0 1
    outer loop
      vertex 139.2 60 18.5
      vertex 144.25 58 18.5
      vertex 144.25 60 18.5
    endloop
  endfacet
  facet normal 0 0 1
    outer loop
      vertex 139.2 60 18.5
      vertex 137 58 18.5
      vertex 144.25 58 18.5
    endloop
  endfacet
  facet normal 0 0 1
    outer loop
      vertex 139.2 84.25 18.5
      vertex 137 58 18.5
      vertex 139.2 60 18.5
    endloop
  endfacet
  facet normal 1 -0 0
    outer loop
      vertex 155.5 58 18.5
      vertex 155.5 86.8 3
      vertex 155.5 86.8 18.5
    endloop
  endfacet
  facet normal 1 0 0
    outer loop
      vertex 155.5 86.8 3
      vertex 155.5 58 18.5
      vertex 155.5 58 3
    endloop
  endfacet
  facet normal 0 1 -0
    outer loop
      vertex 155.5 86.8 3
      vertex 137 86.8 18.5
      vertex 155.5 86.8 18.5
    endloop
  endfacet
  facet normal 0 1 0
    outer loop
      vertex 137 86.8 18.5
      vertex 155.5 86.8 3
      vertex 137 86.8 3
    endloop
  endfacet
  facet normal 0 -1 0
    outer loop
      vertex 137 58 18.5
      vertex 144.25 58 6.5
      vertex 144.25 58 18.5
    endloop
  endfacet
  facet normal 0 -1 -0
    outer loop
      vertex 144.25 58 6.5
      vertex 137 58 3
      vertex 148.25 58 6.5
    endloop
  endfacet
  facet normal 0 -1 0
    outer loop
      vertex 137 58 3
      vertex 144.25 58 6.5
      vertex 137 58 18.5
    endloop
  endfacet
  facet normal 0 -1 0
    outer loop
      vertex 148.25 58 6.5
      vertex 155.5 58 18.5
      vertex 148.25 58 18.5
    endloop
  endfacet
  facet normal 0 -1 0
    outer loop
      vertex 148.25 58 6.5
      vertex 155.5 58 3
      vertex 155.5 58 18.5
    endloop
  endfacet
  facet normal 0 -1 0
    outer loop
      vertex 155.5 58 3
      vertex 148.25 58 6.5
      vertex 137 58 3
    endloop
  endfacet
  facet normal 1 -0 0
    outer loop
      vertex 139.2 60 18.5
      vertex 139.2 84.25 3
      vertex 139.2 84.25 18.5
    endloop
  endfacet
  facet normal 1 0 0
    outer loop
      vertex 139.2 84.25 3
      vertex 139.2 60 18.5
      vertex 139.2 60 3
    endloop
  endfacet
  facet normal -1 0 0
    outer loop
      vertex 153.2 60 3
      vertex 153.2 84.25 18.5
      vertex 153.2 84.25 3
    endloop
  endfacet
  facet normal -1 -0 0
    outer loop
      vertex 153.2 84.25 18.5
      vertex 153.2 60 3
      vertex 153.2 60 18.5
    endloop
  endfacet
  facet normal 0 1 0
    outer loop
      vertex 153.2 60 18.5
      vertex 148.25 60 6.5
      vertex 148.25 60 18.5
    endloop
  endfacet
  facet normal 0 1 0
    outer loop
      vertex 148.25 60 6.5
      vertex 153.2 60 3
      vertex 144.25 60 6.5
    endloop
  endfacet
  facet normal 0 1 -0
    outer loop
      vertex 153.2 60 3
      vertex 148.25 60 6.5
      vertex 153.2 60 18.5
    endloop
  endfacet
  facet normal 0 1 -0
    outer loop
      vertex 144.25 60 6.5
      vertex 139.2 60 18.5
      vertex 144.25 60 18.5
    endloop
  endfacet
  facet normal 0 1 0
    outer loop
      vertex 144.25 60 6.5
      vertex 139.2 60 3
      vertex 139.2 60 18.5
    endloop
  endfacet
  facet normal 0 1 0
    outer loop
      vertex 139.2 60 3
      vertex 144.25 60 6.5
      vertex 153.2 60 3
    endloop
  endfacet
  facet normal 0 -1 0
    outer loop
      vertex 139.2 84.25 3
      vertex 153.2 84.25 18.5
      vertex 139.2 84.25 18.5
    endloop
  endfacet
  facet normal 0 -1 -0
    outer loop
      vertex 153.2 84.25 18.5
      vertex 139.2 84.25 3
      vertex 153.2 84.25 3
    endloop
  endfacet
  facet normal 1 -0 0
    outer loop
      vertex 144.25 58 18.5
      vertex 144.25 60 6.5
      vertex 144.25 60 18.5
    endloop
  endfacet
  facet normal 1 0 0
    outer loop
      vertex 144.25 60 6.5
      vertex 144.25 58 18.5
      vertex 144.25 58 6.5
    endloop
  endfacet
  facet normal -1 0 0
    outer loop
      vertex 148.25 58 6.5
      vertex 148.25 60 18.5
      vertex 148.25 60 6.5
    endloop
  endfacet
  facet normal -1 -0 0
    outer loop
      vertex 148.25 60 18.5
      vertex 148.25 58 6.5
      vertex 148.25 58 18.5
    endloop
  endfacet
  facet normal -0 0 1
    outer loop
      vertex 144.25 60 6.5
      vertex 148.25 58 6.5
      vertex 148.25 60 6.5
    endloop
  endfacet
  facet normal 0 0 1
    outer loop
      vertex 148.25 58 6.5
      vertex 144.25 60 6.5
      vertex 144.25 58 6.5
    endloop
  endfacet
  facet normal -1 0 0
    outer loop
      vertex 182 58 3
      vertex 182 86.8 18.5
      vertex 182 86.8 3
    endloop
  endfacet
  facet normal -1 -0 0
    outer loop
      vertex 182 86.8 18.5
      vertex 182 58 3
      vertex 182 58 18.5
    endloop
  endfacet
  facet normal 0 0 1
    outer loop
      vertex 200.5 86.8 18.5
      vertex 198.2 84.25 18.5
      vertex 200.5 58 18.5
    endloop
  endfacet
  facet normal -0 0 1
    outer loop
      vertex 182 86.8 18.5
      vertex 198.2 84.25 18.5
      vertex 200.5 86.8 18.5
    endloop
  endfacet
  facet normal 0 0 1
    outer loop
      vertex 182 58 18.5
      vertex 184.2 84.25 18.5
      vertex 182 86.8 18.5
    endloop
  endfacet
  facet normal 0 0 1
    outer loop
      vertex 198.2 84.25 18.5
      vertex 182 86.8 18.5
      vertex 184.2 84.25 18.5
    endloop
  endfacet
  facet normal -0 0 1
    outer loop
      vertex 198.2 60 18.5
      vertex 200.5 58 18.5
      vertex 198.2 84.25 18.5
    endloop
  endfacet
  facet normal 0 0 1
    outer loop
      vertex 193.25 58 18.5
      vertex 198.2 60 18.5
      vertex 193.25 60 18.5
    endloop
  endfacet
  facet normal 0 0 1
    outer loop
      vertex 198.2 60 18.5
      vertex 193.25 58 18.5
      vertex 200.5 58 18.5
    endloop
  endfacet
  facet normal -0 0 1
    outer loop
      vertex 184.2 60 18.5
      vertex 189.25 58 18.5
      vertex 189.25 60 18.5
    endloop
  endfacet
  facet normal 0 0 1
    outer loop
      vertex 184.2 60 18.5
      vertex 182 58 18.5
      vertex 189.25 58 18.5
    endloop
  endfacet
  facet normal 0 0 1
    outer loop
      vertex 184.2 84.25 18.5
      vertex 182 58 18.5
      vertex 184.2 60 18.5
    endloop
  endfacet
  facet normal 1 -0 0
    outer loop
      vertex 200.5 58 18.5
      vertex 200.5 86.8 3
      vertex 200.5 86.8 18.5
    endloop
  endfacet
  facet normal 1 0 0
    outer loop
      vertex 200.5 86.8 3
      vertex 200.5 58 18.5
      vertex 200.5 58 3
    endloop
  endfacet
  facet normal 0 1 -0
    outer loop
      vertex 200.5 86.8 3
      vertex 182 86.8 18.5
      vertex 200.5 86.8 18.5
    endloop
  endfacet
  facet normal 0 1 0
    outer loop
      vertex 182 86.8 18.5
      vertex 200.5 86.8 3
      vertex 182 86.8 3
    endloop
  endfacet
  facet normal 0 -1 0
    outer loop
      vertex 182 58 18.5
      vertex 189.25 58 6.5
      vertex 189.25 58 18.5
    endloop
  endfacet
  facet normal 0 -1 -0
    outer loop
      vertex 189.25 58 6.5
      vertex 182 58 3
      vertex 193.25 58 6.5
    endloop
  endfacet
  facet normal 0 -1 0
    outer loop
      vertex 182 58 3
      vertex 189.25 58 6.5
      vertex 182 58 18.5
    endloop
  endfacet
  facet normal 0 -1 0
    outer loop
      vertex 193.25 58 6.5
      vertex 200.5 58 18.5
      vertex 193.25 58 18.5
    endloop
  endfacet
  facet normal 0 -1 0
    outer loop
      vertex 193.25 58 6.5
      vertex 200.5 58 3
      vertex 200.5 58 18.5
    endloop
  endfacet
  facet normal 0 -1 0
    outer loop
      vertex 200.5 58 3
      vertex 193.25 58 6.5
      vertex 182 58 3
    endloop
  endfacet
  facet normal 1 -0 0
    outer loop
      vertex 184.2 60 18.5
      vertex 184.2 84.25 3
      vertex 184.2 84.25 18.5
    endloop
  endfacet
  facet normal 1 0 0
    outer loop
      vertex 184.2 84.25 3
      vertex 184.2 60 18.5
      vertex 184.2 60 3
    endloop
  endfacet
  facet normal -1 0 0
    outer loop
      vertex 198.2 60 3
      vertex 198.2 84.25 18.5
      vertex 198.2 84.25 3
    endloop
  endfacet
  facet normal -1 -0 0
    outer loop
      vertex 198.2 84.25 18.5
      vertex 198.2 60 3
      vertex 198.2 60 18.5
    endloop
  endfacet
  facet normal 0 1 0
    outer loop
      vertex 198.2 60 18.5
      vertex 193.25 60 6.5
      vertex 193.25 60 18.5
    endloop
  endfacet
  facet normal 0 1 0
    outer loop
      vertex 193.25 60 6.5
      vertex 198.2 60 3
      vertex 189.25 60 6.5
    endloop
  endfacet
  facet normal 0 1 -0
    outer loop
      vertex 198.2 60 3
      vertex 193.25 60 6.5
      vertex 198.2 60 18.5
    endloop
  endfacet
  facet normal 0 1 -0
    outer loop
      vertex 189.25 60 6.5
      vertex 184.2 60 18.5
      vertex 189.25 60 18.5
    endloop
  endfacet
  facet normal 0 1 0
    outer loop
      vertex 189.25 60 6.5
      vertex 184.2 60 3
      vertex 184.2 60 18.5
    endloop
  endfacet
  facet normal 0 1 0
    outer loop
      vertex 184.2 60 3
      vertex 189.25 60 6.5
      vertex 198.2 60 3
    endloop
  endfacet
  facet normal 0 -1 0
    outer loop
      vertex 184.2 84.25 3
      vertex 198.2 84.25 18.5
      vertex 184.2 84.25 18.5
    endloop
  endfacet
  facet normal 0 -1 -0
    outer loop
      vertex 198.2 84.25 18.5
      vertex 184.2 84.25 3
      vertex 198.2 84.25 3
    endloop
  endfacet
  facet normal 1 -0 0
    outer loop
      vertex 189.25 58 18.5
      vertex 189.25 60 6.5
      vertex 189.25 60 18.5
    endloop
  endfacet
  facet normal 1 0 0
    outer loop
      vertex 189.25 60 6.5
      vertex 189.25 58 18.5
      vertex 189.25 58 6.5
    endloop
  endfacet
  facet normal -1 0 0
    outer loop
      vertex 193.25 58 6.5
      vertex 193.25 60 18.5
      vertex 193.25 60 6.5
    endloop
  endfacet
  facet normal -1 -0 0
    outer loop
      vertex 193.25 60 18.5
      vertex 193.25 58 6.5
      vertex 193.25 58 18.5
    endloop
  endfacet
  facet normal -0 0 1
    outer loop
      vertex 189.25 60 6.5
      vertex 193.25 58 6.5
      vertex 193.25 60 6.5
    endloop
  endfacet
  facet normal 0 0 1
    outer loop
      vertex 193.25 58 6.5
      vertex 189.25 60 6.5
      vertex 189.25 58 6.5
    endloop
  endfacet
  facet normal 1 -0 0
    outer loop
      vertex 20.5 3.2 18.5
      vertex 20.5 32 3
      vertex 20.5 32 18.5
    endloop
  endfacet
  facet normal 1 0 0
    outer loop
      vertex 20.5 32 3
      vertex 20.5 3.2 18.5
      vertex 20.5 3.2 3
    endloop
  endfacet
  facet normal 0 0 1
    outer loop
      vertex 9.25 32 18.5
      vertex 4.3 30 18.5
      vertex 9.25 30 18.5
    endloop
  endfacet
  facet normal 0 0 1
    outer loop
      vertex 4.3 30 18.5
      vertex 2 32 18.5
      vertex 4.3 5.75 18.5
    endloop
  endfacet
  facet normal -0 0 1
    outer loop
      vertex 2 32 18.5
      vertex 4.3 30 18.5
      vertex 9.25 32 18.5
    endloop
  endfacet
  facet normal 0 0 1
    outer loop
      vertex 18.3 5.75 18.5
      vertex 20.5 32 18.5
      vertex 18.3 30 18.5
    endloop
  endfacet
  facet normal -0 0 1
    outer loop
      vertex 13.25 32 18.5
      vertex 18.3 30 18.5
      vertex 20.5 32 18.5
    endloop
  endfacet
  facet normal 0 0 1
    outer loop
      vertex 18.3 30 18.5
      vertex 13.25 32 18.5
      vertex 13.25 30 18.5
    endloop
  endfacet
  facet normal 0 0 1
    outer loop
      vertex 20.5 32 18.5
      vertex 18.3 5.75 18.5
      vertex 20.5 3.2 18.5
    endloop
  endfacet
  facet normal -0 0 1
    outer loop
      vertex 4.3 5.75 18.5
      vertex 20.5 3.2 18.5
      vertex 18.3 5.75 18.5
    endloop
  endfacet
  facet normal 0 0 1
    outer loop
      vertex 4.3 5.75 18.5
      vertex 2 3.2 18.5
      vertex 20.5 3.2 18.5
    endloop
  endfacet
  facet normal 0 0 1
    outer loop
      vertex 2 3.2 18.5
      vertex 4.3 5.75 18.5
      vertex 2 32 18.5
    endloop
  endfacet
  facet normal -1 0 0
    outer loop
      vertex 2 3.2 3
      vertex 2 32 18.5
      vertex 2 32 3
    endloop
  endfacet
  facet normal -1 -0 0
    outer loop
      vertex 2 32 18.5
      vertex 2 3.2 3
      vertex 2 3.2 18.5
    endloop
  endfacet
  facet normal 0 -1 0
    outer loop
      vertex 2 3.2 3
      vertex 20.5 3.2 18.5
      vertex 2 3.2 18.5
    endloop
  endfacet
  facet normal 0 -1 -0
    outer loop
      vertex 20.5 3.2 18.5
      vertex 2 3.2 3
      vertex 20.5 3.2 3
    endloop
  endfacet
  facet normal 0 1 0
    outer loop
      vertex 20.5 32 18.5
      vertex 13.25 32 6.5
      vertex 13.25 32 18.5
    endloop
  endfacet
  facet normal 0 1 0
    outer loop
      vertex 13.25 32 6.5
      vertex 20.5 32 3
      vertex 9.25 32 6.5
    endloop
  endfacet
  facet normal 0 1 -0
    outer loop
      vertex 20.5 32 3
      vertex 13.25 32 6.5
      vertex 20.5 32 18.5
    endloop
  endfacet
  facet normal 0 1 -0
    outer loop
      vertex 9.25 32 6.5
      vertex 2 32 18.5
      vertex 9.25 32 18.5
    endloop
  endfacet
  facet normal 0 1 0
    outer loop
      vertex 9.25 32 6.5
      vertex 2 32 3
      vertex 2 32 18.5
    endloop
  endfacet
  facet normal 0 1 0
    outer loop
      vertex 2 32 3
      vertex 9.25 32 6.5
      vertex 20.5 32 3
    endloop
  endfacet
  facet normal -1 0 0
    outer loop
      vertex 18.3 5.75 3
      vertex 18.3 30 18.5
      vertex 18.3 30 3
    endloop
  endfacet
  facet normal -1 -0 0
    outer loop
      vertex 18.3 30 18.5
      vertex 18.3 5.75 3
      vertex 18.3 5.75 18.5
    endloop
  endfacet
  facet normal 1 -0 0
    outer loop
      vertex 4.3 5.75 18.5
      vertex 4.3 30 3
      vertex 4.3 30 18.5
    endloop
  endfacet
  facet normal 1 0 0
    outer loop
      vertex 4.3 30 3
      vertex 4.3 5.75 18.5
      vertex 4.3 5.75 3
    endloop
  endfacet
  facet normal 0 -1 0
    outer loop
      vertex 4.3 30 18.5
      vertex 9.25 30 6.5
      vertex 9.25 30 18.5
    endloop
  endfacet
  facet normal 0 -1 -0
    outer loop
      vertex 9.25 30 6.5
      vertex 4.3 30 3
      vertex 13.25 30 6.5
    endloop
  endfacet
  facet normal 0 -1 0
    outer loop
      vertex 4.3 30 3
      vertex 9.25 30 6.5
      vertex 4.3 30 18.5
    endloop
  endfacet
  facet normal 0 -1 0
    outer loop
      vertex 13.25 30 6.5
      vertex 18.3 30 18.5
      vertex 13.25 30 18.5
    endloop
  endfacet
  facet normal 0 -1 0
    outer loop
      vertex 13.25 30 6.5
      vertex 18.3 30 3
      vertex 18.3 30 18.5
    endloop
  endfacet
  facet normal 0 -1 0
    outer loop
      vertex 18.3 30 3
      vertex 13.25 30 6.5
      vertex 4.3 30 3
    endloop
  endfacet
  facet normal 0 1 -0
    outer loop
      vertex 18.3 5.75 3
      vertex 4.3 5.75 18.5
      vertex 18.3 5.75 18.5
    endloop
  endfacet
  facet normal 0 1 0
    outer loop
      vertex 4.3 5.75 18.5
      vertex 18.3 5.75 3
      vertex 4.3 5.75 3
    endloop
  endfacet
  facet normal -1 0 0
    outer loop
      vertex 13.25 30 6.5
      vertex 13.25 32 18.5
      vertex 13.25 32 6.5
    endloop
  endfacet
  facet normal -1 -0 0
    outer loop
      vertex 13.25 32 18.5
      vertex 13.25 30 6.5
      vertex 13.25 30 18.5
    endloop
  endfacet
  facet normal 1 -0 0
    outer loop
      vertex 9.25 30 18.5
      vertex 9.25 32 6.5
      vertex 9.25 32 18.5
    endloop
  endfacet
  facet normal 1 0 0
    outer loop
      vertex 9.25 32 6.5
      vertex 9.25 30 18.5
      vertex 9.25 30 6.5
    endloop
  endfacet
  facet normal -0 0 1
    outer loop
      vertex 9.25 32 6.5
      vertex 13.25 30 6.5
      vertex 13.25 32 6.5
    endloop
  endfacet
  facet normal 0 0 1
    outer loop
      vertex 13.25 30 6.5
      vertex 9.25 32 6.5
      vertex 9.25 30 6.5
    endloop
  endfacet
  facet normal 1 -0 0
    outer loop
      vertex 65.5 3.2 18.5
      vertex 65.5 32 3
      vertex 65.5 32 18.5
    endloop
  endfacet
  facet normal 1 0 0
    outer loop
      vertex 65.5 32 3
      vertex 65.5 3.2 18.5
      vertex 65.5 3.2 3
    endloop
  endfacet
  facet normal 0 0 1
    outer loop
      vertex 54.25 32 18.5
      vertex 49.3 30 18.5
      vertex 54.25 30 18.5
    endloop
  endfacet
  facet normal 0 0 1
    outer loop
      vertex 49.3 30 18.5
      vertex 47 32 18.5
      vertex 49.3 5.75 18.5
    endloop
  endfacet
  facet normal -0 0 1
    outer loop
      vertex 47 32 18.5
      vertex 49.3 30 18.5
      vertex 54.25 32 18.5
    endloop
  endfacet
  facet normal 0 0 1
    outer loop
      vertex 63.3 5.75 18.5
      vertex 65.5 32 18.5
      vertex 63.3 30 18.5
    endloop
  endfacet
  facet normal -0 0 1
    outer loop
      vertex 58.25 32 18.5
      vertex 63.3 30 18.5
      vertex 65.5 32 18.5
    endloop
  endfacet
  facet normal 0 0 1
    outer loop
      vertex 63.3 30 18.5
      vertex 58.25 32 18.5
      vertex 58.25 30 18.5
    endloop
  endfacet
  facet normal 0 0 1
    outer loop
      vertex 65.5 32 18.5
      vertex 63.3 5.75 18.5
      vertex 65.5 3.2 18.5
    endloop
  endfacet
  facet normal -0 0 1
    outer loop
      vertex 49.3 5.75 18.5
      vertex 65.5 3.2 18.5
      vertex 63.3 5.75 18.5
    endloop
  endfacet
  facet normal 0 0 1
    outer loop
      vertex 49.3 5.75 18.5
      vertex 47 3.2 18.5
      vertex 65.5 3.2 18.5
    endloop
  endfacet
  facet normal 0 0 1
    outer loop
      vertex 47 3.2 18.5
      vertex 49.3 5.75 18.5
      vertex 47 32 18.5
    endloop
  endfacet
  facet normal -1 0 0
    outer loop
      vertex 47 3.2 3
      vertex 47 32 18.5
      vertex 47 32 3
    endloop
  endfacet
  facet normal -1 -0 0
    outer loop
      vertex 47 32 18.5
      vertex 47 3.2 3
      vertex 47 3.2 18.5
    endloop
  endfacet
  facet normal 0 -1 0
    outer loop
      vertex 47 3.2 3
      vertex 65.5 3.2 18.5
      vertex 47 3.2 18.5
    endloop
  endfacet
  facet normal 0 -1 -0
    outer loop
      vertex 65.5 3.2 18.5
      vertex 47 3.2 3
      vertex 65.5 3.2 3
    endloop
  endfacet
  facet normal 0 1 0
    outer loop
      vertex 65.5 32 18.5
      vertex 58.25 32 6.5
      vertex 58.25 32 18.5
    endloop
  endfacet
  facet normal 0 1 0
    outer loop
      vertex 58.25 32 6.5
      vertex 65.5 32 3
      vertex 54.25 32 6.5
    endloop
  endfacet
  facet normal 0 1 -0
    outer loop
      vertex 65.5 32 3
      vertex 58.25 32 6.5
      vertex 65.5 32 18.5
    endloop
  endfacet
  facet normal 0 1 -0
    outer loop
      vertex 54.25 32 6.5
      vertex 47 32 18.5
      vertex 54.25 32 18.5
    endloop
  endfacet
  facet normal 0 1 0
    outer loop
      vertex 54.25 32 6.5
      vertex 47 32 3
      vertex 47 32 18.5
    endloop
  endfacet
  facet normal 0 1 0
    outer loop
      vertex 47 32 3
      vertex 54.25 32 6.5
      vertex 65.5 32 3
    endloop
  endfacet
  facet normal -1 0 0
    outer loop
      vertex 63.3 5.75 3
      vertex 63.3 30 18.5
      vertex 63.3 30 3
    endloop
  endfacet
  facet normal -1 -0 0
    outer loop
      vertex 63.3 30 18.5
      vertex 63.3 5.75 3
      vertex 63.3 5.75 18.5
    endloop
  endfacet
  facet normal 1 -0 0
    outer loop
      vertex 49.3 5.75 18.5
      vertex 49.3 30 3
      vertex 49.3 30 18.5
    endloop
  endfacet
  facet normal 1 0 0
    outer loop
      vertex 49.3 30 3
      vertex 49.3 5.75 18.5
      vertex 49.3 5.75 3
    endloop
  endfacet
  facet normal 0 -1 0
    outer loop
      vertex 49.3 30 18.5
      vertex 54.25 30 6.5
      vertex 54.25 30 18.5
    endloop
  endfacet
  facet normal 0 -1 -0
    outer loop
      vertex 54.25 30 6.5
      vertex 49.3 30 3
      vertex 58.25 30 6.5
    endloop
  endfacet
  facet normal 0 -1 0
    outer loop
      vertex 49.3 30 3
      vertex 54.25 30 6.5
      vertex 49.3 30 18.5
    endloop
  endfacet
  facet normal 0 -1 0
    outer loop
      vertex 58.25 30 6.5
      vertex 63.3 30 18.5
      vertex 58.25 30 18.5
    endloop
  endfacet
  facet normal 0 -1 0
    outer loop
      vertex 58.25 30 6.5
      vertex 63.3 30 3
      vertex 63.3 30 18.5
    endloop
  endfacet
  facet normal 0 -1 0
    outer loop
      vertex 63.3 30 3
      vertex 58.25 30 6.5
      vertex 49.3 30 3
    endloop
  endfacet
  facet normal 0 1 -0
    outer loop
      vertex 63.3 5.75 3
      vertex 49.3 5.75 18.5
      vertex 63.3 5.75 18.5
    endloop
  endfacet
  facet normal 0 1 0
    outer loop
      vertex 49.3 5.75 18.5
      vertex 63.3 5.75 3
      vertex 49.3 5.75 3
    endloop
  endfacet
  facet normal -1 0 0
    outer loop
      vertex 58.25 30 6.5
      vertex 58.25 32 18.5
      vertex 58.25 32 6.5
    endloop
  endfacet
  facet normal -1 -0 0
    outer loop
      vertex 58.25 32 18.5
      vertex 58.25 30 6.5
      vertex 58.25 30 18.5
    endloop
  endfacet
  facet normal 1 -0 0
    outer loop
      vertex 54.25 30 18.5
      vertex 54.25 32 6.5
      vertex 54.25 32 18.5
    endloop
  endfacet
  facet normal 1 0 0
    outer loop
      vertex 54.25 32 6.5
      vertex 54.25 30 18.5
      vertex 54.25 30 6.5
    endloop
  endfacet
  facet normal -0 0 1
    outer loop
      vertex 54.25 32 6.5
      vertex 58.25 30 6.5
      vertex 58.25 32 6.5
    endloop
  endfacet
  facet normal 0 0 1
    outer loop
      vertex 58.25 30 6.5
      vertex 54.25 32 6.5
      vertex 54.25 30 6.5
    endloop
  endfacet
  facet normal 1 -0 0
    outer loop
      vertex 110.5 3.2 18.5
      vertex 110.5 32 3
      vertex 110.5 32 18.5
    endloop
  endfacet
  facet normal 1 0 0
    outer loop
      vertex 110.5 32 3
      vertex 110.5 3.2 18.5
      vertex 110.5 3.2 3
    endloop
  endfacet
  facet normal 0 0 1
    outer loop
      vertex 99.25 32 18.5
      vertex 94.3 30 18.5
      vertex 99.25 30 18.5
    endloop
  endfacet
  facet normal 0 0 1
    outer loop
      vertex 94.3 30 18.5
      vertex 92 32 18.5
      vertex 94.3 5.75 18.5
    endloop
  endfacet
  facet normal -0 0 1
    outer loop
      vertex 92 32 18.5
      vertex 94.3 30 18.5
      vertex 99.25 32 18.5
    endloop
  endfacet
  facet normal 0 0 1
    outer loop
      vertex 108.3 5.75 18.5
      vertex 110.5 32 18.5
      vertex 108.3 30 18.5
    endloop
  endfacet
  facet normal -0 0 1
    outer loop
      vertex 103.25 32 18.5
      vertex 108.3 30 18.5
      vertex 110.5 32 18.5
    endloop
  endfacet
  facet normal 0 0 1
    outer loop
      vertex 108.3 30 18.5
      vertex 103.25 32 18.5
      vertex 103.25 30 18.5
    endloop
  endfacet
  facet normal 0 0 1
    outer loop
      vertex 110.5 32 18.5
      vertex 108.3 5.75 18.5
      vertex 110.5 3.2 18.5
    endloop
  endfacet
  facet normal -0 0 1
    outer loop
      vertex 94.3 5.75 18.5
      vertex 110.5 3.2 18.5
      vertex 108.3 5.75 18.5
    endloop
  endfacet
  facet normal 0 0 1
    outer loop
      vertex 94.3 5.75 18.5
      vertex 92 3.2 18.5
      vertex 110.5 3.2 18.5
    endloop
  endfacet
  facet normal 0 0 1
    outer loop
      vertex 92 3.2 18.5
      vertex 94.3 5.75 18.5
      vertex 92 32 18.5
    endloop
  endfacet
  facet normal -1 0 0
    outer loop
      vertex 92 3.2 3
      vertex 92 32 18.5
      vertex 92 32 3
    endloop
  endfacet
  facet normal -1 -0 0
    outer loop
      vertex 92 32 18.5
      vertex 92 3.2 3
      vertex 92 3.2 18.5
    endloop
  endfacet
  facet normal 0 -1 0
    outer loop
      vertex 92 3.2 3
      vertex 110.5 3.2 18.5
      vertex 92 3.2 18.5
    endloop
  endfacet
  facet normal 0 -1 -0
    outer loop
      vertex 110.5 3.2 18.5
      vertex 92 3.2 3
      vertex 110.5 3.2 3
    endloop
  endfacet
  facet normal 0 1 0
    outer loop
      vertex 110.5 32 18.5
      vertex 103.25 32 6.5
      vertex 103.25 32 18.5
    endloop
  endfacet
  facet normal 0 1 0
    outer loop
      vertex 103.25 32 6.5
      vertex 110.5 32 3
      vertex 99.25 32 6.5
    endloop
  endfacet
  facet normal 0 1 -0
    outer loop
      vertex 110.5 32 3
      vertex 103.25 32 6.5
      vertex 110.5 32 18.5
    endloop
  endfacet
  facet normal 0 1 -0
    outer loop
      vertex 99.25 32 6.5
      vertex 92 32 18.5
      vertex 99.25 32 18.5
    endloop
  endfacet
  facet normal 0 1 0
    outer loop
      vertex 99.25 32 6.5
      vertex 92 32 3
      vertex 92 32 18.5
    endloop
  endfacet
  facet normal 0 1 0
    outer loop
      vertex 92 32 3
      vertex 99.25 32 6.5
      vertex 110.5 32 3
    endloop
  endfacet
  facet normal -1 0 0
    outer loop
      vertex 108.3 5.75 3
      vertex 108.3 30 18.5
      vertex 108.3 30 3
    endloop
  endfacet
  facet normal -1 -0 0
    outer loop
      vertex 108.3 30 18.5
      vertex 108.3 5.75 3
      vertex 108.3 5.75 18.5
    endloop
  endfacet
  facet normal 1 -0 0
    outer loop
      vertex 94.3 5.75 18.5
      vertex 94.3 30 3
      vertex 94.3 30 18.5
    endloop
  endfacet
  facet normal 1 0 0
    outer loop
      vertex 94.3 30 3
      vertex 94.3 5.75 18.5
      vertex 94.3 5.75 3
    endloop
  endfacet
  facet normal 0 -1 0
    outer loop
      vertex 94.3 30 18.5
      vertex 99.25 30 6.5
      vertex 99.25 30 18.5
    endloop
  endfacet
  facet normal 0 -1 -0
    outer loop
      vertex 99.25 30 6.5
      vertex 94.3 30 3
      vertex 103.25 30 6.5
    endloop
  endfacet
  facet normal 0 -1 0
    outer loop
      vertex 94.3 30 3
      vertex 99.25 30 6.5
      vertex 94.3 30 18.5
    endloop
  endfacet
  facet normal 0 -1 0
    outer loop
      vertex 103.25 30 6.5
      vertex 108.3 30 18.5
      vertex 103.25 30 18.5
    endloop
  endfacet
  facet normal 0 -1 0
    outer loop
      vertex 103.25 30 6.5
      vertex 108.3 30 3
      vertex 108.3 30 18.5
    endloop
  endfacet
  facet normal 0 -1 0
    outer loop
      vertex 108.3 30 3
      vertex 103.25 30 6.5
      vertex 94.3 30 3
    endloop
  endfacet
  facet normal 0 1 -0
    outer loop
      vertex 108.3 5.75 3
      vertex 94.3 5.75 18.5
      vertex 108.3 5.75 18.5
    endloop
  endfacet
  facet normal 0 1 0
    outer loop
      vertex 94.3 5.75 18.5
      vertex 108.3 5.75 3
      vertex 94.3 5.75 3
    endloop
  endfacet
  facet normal -1 0 0
    outer loop
      vertex 103.25 30 6.5
      vertex 103.25 32 18.5
      vertex 103.25 32 6.5
    endloop
  endfacet
  facet normal -1 -0 0
    outer loop
      vertex 103.25 32 18.5
      vertex 103.25 30 6.5
      vertex 103.25 30 18.5
    endloop
  endfacet
  facet normal 1 -0 0
    outer loop
      vertex 99.25 30 18.5
      vertex 99.25 32 6.5
      vertex 99.25 32 18.5
    endloop
  endfacet
  facet normal 1 0 0
    outer loop
      vertex 99.25 32 6.5
      vertex 99.25 30 18.5
      vertex 99.25 30 6.5
    endloop
  endfacet
  facet normal -0 0 1
    outer loop
      vertex 99.25 32 6.5
      vertex 103.25 30 6.5
      vertex 103.25 32 6.5
    endloop
  endfacet
  facet normal 0 0 1
    outer loop
      vertex 103.25 30 6.5
      vertex 99.25 32 6.5
      vertex 99.25 30 6.5
    endloop
  endfacet
  facet normal 1 -0 0
    outer loop
      vertex 155.5 3.2 18.5
      vertex 155.5 32 3
      vertex 155.5 32 18.5
    endloop
  endfacet
  facet normal 1 0 0
    outer loop
      vertex 155.5 32 3
      vertex 155.5 3.2 18.5
      vertex 155.5 3.2 3
    endloop
  endfacet
  facet normal 0 0 1
    outer loop
      vertex 144.25 32 18.5
      vertex 139.3 30 18.5
      vertex 144.25 30 18.5
    endloop
  endfacet
  facet normal 0 0 1
    outer loop
      vertex 139.3 30 18.5
      vertex 137 32 18.5
      vertex 139.3 5.75 18.5
    endloop
  endfacet
  facet normal -0 0 1
    outer loop
      vertex 137 32 18.5
      vertex 139.3 30 18.5
      vertex 144.25 32 18.5
    endloop
  endfacet
  facet normal 0 0 1
    outer loop
      vertex 153.3 5.75 18.5
      vertex 155.5 32 18.5
      vertex 153.3 30 18.5
    endloop
  endfacet
  facet normal -0 0 1
    outer loop
      vertex 148.25 32 18.5
      vertex 153.3 30 18.5
      vertex 155.5 32 18.5
    endloop
  endfacet
  facet normal 0 0 1
    outer loop
      vertex 153.3 30 18.5
      vertex 148.25 32 18.5
      vertex 148.25 30 18.5
    endloop
  endfacet
  facet normal 0 0 1
    outer loop
      vertex 155.5 32 18.5
      vertex 153.3 5.75 18.5
      vertex 155.5 3.2 18.5
    endloop
  endfacet
  facet normal -0 0 1
    outer loop
      vertex 139.3 5.75 18.5
      vertex 155.5 3.2 18.5
      vertex 153.3 5.75 18.5
    endloop
  endfacet
  facet normal 0 0 1
    outer loop
      vertex 139.3 5.75 18.5
      vertex 137 3.2 18.5
      vertex 155.5 3.2 18.5
    endloop
  endfacet
  facet normal 0 0 1
    outer loop
      vertex 137 3.2 18.5
      vertex 139.3 5.75 18.5
      vertex 137 32 18.5
    endloop
  endfacet
  facet normal -1 0 0
    outer loop
      vertex 137 3.2 3
      vertex 137 32 18.5
      vertex 137 32 3
    endloop
  endfacet
  facet normal -1 -0 0
    outer loop
      vertex 137 32 18.5
      vertex 137 3.2 3
      vertex 137 3.2 18.5
    endloop
  endfacet
  facet normal 0 -1 0
    outer loop
      vertex 137 3.2 3
      vertex 155.5 3.2 18.5
      vertex 137 3.2 18.5
    endloop
  endfacet
  facet normal 0 -1 -0
    outer loop
      vertex 155.5 3.2 18.5
      vertex 137 3.2 3
      vertex 155.5 3.2 3
    endloop
  endfacet
  facet normal 0 1 0
    outer loop
      vertex 155.5 32 18.5
      vertex 148.25 32 6.5
      vertex 148.25 32 18.5
    endloop
  endfacet
  facet normal 0 1 0
    outer loop
      vertex 148.25 32 6.5
      vertex 155.5 32 3
      vertex 144.25 32 6.5
    endloop
  endfacet
  facet normal 0 1 -0
    outer loop
      vertex 155.5 32 3
      vertex 148.25 32 6.5
      vertex 155.5 32 18.5
    endloop
  endfacet
  facet normal 0 1 -0
    outer loop
      vertex 144.25 32 6.5
      vertex 137 32 18.5
      vertex 144.25 32 18.5
    endloop
  endfacet
  facet normal 0 1 0
    outer loop
      vertex 144.25 32 6.5
      vertex 137 32 3
      vertex 137 32 18.5
    endloop
  endfacet
  facet normal 0 1 0
    outer loop
      vertex 137 32 3
      vertex 144.25 32 6.5
      vertex 155.5 32 3
    endloop
  endfacet
  facet normal -1 0 0
    outer loop
      vertex 153.3 5.75 3
      vertex 153.3 30 18.5
      vertex 153.3 30 3
    endloop
  endfacet
  facet normal -1 -0 0
    outer loop
      vertex 153.3 30 18.5
      vertex 153.3 5.75 3
      vertex 153.3 5.75 18.5
    endloop
  endfacet
  facet normal 1 -0 0
    outer loop
      vertex 139.3 5.75 18.5
      vertex 139.3 30 3
      vertex 139.3 30 18.5
    endloop
  endfacet
  facet normal 1 0 0
    outer loop
      vertex 139.3 30 3
      vertex 139.3 5.75 18.5
      vertex 139.3 5.75 3
    endloop
  endfacet
  facet normal 0 -1 0
    outer loop
      vertex 139.3 30 18.5
      vertex 144.25 30 6.5
      vertex 144.25 30 18.5
    endloop
  endfacet
  facet normal 0 -1 -0
    outer loop
      vertex 144.25 30 6.5
      vertex 139.3 30 3
      vertex 148.25 30 6.5
    endloop
  endfacet
  facet normal 0 -1 0
    outer loop
      vertex 139.3 30 3
      vertex 144.25 30 6.5
      vertex 139.3 30 18.5
    endloop
  endfacet
  facet normal 0 -1 0
    outer loop
      vertex 148.25 30 6.5
      vertex 153.3 30 18.5
      vertex 148.25 30 18.5
    endloop
  endfacet
  facet normal 0 -1 0
    outer loop
      vertex 148.25 30 6.5
      vertex 153.3 30 3
      vertex 153.3 30 18.5
    endloop
  endfacet
  facet normal 0 -1 0
    outer loop
      vertex 153.3 30 3
      vertex 148.25 30 6.5
      vertex 139.3 30 3
    endloop
  endfacet
  facet normal 0 1 -0
    outer loop
      vertex 153.3 5.75 3
      vertex 139.3 5.75 18.5
      vertex 153.3 5.75 18.5
    endloop
  endfacet
  facet normal 0 1 0
    outer loop
      vertex 139.3 5.75 18.5
      vertex 153.3 5.75 3
      vertex 139.3 5.75 3
    endloop
  endfacet
  facet normal -1 0 0
    outer loop
      vertex 148.25 30 6.5
      vertex 148.25 32 18.5
      vertex 148.25 32 6.5
    endloop
  endfacet
  facet normal -1 -0 0
    outer loop
      vertex 148.25 32 18.5
      vertex 148.25 30 6.5
      vertex 148.25 30 18.5
    endloop
  endfacet
  facet normal 1 -0 0
    outer loop
      vertex 144.25 30 18.5
      vertex 144.25 32 6.5
      vertex 144.25 32 18.5
    endloop
  endfacet
  facet normal 1 0 0
    outer loop
      vertex 144.25 32 6.5
      vertex 144.25 30 18.5
      vertex 144.25 30 6.5
    endloop
  endfacet
  facet normal -0 0 1
    outer loop
      vertex 144.25 32 6.5
      vertex 148.25 30 6.5
      vertex 148.25 32 6.5
    endloop
  endfacet
  facet normal 0 0 1
    outer loop
      vertex 148.25 30 6.5
      vertex 144.25 32 6.5
      vertex 144.25 30 6.5
    endloop
  endfacet
  facet normal 1 -0 0
    outer loop
      vertex 200.5 3.2 18.5
      vertex 200.5 32 3
      vertex 200.5 32 18.5
    endloop
  endfacet
  facet normal 1 0 0
    outer loop
      vertex 200.5 32 3
      vertex 200.5 3.2 18.5
      vertex 200.5 3.2 3
    endloop
  endfacet
  facet normal 0 0 1
    outer loop
      vertex 189.25 32 18.5
      vertex 184.3 30 18.5
      vertex 189.25 30 18.5
    endloop
  endfacet
  facet normal 0 0 1
    outer loop
      vertex 184.3 30 18.5
      vertex 182 32 18.5
      vertex 184.3 5.75 18.5
    endloop
  endfacet
  facet normal -0 0 1
    outer loop
      vertex 182 32 18.5
      vertex 184.3 30 18.5
      vertex 189.25 32 18.5
    endloop
  endfacet
  facet normal 0 0 1
    outer loop
      vertex 198.3 5.75 18.5
      vertex 200.5 32 18.5
      vertex 198.3 30 18.5
    endloop
  endfacet
  facet normal -0 0 1
    outer loop
      vertex 193.25 32 18.5
      vertex 198.3 30 18.5
      vertex 200.5 32 18.5
    endloop
  endfacet
  facet normal 0 0 1
    outer loop
      vertex 198.3 30 18.5
      vertex 193.25 32 18.5
      vertex 193.25 30 18.5
    endloop
  endfacet
  facet normal 0 0 1
    outer loop
      vertex 200.5 32 18.5
      vertex 198.3 5.75 18.5
      vertex 200.5 3.2 18.5
    endloop
  endfacet
  facet normal -0 0 1
    outer loop
      vertex 184.3 5.75 18.5
      vertex 200.5 3.2 18.5
      vertex 198.3 5.75 18.5
    endloop
  endfacet
  facet normal 0 0 1
    outer loop
      vertex 184.3 5.75 18.5
      vertex 182 3.2 18.5
      vertex 200.5 3.2 18.5
    endloop
  endfacet
  facet normal 0 0 1
    outer loop
      vertex 182 3.2 18.5
      vertex 184.3 5.75 18.5
      vertex 182 32 18.5
    endloop
  endfacet
  facet normal -1 0 0
    outer loop
      vertex 182 3.2 3
      vertex 182 32 18.5
      vertex 182 32 3
    endloop
  endfacet
  facet normal -1 -0 0
    outer loop
      vertex 182 32 18.5
      vertex 182 3.2 3
      vertex 182 3.2 18.5
    endloop
  endfacet
  facet normal 0 -1 0
    outer loop
      vertex 182 3.2 3
      vertex 200.5 3.2 18.5
      vertex 182 3.2 18.5
    endloop
  endfacet
  facet normal 0 -1 -0
    outer loop
      vertex 200.5 3.2 18.5
      vertex 182 3.2 3
      vertex 200.5 3.2 3
    endloop
  endfacet
  facet normal 0 1 0
    outer loop
      vertex 200.5 32 18.5
      vertex 193.25 32 6.5
      vertex 193.25 32 18.5
    endloop
  endfacet
  facet normal 0 1 0
    outer loop
      vertex 193.25 32 6.5
      vertex 200.5 32 3
      vertex 189.25 32 6.5
    endloop
  endfacet
  facet normal 0 1 -0
    outer loop
      vertex 200.5 32 3
      vertex 193.25 32 6.5
      vertex 200.5 32 18.5
    endloop
  endfacet
  facet normal 0 1 -0
    outer loop
      vertex 189.25 32 6.5
      vertex 182 32 18.5
      vertex 189.25 32 18.5
    endloop
  endfacet
  facet normal 0 1 0
    outer loop
      vertex 189.25 32 6.5
      vertex 182 32 3
      vertex 182 32 18.5
    endloop
  endfacet
  facet normal 0 1 0
    outer loop
      vertex 182 32 3
      vertex 189.25 32 6.5
      vertex 200.5 32 3
    endloop
  endfacet
  facet normal -1 0 0
    outer loop
      vertex 198.3 5.75 3
      vertex 198.3 30 18.5
      vertex 198.3 30 3
    endloop
  endfacet
  facet normal -1 -0 0
    outer loop
      vertex 198.3 30 18.5
      vertex 198.3 5.75 3
      vertex 198.3 5.75 18.5
    endloop
  endfacet
  facet normal 1 -0 0
    outer loop
      vertex 184.3 5.75 18.5
      vertex 184.3 30 3
      vertex 184.3 30 18.5
    endloop
  endfacet
  facet normal 1 0 0
    outer loop
      vertex 184.3 30 3
      vertex 184.3 5.75 18.5
      vertex 184.3 5.75 3
    endloop
  endfacet
  facet normal 0 -1 0
    outer loop
      vertex 184.3 30 18.5
      vertex 189.25 30 6.5
      vertex 189.25 30 18.5
    endloop
  endfacet
  facet normal 0 -1 -0
    outer loop
      vertex 189.25 30 6.5
      vertex 184.3 30 3
      vertex 193.25 30 6.5
    endloop
  endfacet
  facet normal 0 -1 0
    outer loop
      vertex 184.3 30 3
      vertex 189.25 30 6.5
      vertex 184.3 30 18.5
    endloop
  endfacet
  facet normal 0 -1 0
    outer loop
      vertex 193.25 30 6.5
      vertex 198.3 30 18.5
      vertex 193.25 30 18.5
    endloop
  endfacet
  facet normal 0 -1 0
    outer loop
      vertex 193.25 30 6.5
      vertex 198.3 30 3
      vertex 198.3 30 18.5
    endloop
  endfacet
  facet normal 0 -1 0
    outer loop
      vertex 198.3 30 3
      vertex 193.25 30 6.5
      vertex 184.3 30 3
    endloop
  endfacet
  facet normal 0 1 -0
    outer loop
      vertex 198.3 5.75 3
      vertex 184.3 5.75 18.5
      vertex 198.3 5.75 18.5
    endloop
  endfacet
  facet normal 0 1 0
    outer loop
      vertex 184.3 5.75 18.5
      vertex 198.3 5.75 3
      vertex 184.3 5.75 3
    endloop
  endfacet
  facet normal -1 0 0
    outer loop
      vertex 193.25 30 6.5
      vertex 193.25 32 18.5
      vertex 193.25 32 6.5
    endloop
  endfacet
  facet normal -1 -0 0
    outer loop
      vertex 193.25 32 18.5
      vertex 193.25 30 6.5
      vertex 193.25 30 18.5
    endloop
  endfacet
  facet normal 1 -0 0
    outer loop
      vertex 189.25 30 18.5
      vertex 189.25 32 6.5
      vertex 189.25 32 18.5
    endloop
  endfacet
  facet normal 1 0 0
    outer loop
      vertex 189.25 32 6.5
      vertex 189.25 30 18.5
      vertex 189.25 30 6.5
    endloop
  endfacet
  facet normal -0 0 1
    outer loop
      vertex 189.25 32 6.5
      vertex 193.25 30 6.5
      vertex 193.25 32 6.5
    endloop
  endfacet
  facet normal 0 0 1
    outer loop
      vertex 193.25 30 6.5
      vertex 189.25 32 6.5
      vertex 189.25 30 6.5
    endloop
  endfacet
  facet normal -1 0 0
    outer loop
      vertex 0 0 0
      vertex 0 90 3
      vertex 0 90 0
    endloop
  endfacet
  facet normal -1 -0 0
    outer loop
      vertex 0 90 3
      vertex 0 0 0
      vertex 0 0 3
    endloop
  endfacet
  facet normal 1 -0 0
    outer loop
      vertex 203 0 3
      vertex 203 90 0
      vertex 203 90 3
    endloop
  endfacet
  facet normal 1 0 0
    outer loop
      vertex 203 90 0
      vertex 203 0 3
      vertex 203 0 0
    endloop
  endfacet
  facet normal 0 1 -0
    outer loop
      vertex 203 90 0
      vertex 0 90 3
      vertex 203 90 3
    endloop
  endfacet
  facet normal 0 1 0
    outer loop
      vertex 0 90 3
      vertex 203 90 0
      vertex 0 90 0
    endloop
  endfacet
  facet normal 0 0 -1
    outer loop
      vertex 0 0 0
      vertex 203 90 0
      vertex 203 0 0
    endloop
  endfacet
  facet normal -0 0 -1
    outer loop
      vertex 203 90 0
      vertex 0 0 0
      vertex 0 90 0
    endloop
  endfacet
  facet normal 0 -1 0
    outer loop
      vertex 0 0 0
      vertex 203 0 3
      vertex 0 0 3
    endloop
  endfacet
  facet normal 0 -1 -0
    outer loop
      vertex 203 0 3
      vertex 0 0 0
      vertex 203 0 0
    endloop
  endfacet
endsolid OpenSCAD_Model
