solid OpenSCAD_Model
  facet normal -1 0 0
    outer loop
      vertex 0 0 0
      vertex 0 26.6 20
      vertex 0 26.6 0
    endloop
  endfacet
  facet normal -1 -0 0
    outer loop
      vertex 0 26.6 20
      vertex 0 0 0
      vertex 0 0 20
    endloop
  endfacet
  facet normal 0 0 1
    outer loop
      vertex 16.6 26.6 20
      vertex 14.8 25.1 20
      vertex 16.6 0 20
    endloop
  endfacet
  facet normal 0 0 1
    outer loop
      vertex 16.6 26.6 20
      vertex 2 25.1 20
      vertex 14.8 25.1 20
    endloop
  endfacet
  facet normal -0 0 1
    outer loop
      vertex 0 26.6 20
      vertex 2 25.1 20
      vertex 16.6 26.6 20
    endloop
  endfacet
  facet normal 0 0 1
    outer loop
      vertex 0 0 20
      vertex 2 25.1 20
      vertex 0 26.6 20
    endloop
  endfacet
  facet normal 0 0 1
    outer loop
      vertex 2 25.1 20
      vertex 0 0 20
      vertex 2 0 20
    endloop
  endfacet
  facet normal 0 0 1
    outer loop
      vertex 16.6 0 20
      vertex 14.8 25.1 20
      vertex 14.8 0 20
    endloop
  endfacet
  facet normal 1 -0 0
    outer loop
      vertex 16.6 0 20
      vertex 16.6 26.6 0
      vertex 16.6 26.6 20
    endloop
  endfacet
  facet normal 1 0 0
    outer loop
      vertex 16.6 26.6 0
      vertex 16.6 0 20
      vertex 16.6 0 0
    endloop
  endfacet
  facet normal 0 0 -1
    outer loop
      vertex 0 0 0
      vertex 16.6 26.6 0
      vertex 16.6 0 0
    endloop
  endfacet
  facet normal -0 0 -1
    outer loop
      vertex 16.6 26.6 0
      vertex 0 0 0
      vertex 0 26.6 0
    endloop
  endfacet
  facet normal 0 -1 0
    outer loop
      vertex 0 0 20
      vertex 2 0 13.01
      vertex 2 0 20
    endloop
  endfacet
  facet normal 0 -1 0
    outer loop
      vertex 16.6 0 0
      vertex 2 0 13.01
      vertex 0 0 0
    endloop
  endfacet
  facet normal 0 -1 0
    outer loop
      vertex 0 0 0
      vertex 2 0 13.01
      vertex 0 0 20
    endloop
  endfacet
  facet normal 0 -1 0
    outer loop
      vertex 14.8 0 13.01
      vertex 16.6 0 20
      vertex 14.8 0 20
    endloop
  endfacet
  facet normal 0 -1 0
    outer loop
      vertex 14.8 0 13.01
      vertex 16.6 0 0
      vertex 16.6 0 20
    endloop
  endfacet
  facet normal 0 -1 0
    outer loop
      vertex 2 0 13.01
      vertex 16.6 0 0
      vertex 14.8 0 13.01
    endloop
  endfacet
  facet normal 0 1 -0
    outer loop
      vertex 16.6 26.6 0
      vertex 0 26.6 20
      vertex 16.6 26.6 20
    endloop
  endfacet
  facet normal 0 1 0
    outer loop
      vertex 0 26.6 20
      vertex 16.6 26.6 0
      vertex 0 26.6 0
    endloop
  endfacet
  facet normal 1 0 0
    outer loop
      vertex 2 25.1 20
      vertex 2 9 6.01
      vertex 2 25.1 6.01
    endloop
  endfacet
  facet normal 1 0 0
    outer loop
      vertex 2 9 6.01
      vertex 2 6 6.01
      vertex 2 9 0.5
    endloop
  endfacet
  facet normal 1 -0 0
    outer loop
      vertex 2 2 13.01
      vertex 2 9 6.01
      vertex 2 25.1 20
    endloop
  endfacet
  facet normal 1 0 0
    outer loop
      vertex 2 9 6.01
      vertex 2 2 13.01
      vertex 2 6 6.01
    endloop
  endfacet
  facet normal 1 -0 0
    outer loop
      vertex 2 0 20
      vertex 2 2 13.01
      vertex 2 25.1 20
    endloop
  endfacet
  facet normal 1 0 0
    outer loop
      vertex 2 2 13.01
      vertex 2 0 20
      vertex 2 0 13.01
    endloop
  endfacet
  facet normal 1 0 0
    outer loop
      vertex 2 9 0.5
      vertex 2 6 6.01
      vertex 2 6 0.5
    endloop
  endfacet
  facet normal 1 0 0
    outer loop
      vertex 2 6 6.01
      vertex 2 2 13.01
      vertex 2 2 6.01
    endloop
  endfacet
  facet normal -1 0 0
    outer loop
      vertex 14.8 9 0.5
      vertex 14.8 6 0.5
      vertex 14.8 9 6.01
    endloop
  endfacet
  facet normal -1 0 0
    outer loop
      vertex 14.8 9 6.01
      vertex 14.8 25.1 20
      vertex 14.8 25.1 6.01
    endloop
  endfacet
  facet normal -1 0 0
    outer loop
      vertex 14.8 6 6.01
      vertex 14.8 9 6.01
      vertex 14.8 6 0.5
    endloop
  endfacet
  facet normal -1 0 0
    outer loop
      vertex 14.8 2 13.01
      vertex 14.8 9 6.01
      vertex 14.8 6 6.01
    endloop
  endfacet
  facet normal -1 0 0
    outer loop
      vertex 14.8 2 13.01
      vertex 14.8 6 6.01
      vertex 14.8 2 6.01
    endloop
  endfacet
  facet normal -1 0 0
    outer loop
      vertex 14.8 9 6.01
      vertex 14.8 2 13.01
      vertex 14.8 25.1 20
    endloop
  endfacet
  facet normal -1 0 0
    outer loop
      vertex 14.8 0 20
      vertex 14.8 2 13.01
      vertex 14.8 0 13.01
    endloop
  endfacet
  facet normal -1 0 0
    outer loop
      vertex 14.8 2 13.01
      vertex 14.8 0 20
      vertex 14.8 25.1 20
    endloop
  endfacet
  facet normal -0 0 1
    outer loop
      vertex 2 25.1 6.01
      vertex 14.8 9 6.01
      vertex 14.8 25.1 6.01
    endloop
  endfacet
  facet normal 0 0 1
    outer loop
      vertex 14.8 9 6.01
      vertex 2 25.1 6.01
      vertex 2 9 6.01
    endloop
  endfacet
  facet normal -0 0 1
    outer loop
      vertex 2 6 6.01
      vertex 14.8 2 6.01
      vertex 14.8 6 6.01
    endloop
  endfacet
  facet normal 0 0 1
    outer loop
      vertex 14.8 2 6.01
      vertex 2 6 6.01
      vertex 2 2 6.01
    endloop
  endfacet
  facet normal 0 1 -0
    outer loop
      vertex 14.8 2 6.01
      vertex 2 2 13.01
      vertex 14.8 2 13.01
    endloop
  endfacet
  facet normal 0 1 0
    outer loop
      vertex 2 2 13.01
      vertex 14.8 2 6.01
      vertex 2 2 6.01
    endloop
  endfacet
  facet normal 0 -1 0
    outer loop
      vertex 2 25.1 6.01
      vertex 14.8 25.1 20
      vertex 2 25.1 20
    endloop
  endfacet
  facet normal 0 -1 -0
    outer loop
      vertex 14.8 25.1 20
      vertex 2 25.1 6.01
      vertex 14.8 25.1 6.01
    endloop
  endfacet
  facet normal -0 0 1
    outer loop
      vertex 2 2 13.01
      vertex 14.8 0 13.01
      vertex 14.8 2 13.01
    endloop
  endfacet
  facet normal 0 0 1
    outer loop
      vertex 14.8 0 13.01
      vertex 2 2 13.01
      vertex 2 0 13.01
    endloop
  endfacet
  facet normal -0 0 1
    outer loop
      vertex 2 9 0.5
      vertex 14.8 6 0.5
      vertex 14.8 9 0.5
    endloop
  endfacet
  facet normal 0 0 1
    outer loop
      vertex 14.8 6 0.5
      vertex 2 9 0.5
      vertex 2 6 0.5
    endloop
  endfacet
  facet normal 0 1 -0
    outer loop
      vertex 14.8 6 0.5
      vertex 2 6 6.01
      vertex 14.8 6 6.01
    endloop
  endfacet
  facet normal 0 1 0
    outer loop
      vertex 2 6 6.01
      vertex 14.8 6 0.5
      vertex 2 6 0.5
    endloop
  endfacet
  facet normal 0 -1 0
    outer loop
      vertex 2 9 0.5
      vertex 14.8 9 6.01
      vertex 2 9 6.01
    endloop
  endfacet
  facet normal 0 -1 -0
    outer loop
      vertex 14.8 9 6.01
      vertex 2 9 0.5
      vertex 14.8 9 0.5
    endloop
  endfacet
endsolid OpenSCAD_Model
